<?xml version="1.0" encoding="iso-8859-1"?>
<!-- Generator: Adobe Illustrator 19.0.0, SVG Export Plug-In . SVG Version: 6.00 Build 0)  -->
<svg xmlns="http://www.w3.org/2000/svg" xmlns:xlink="http://www.w3.org/1999/xlink" version="1.1" id="Capa_1" x="0px" y="0px" viewBox="0 0 512 512" style="enable-background:new 0 0 512 512;" xml:space="preserve">
<path style="fill:#ABDFF7;" d="M430.073,137.462c-5.384-32.342-33.561-57.077-67.407-57.077c-28.337,0-53.113,17.287-63.348,42.669  c-0.217-0.002-0.435-0.003-0.652-0.003c-37.679,0-68.333,30.654-68.333,68.334c0,4.585,0.46,9.178,1.369,13.651l2.44,12.016h219.741  l4.068-8.563c3.351-7.052,5.049-14.601,5.049-22.438C463,164.396,449.483,145.268,430.073,137.462z"/>
<path style="fill:#00A869;" d="M511.377,416.017c-1.343-33.657-19.299-64.87-50.56-87.889  c-30.132-22.189-69.659-34.409-111.298-34.409c-41.64,0-81.166,12.22-111.298,34.409c-31.26,23.02-49.216,54.232-50.56,87.889  l-0.623,15.598H512L511.377,416.017z"/>
<path style="fill:#60DD4D;" d="M382.417,416.017c-1.573-39.393-22.651-75.971-59.352-102.997  c-35.584-26.203-82.301-40.634-131.546-40.634s-95.961,14.43-131.545,40.634C23.273,340.045,2.195,376.624,0.622,416.017L0,431.615  h383.04L382.417,416.017z"/>
<rect x="91.67" y="219.83" style="fill:#804D00;" width="30" height="88.89"/>
<path style="fill:#00C47A;" d="M106.666,140.83C74.869,140.83,49,166.699,49,198.497c0,31.797,25.869,57.667,57.666,57.667  c31.798,0,57.667-25.869,57.667-57.667C164.333,166.699,138.464,140.83,106.666,140.83z"/>
<rect x="177" y="202.05" style="fill:#804D00;" width="30" height="117.33"/>
<path style="fill:#60DD4D;" d="M192,80.385c-49.442,0-89.667,40.225-89.667,89.667s40.224,89.667,89.667,89.667  s89.667-40.224,89.667-89.667S241.442,80.385,192,80.385z"/>
<path style="fill:#00C47A;" d="M192,259.719c49.442,0,89.667-40.224,89.667-89.667S241.442,80.385,192,80.385"/>
<path style="fill:#84D0F3;" d="M430.073,137.462c-5.153-30.954-31.189-54.923-63.086-56.925v136.515h86.895l4.068-8.563  c3.351-7.052,5.049-14.601,5.049-22.438C463,164.396,449.483,145.268,430.073,137.462z"/>
<g>
</g>
<g>
</g>
<g>
</g>
<g>
</g>
<g>
</g>
<g>
</g>
<g>
</g>
<g>
</g>
<g>
</g>
<g>
</g>
<g>
</g>
<g>
</g>
<g>
</g>
<g>
</g>
<g>
</g>
</svg>
