<?xml version="1.0" encoding="iso-8859-1"?>
<!-- Generator: Adobe Illustrator 19.0.0, SVG Export Plug-In . SVG Version: 6.00 Build 0)  -->
<svg xmlns="http://www.w3.org/2000/svg" xmlns:xlink="http://www.w3.org/1999/xlink" version="1.1" id="Capa_1" x="0px" y="0px" viewBox="0 0 512 512" style="enable-background:new 0 0 512 512;" xml:space="preserve">
<circle style="fill:#FFFFFF;" cx="116.33" cy="325.33" r="99.67"/>
<g>
	<path style="fill:#333333;" d="M116.333,209C52.187,209,0,261.188,0,325.333s52.187,116.333,116.333,116.333   s116.333-52.187,116.333-116.333S180.479,209,116.333,209z M116.333,411.667C68.729,411.667,30,372.938,30,325.333   S68.729,239,116.333,239s86.333,38.729,86.333,86.333S163.938,411.667,116.333,411.667z"/>
	<path style="fill:#333333;" d="M116.333,209v30c47.604,0.001,86.333,38.729,86.333,86.333s-38.729,86.333-86.333,86.333v30   c64.146,0,116.333-52.187,116.333-116.333S180.48,209,116.333,209z"/>
	<path style="fill:#333333;" d="M116.333,269C85.271,269,60,294.271,60,325.333s25.271,56.333,56.333,56.333   c31.063,0,56.334-25.271,56.334-56.333S147.396,269,116.333,269z"/>
	<path style="fill:#333333;" d="M116.333,381.667c31.063,0,56.334-25.271,56.334-56.333S147.396,269,116.333,269"/>
</g>
<circle style="fill:#FFFFFF;" cx="395.67" cy="325.33" r="99.67"/>
<path d="M395.667,209c-64.147,0-116.333,52.187-116.333,116.333s52.186,116.333,116.333,116.333S512,389.48,512,325.333  S459.813,209,395.667,209z M395.667,411.667c-47.604,0-86.333-38.729-86.333-86.333S348.063,239,395.667,239  S482,277.729,482,325.333S443.271,411.667,395.667,411.667z"/>
<path d="M395.667,209v30C443.271,239,482,277.729,482,325.333s-38.729,86.333-86.333,86.333v30  C459.813,441.666,512,389.48,512,325.333S459.813,209,395.667,209z"/>
<path d="M395.667,269c-31.062,0-56.333,25.271-56.333,56.333s25.271,56.333,56.333,56.333S452,356.396,452,325.333  S426.729,269,395.667,269z"/>
<path d="M395.667,381.667c31.062,0,56.333-25.271,56.333-56.333S426.729,269,395.667,269"/>
<polygon style="fill:#FF4F19;" points="415.478,324.333 97.809,324.333 148.476,134.333 224,134.333 224,164.333 171.524,164.333   136.858,294.333 373.855,294.333 322.989,141.735 369,118.729 369,100.333 298.667,100.333 298.667,70.333 399,70.333 399,137.27   359.677,156.932 "/>
<polygon style="fill:#DB3502;" points="369,118.729 322.989,141.735 373.855,294.333 256,294.333 256,324.333 415.478,324.333   359.677,156.932 399,137.27 399,70.333 298.667,70.333 298.667,100.333 369,100.333 "/>
<g>
</g>
<g>
</g>
<g>
</g>
<g>
</g>
<g>
</g>
<g>
</g>
<g>
</g>
<g>
</g>
<g>
</g>
<g>
</g>
<g>
</g>
<g>
</g>
<g>
</g>
<g>
</g>
<g>
</g>
</svg>
