<?xml version="1.0" encoding="iso-8859-1"?>
<!-- Generator: Adobe Illustrator 19.0.0, SVG Export Plug-In . SVG Version: 6.00 Build 0)  -->
<svg xmlns="http://www.w3.org/2000/svg" xmlns:xlink="http://www.w3.org/1999/xlink" version="1.1" id="Capa_1" x="0px" y="0px" viewBox="0 0 512 512" style="enable-background:new 0 0 512 512;" xml:space="preserve">
<path style="fill:#FFDB2D;" d="M266.841,27.155L256,15.863l-10.841,11.291C239.182,33.379,98.787,180.84,98.787,288.621  c0,83.993,70.525,152.327,157.213,152.327s157.213-68.333,157.213-152.327C413.213,180.84,272.818,33.379,266.841,27.155z"/>
<path style="fill:#FFAF2D;" d="M256,440.949c86.688,0,157.213-68.333,157.213-152.327c0-107.781-140.395-255.242-146.371-261.467  L256,15.863"/>
<path style="fill:#FF4F19;" d="M170.439,358.644c0-61.965,85.561-151.077,85.561-151.077s85.561,89.112,85.561,151.077  c0,45.63-38.307,82.62-85.561,82.62S170.439,404.273,170.439,358.644z"/>
<path style="fill:#DB3502;" d="M256,207.566c0,0,85.561,89.112,85.561,151.077c0,45.63-38.307,82.62-85.561,82.62"/>
<path style="fill:#FFFFFF;" d="M256,456.294c-55.466,0-100.591-43.806-100.591-97.65c0-28.887,15.332-65.055,45.569-107.496  c21.777-30.567,43.275-53.048,44.179-53.99l10.841-11.291l10.841,11.291c0.904,0.942,22.401,23.422,44.179,53.99  c30.238,42.442,45.569,78.609,45.569,107.496C356.59,412.488,311.466,456.294,256,456.294z M256.006,229.879  c-26.506,30.372-70.536,89.123-70.536,128.764c0,37.27,31.64,67.591,70.531,67.591c38.891,0,70.531-30.321,70.531-67.591  C326.53,318.933,282.514,260.227,256.006,229.879z"/>
<polygon style="fill:#56412D;" points="463.537,320.951 256,419.86 48.465,320.951 0,422.64 154.214,496.137 357.786,496.137   512,422.64 "/>
<polygon style="fill:#2B2117;" points="463.537,320.951 256,419.86 256,496.137 357.786,496.137 512,422.64 "/>
<g>
	
		<rect x="59.157" y="128.291" transform="matrix(-0.7071 -0.7071 0.7071 -0.7071 25.3018 297.1214)" style="fill:#FFDB2D;" width="30.059" height="30.059"/>
	
		<rect x="112.594" y="32.339" transform="matrix(-0.7071 -0.7071 0.7071 -0.7071 184.3729 171.107)" style="fill:#FFDB2D;" width="30.059" height="30.059"/>
</g>
<g>
	
		<rect x="422.785" y="128.286" transform="matrix(0.7071 -0.7071 0.7071 0.7071 26.8931 351.5578)" style="fill:#FFAF2D;" width="30.059" height="30.059"/>
	
		<rect x="369.348" y="32.333" transform="matrix(0.7071 -0.7071 0.7071 0.7071 79.0912 285.6681)" style="fill:#FFAF2D;" width="30.059" height="30.059"/>
</g>
<g>
</g>
<g>
</g>
<g>
</g>
<g>
</g>
<g>
</g>
<g>
</g>
<g>
</g>
<g>
</g>
<g>
</g>
<g>
</g>
<g>
</g>
<g>
</g>
<g>
</g>
<g>
</g>
<g>
</g>
</svg>
