<?xml version="1.0" encoding="iso-8859-1"?>
<!-- Generator: Adobe Illustrator 19.0.0, SVG Export Plug-In . SVG Version: 6.00 Build 0)  -->
<svg xmlns="http://www.w3.org/2000/svg" xmlns:xlink="http://www.w3.org/1999/xlink" version="1.1" id="Capa_1" x="0px" y="0px" viewBox="0 0 462.968 462.968" style="enable-background:new 0 0 462.968 462.968;" xml:space="preserve">
<g transform="matrix(1.25 0 0 -1.25 0 45)">
	<g>
		<g>
			<path style="fill:#3B88C3;" d="M311.253-278.27c0,0-8.761-5.427-17.51,0c-8.761,5.427-3.538,14.177-3.538,14.177     c-9.865,0.853-10.889,9.99-7.305,18.25c-5.769,1.582-11.81,2.492-18.068,2.492H105.543c-37.706,0-68.267-30.561-68.267-68.267     v-22.756h295.822v22.756c0,7.066-1.07,13.87-3.061,20.275C310.877-298.648,311.253-278.27,311.253-278.27"/>
			<g>
				<path style="fill:#662113;" d="M275.39-304.121c-1.434-21.948-9.444-30.254-9.444-30.254h15.758      C281.705-334.374,283.855-300.525,275.39-304.121"/>
				<path style="fill:#662113;" d="M55.674-311.186c3.63,2.856,9.921,22.71,21.265,27.432s36.489,10.889,36.102-1.024      c-0.375-11.913-15.246-28.274-12.151-34.338C89.739-324.521,44.148-320.243,55.674-311.186"/>
			</g>
			<path style="fill:#CCD6DD;" d="M62.751-309.366c3.63,2.856,7.407,19.866,18.751,24.576c11.344,4.722,31.926,11.924,31.539,0     c-0.375-11.913-13.983-19.16-25.145-24.576C76.746-314.782,51.225-318.423,62.751-309.366"/>
			<path style="fill:#292F33;" d="M317.807-172.992c-5.336,5.996-8.772,24.223-8.693,30.265c0.023,1.343-0.046,2.298-0.159,3.083     c0.102,6.975,0.159,14.268,0.159,22.3c0,101.194-77.847,124.553-124.553,124.553S59.986-16.149,59.986-117.343     c0-3.152-0.023-7.066-0.046-11.321c-0.08-0.569-0.137-1.388-0.125-2.685c0.159-13.153-9.387-24.576-10.456-35.556     c-1.058-10.98,5.052-4.654,6.758-1.456c0.887,1.673,2.321,5.359,4.085,7.361c1.013-37.513,5.404-80.919,23.154-80.919     c24.007,0,54.5,23.359,101.205,23.359s70.497-14.325,93.855-14.325c8.522,0,14.893,1.968,19.581,9.318     c1.604-2.321,3.231-4.301,4.517-5.2c3.561-2.492,7.828-2.492,6.599,1.513c-1.217,4.016-4.813,8.442-3.755,27.534     c0,0.046-0.011,0.08-0.011,0.125c1.092,7.122,1.911,15.815,2.514,26.158c1.217-1.183,2.446-2.23,3.55-3.072     C316.032-180.057,323.143-178.988,317.807-172.992"/>
			<g>
				<path style="fill:#CCD6DD;" d="M139.676-243.352h91.022l-45.511-56.889L139.676-243.352z"/>
				<path style="fill:#CCD6DD;" d="M145.365-249.246c16.68-12.117,31.767-11.15,39.822-11.15c8.055,0,24.963-0.967,39.686,10.798      l0.137,47.093h-79.644V-249.246z"/>
			</g>
			<path style="fill:#99AAB5;" d="M145.16-221.598c11.127-13.141,24.917-16.703,39.913-16.703s28.809,3.561,39.936,16.703v33.417     H145.16V-221.598z"/>
			<path style="fill:#CCD6DD;" d="M91.411-113.463c0,66.378,41.825,120.195,93.423,120.195c51.587,0,93.4-53.817,93.4-120.195     c0-66.367-41.813-117.02-93.4-117.02C133.236-230.484,91.411-179.83,91.411-113.463"/>
			<path style="fill:#66757F;" d="M184.516-179.636c18.273,0,27.841-9.034,28.865-10.069c3.049-3.026,3.049-7.964,0-11.002     c-3.026-3.004-7.873-3.026-10.934-0.068c-0.398,0.364-6.269,5.586-17.931,5.586c-11.81,0-17.692-5.382-17.931-5.598     c-3.118-2.913-7.999-2.822-10.957,0.216c-2.958,3.061-2.958,7.873,0.046,10.866C156.697-188.67,166.255-179.636,184.516-179.636"/>
			<path style="fill:#292F33;" d="M307.146-39.622c5.689,0.353,5.689,5.689,0,5.689c-5.689,0-23.313,8.238-33.189,17.135     c-0.023,0.023-0.034,0.011-0.057,0.034c-21.379,23.074-48.993,35.328-72.727,39.276c3.015,2.844,5.575,5.666,7.202,7.805     c2.23,2.913,3.095,7.669-2.219,4.79c-5.689-3.072-20.048-10.536-37.319-11.674c-1.49-0.102-2.583-0.319-3.493-0.592     c-11.287,4.494-27.614,6.793-32.882,6.098c-3.447-0.455-6.372-5.006-1.456-5.86c3.482-0.614,6.781-2.958,10.581-8.01     C120.8,6.754,99.922-7.798,84.437-29.962c-0.341-0.262-0.637-0.296-1.001-0.66c-7.76-7.93-24.11-29.616-31.221-30.686     c-5.234-0.785-6.042-5.336-0.353-4.983c3.049,0.193,8.772-0.762,15.098,0.375c-4.38-14.177-6.963-30.185-6.963-48.333     c0-9.023-0.228-14.29,0.102-37.046h8.181c-0.239,11.378-0.501,2.537-0.501,5.279c0,38.935,23.37-5.621,23.37,22.118     c0,21.959,9.785,28.331,21.572,37.74c0.137-1.752,0.319-3.47,0.33-5.37c0.023-5.598,5.291-5.689,6.007-1.07     c0.705,4.619,3.584,14.438,11.844,23.336c7.202,7.122,14.734,14.507,14.734,14.507s3.937-2.378,10.297-5.621     c0.011,0,0.011-0.011,0.023-0.011c12.163-6.155,11.901-22.972,14.7-27.238c2.799-4.267,5.074,1.32,6.77,6.758     c0.978,3.14,1.365,6.895,0.831,10.638c11.799-4.415,25.213-8.044,37.444-8.044c31.13,0,62.282-15.644,62.282-46.797     c0-31.13,23.347,18.022,23.347-20.901c0-2.776-0.25,6.053-0.455-5.325h8.181c0.068,22.756,0.068,21.879,0.068,36.432     c0,30.731-7.248,55.535-18.557,75.275C297.372-40.316,303.926-39.826,307.146-39.622"/>
			<g>
				<path style="fill:#99AAB5;" d="M166.141-137.96l-7.452-7.452c-8.693-8.693-22.938-8.693-31.63,0l0,0      c-8.704,8.704-8.704,22.938,0,31.642l7.441,7.452c8.704,8.693,22.938,8.693,31.642,0l0,0      C174.845-115.022,174.845-129.256,166.141-137.96"/>
				<path style="fill:#99AAB5;" d="M211.47-145.412l-7.452,7.452c-8.693,8.693-8.693,22.938,0,31.63l0,0      c8.704,8.704,22.938,8.704,31.642,0l7.452-7.441c8.693-8.704,8.693-22.938,0-31.642l0,0      C234.407-154.116,220.174-154.116,211.47-145.412"/>
			</g>
			<g>
				<path style="fill:#662113;" d="M161.032-124.204L161.032-124.204c0-5.291-4.335-9.626-9.637-9.626h-9.603      c-5.291,0-9.626,4.335-9.626,9.626c0,5.302,4.335,9.637,9.626,9.637h9.603C156.697-114.567,161.032-118.902,161.032-124.204"/>
				<path style="fill:#662113;" d="M238.003-124.193L238.003-124.193c0-5.291-4.335-9.626-9.637-9.626h-9.603      c-5.291,0-9.626,4.335-9.626,9.626c0,5.291,4.335,9.626,9.626,9.626h9.603C233.668-114.567,238.003-118.902,238.003-124.193"/>
			</g>
			<path id="SVGCleanerId_0" style="fill:#99AAB5;" d="M194.312-168.361L194.312-168.361c2.867,0,5.211,2.344,5.211,5.211v6.645     c0,2.867-2.344,5.211-5.211,5.211l0,0c-2.867,0-5.211-2.344-5.211-5.211v-6.645C189.101-166.017,191.445-168.361,194.312-168.361     "/>
			<g transform="translate(-1.621)">
				<path id="SVGCleanerId_0_1_" style="fill:#99AAB5;" d="M175.869-168.361L175.869-168.361c2.867,0,5.211,2.344,5.211,5.211v6.645      c0,2.867-2.344,5.211-5.211,5.211l0,0c-2.867,0-5.211-2.344-5.211-5.211v-6.645      C170.658-166.017,173.002-168.361,175.869-168.361"/>
			</g>
			<g>
				<path style="fill:#CCD6DD;" d="M110.594-127.754c0-16.475-8.351-29.833-18.648-29.833s-18.648,13.358-18.648,29.833      S81.649-97.91,91.946-97.91S110.594-111.279,110.594-127.754"/>
				<path style="fill:#CCD6DD;" d="M297.065-127.754c0-16.475-8.34-29.833-18.648-29.833c-10.297,0-18.637,13.358-18.637,29.833      s8.34,29.844,18.637,29.844C288.725-97.91,297.065-111.279,297.065-127.754"/>
			</g>
		</g>
	</g>
</g>
<g>
</g>
<g>
</g>
<g>
</g>
<g>
</g>
<g>
</g>
<g>
</g>
<g>
</g>
<g>
</g>
<g>
</g>
<g>
</g>
<g>
</g>
<g>
</g>
<g>
</g>
<g>
</g>
<g>
</g>
</svg>
