<?xml version="1.0" encoding="iso-8859-1"?>
<!-- Generator: Adobe Illustrator 19.0.0, SVG Export Plug-In . SVG Version: 6.00 Build 0)  -->
<svg xmlns="http://www.w3.org/2000/svg" xmlns:xlink="http://www.w3.org/1999/xlink" version="1.1" id="Capa_1" x="0px" y="0px" viewBox="0 0 512 512" style="enable-background:new 0 0 512 512;" xml:space="preserve">
<polygon style="fill:#FF4F19;" points="142.807,375.266 172.518,512 350.147,512 379.859,375.266 "/>
<g>
	<polygon style="fill:#DB3502;" points="261.333,375.266 261.333,512 350.147,512 379.859,375.266  "/>
	<path style="fill:#DB3502;" d="M251.402,0c-48.834,0-88.563,45.917-88.563,102.356s39.73,102.356,88.563,102.356   c48.834,0,88.563-45.917,88.563-102.356C339.966,45.917,300.236,0,251.402,0z"/>
</g>
<path style="fill:#FFE981;" d="M295.217,360.667c39.222-46.879,39.783-122.131,39.783-126h-30c0,0.248-0.086,25.072-7.515,53.547  c-3.927,15.055-10.454,32.917-21.152,47.804V213.333h-30v122.86c-28.124-38.888-28.664-100.764-28.666-101.543l-15,0.016h-15  c0,3.869,0.561,79.121,39.783,126L295.217,360.667L295.217,360.667z"/>
<polygon style="fill:#804D00;" points="385,424.907 137.667,424.907 261.333,340.477 "/>
<polygon style="fill:#FFDB2D;" points="123.667,340.477 123.667,459.643 261.333,340.477 "/>
<polygon style="fill:#FFAF2D;" points="261.333,340.477 399,459.643 399,340.477 "/>
<path style="fill:#FFB9A3;" d="M196.23,70.333c-48.834,0-88.563,45.917-88.563,102.356s39.728,102.356,88.563,102.356  s88.563-45.917,88.563-102.356S245.064,70.333,196.23,70.333z"/>
<path style="fill:#FF9575;" d="M196.23,275.046c48.834,0,88.563-45.917,88.563-102.356S245.064,70.334,196.23,70.334"/>
<path style="fill:#ABDFF7;" d="M315.771,250.689c-48.834,0-88.564-45.917-88.564-102.356s39.729-102.356,88.564-102.356  s88.563,45.917,88.563,102.356C404.333,204.773,364.604,250.689,315.771,250.689z"/>
<path style="fill:#4BBAED;" d="M315.771,45.977c48.834,0,88.563,45.917,88.563,102.356c0,56.44-39.729,102.356-88.563,102.356"/>
<g>
</g>
<g>
</g>
<g>
</g>
<g>
</g>
<g>
</g>
<g>
</g>
<g>
</g>
<g>
</g>
<g>
</g>
<g>
</g>
<g>
</g>
<g>
</g>
<g>
</g>
<g>
</g>
<g>
</g>
</svg>
