<?xml version="1.0" encoding="iso-8859-1"?>
<!-- Generator: Adobe Illustrator 19.0.0, SVG Export Plug-In . SVG Version: 6.00 Build 0)  -->
<svg xmlns="http://www.w3.org/2000/svg" xmlns:xlink="http://www.w3.org/1999/xlink" version="1.1" id="Capa_1" x="0px" y="0px" viewBox="0 0 512 512" style="enable-background:new 0 0 512 512;" xml:space="preserve">
<g>
	<path style="fill:#C2C2C2;" d="M512,21.228L490.771,0L98.115,392.658c-24.821-15.227-57.795-12.121-79.268,9.353   c-25.128,25.128-25.128,66.015,0,91.143C31.41,505.717,47.914,512,64.418,512s33.008-6.282,45.571-18.847   c21.474-21.474,24.581-54.447,9.354-79.268L512,21.228z M88.761,471.926c-6.502,6.502-15.148,10.082-24.344,10.082   s-17.841-3.581-24.344-10.083c-6.503-6.502-10.083-15.148-10.083-24.344s3.581-17.841,10.083-24.344   c6.503-6.502,15.148-10.083,24.344-10.083s17.841,3.581,24.344,10.083c6.503,6.503,10.083,15.148,10.083,24.344   C98.844,456.778,95.264,465.423,88.761,471.926z"/>
</g>
<path style="fill:#FFAF2D;" d="M258.964,253.036c-39.148-39.148-99.461-42.534-134.447-7.547  c-17.799,17.799-21.708,38.812-11.303,60.767c7.949,16.773,23.496,33.037,41.495,51.037c18,18,34.264,33.546,51.036,41.495  c8.024,3.803,15.92,5.693,23.581,5.693c13.302,0,25.892-5.702,37.186-16.996C301.499,352.497,298.112,292.183,258.964,253.036z"/>
<path style="fill:#FF9900;" d="M154.709,357.291c18,18,34.264,33.546,51.036,41.495c8.024,3.803,15.92,5.693,23.581,5.693  c13.302,0,25.892-5.702,37.186-16.996c34.986-34.986,31.601-95.299-7.547-134.447"/>
<polygon style="fill:#BF7300;" points="163.425,407.542 104.457,348.575 167.907,285.125 189.135,306.353 146.914,348.575   163.425,365.086 205.646,322.864 226.875,344.093 "/>
<path style="fill:#FFAF2D;" d="M364.635,147.364c-39.148-39.148-99.461-42.534-134.447-7.547  c-17.799,17.799-21.708,38.812-11.303,60.767c7.949,16.773,23.496,33.037,41.495,51.036c18,18,34.264,33.546,51.036,41.495  c8.024,3.803,15.919,5.693,23.581,5.693c13.302,0,25.892-5.702,37.186-16.996C407.17,246.825,403.784,186.513,364.635,147.364z"/>
<path style="fill:#FF9900;" d="M260.38,251.62c18,18,34.264,33.546,51.036,41.495c8.024,3.803,15.919,5.693,23.581,5.693  c13.302,0,25.892-5.702,37.186-16.996c34.986-34.986,31.601-95.299-7.547-134.447"/>
<polygon style="fill:#BF7300;" points="269.096,301.871 210.128,242.904 273.578,179.454 294.807,200.682 252.585,242.904   269.096,259.414 311.318,217.194 332.546,238.422 "/>
<path style="fill:#FFAF2D;" d="M470.306,41.693c-39.148-39.148-99.461-42.534-134.447-7.547  c-17.799,17.799-21.708,38.812-11.303,60.767c7.949,16.773,23.496,33.037,41.495,51.036c18,18,34.264,33.546,51.037,41.495  c8.024,3.803,15.919,5.693,23.581,5.693c13.302,0,25.892-5.702,37.186-16.996C512.84,141.154,509.455,80.841,470.306,41.693z"/>
<path style="fill:#FF9900;" d="M366.051,145.948c18,18,34.264,33.546,51.037,41.495c8.024,3.803,15.919,5.693,23.581,5.693  c13.302,0,25.892-5.702,37.186-16.996c34.986-34.986,31.601-95.299-7.548-134.447"/>
<polygon style="fill:#BF7300;" points="374.768,196.2 315.799,137.232 379.249,73.783 400.477,95.012 358.257,137.232   374.768,153.744 416.989,111.523 438.217,132.751 "/>
<g>
</g>
<g>
</g>
<g>
</g>
<g>
</g>
<g>
</g>
<g>
</g>
<g>
</g>
<g>
</g>
<g>
</g>
<g>
</g>
<g>
</g>
<g>
</g>
<g>
</g>
<g>
</g>
<g>
</g>
</svg>
