<?xml version="1.0" encoding="iso-8859-1"?>
<!-- Generator: Adobe Illustrator 19.0.0, SVG Export Plug-In . SVG Version: 6.00 Build 0)  -->
<svg xmlns="http://www.w3.org/2000/svg" xmlns:xlink="http://www.w3.org/1999/xlink" version="1.1" id="Capa_1" x="0px" y="0px" viewBox="0 0 476.43 476.43" style="enable-background:new 0 0 476.43 476.43;" xml:space="preserve">
<g transform="matrix(1.25 0 0 -1.25 0 45)">
	<g>
		<g>
			<path style="fill:#292F33;" d="M349.861-345.144v22.756c0,37.706-30.561,68.267-68.267,68.267H99.55     c-37.695,0-68.267-30.561-68.267-68.267v-22.756H349.861z"/>
			<g>
				<path style="fill:#BE1931;" d="M292.972-261.142c25.475,25.316,79.644,109.42,79.644,132.176c0,0-53.1,56.889-182.044,56.889      v-261.689C190.572-333.766,271.388-282.578,292.972-261.142"/>
				<path style="fill:#BE1931;" d="M88.172-261.142C62.697-235.827,8.528-151.722,8.528-128.966c0,0,53.1,56.889,182.044,56.889      v-261.689C190.572-333.766,109.756-282.578,88.172-261.142"/>
			</g>
			<path style="fill:#C1694F;" d="M199.105-160.255h-17.067c-4.699,0-8.533,3.834-8.533,8.533s3.834,8.533,8.533,8.533h17.067     c4.699,0,8.533-3.834,8.533-8.533S203.804-160.255,199.105-160.255"/>
			<g>
				<path style="fill:#292F33;" d="M190.572,18.182c49.493,0,131.994-24.747,131.994-131.994s0-132.005-24.747-132.005      c-24.758,0-57.754,24.758-107.247,24.758c-49.505,0-81.806-24.758-107.258-24.758c-27.568,0-24.747,98.998-24.747,132.005      C58.567-6.564,141.067,18.182,190.572,18.182"/>
				<path style="fill:#292F33;" d="M190.527,18.182c-49.493,0-131.994-24.747-131.994-131.994s0-132.005,24.747-132.005      c24.758,0,57.754,24.758,107.247,24.758c49.505,0,81.806-24.758,107.258-24.758c27.568,0,24.747,98.998,24.747,132.005      C322.532-6.564,240.031,18.182,190.527,18.182"/>
			</g>
			<g>
				<path style="fill:#7C533E;" d="M238.814-254.122c0-21.845-48.23-79.644-48.23-79.644s-48.23,57.105-48.23,79.644H238.814z"/>
				<path style="fill:#7C533E;" d="M148.372-256.91c17.67-12.846,33.667-11.822,42.2-11.822c8.533,0,26.453-1.024,42.064,11.446      l0.137,49.914h-84.4V-256.91z"/>
			</g>
			<path style="fill:#664131;" d="M148.372-231.639c11.73-13.926,34.384-15.201,42.086-15.201c7.703,0,30.379,1.274,42.109,15.201     v35.408h-84.196V-231.639z"/>
			<path style="fill:#7C533E;" d="M90.903-110.204c0,70.337,44.328,127.363,99.009,127.363c54.647,0,98.975-57.025,98.975-127.363     c0-70.326-44.328-127.863-98.975-127.863C135.231-238.068,90.903-180.531,90.903-110.204"/>
			<path style="fill:#292F33;" d="M66.691-149.788c-0.25,12.06-0.535,2.697-0.535,5.609c0,41.256,24.758-5.962,24.758,23.427     c0,29.4,16.498,32.347,32.996,48.845c8.249,8.249,24.747,24.428,24.747,24.428s41.244-24.929,74.251-24.929     c32.996,0,66.003-16.577,66.003-49.584c0-32.984,24.747,19.103,24.747-22.141c0-2.947-0.273,6.406-0.489-5.655h8.67     c0.068,24.11,0.068,23.199,0.068,38.605C321.906-3.936,239.417,36,189.901,36C140.419,36,58.715-3.265,58.715-110.523     c0-9.557-0.239-15.155,0.102-39.265L66.691-149.788z"/>
			<g>
				<path style="fill:#DD2E44;" d="M149.68-136.351L149.68-136.351c-5.609,0-10.194,4.597-10.194,10.206v10.183      c0,5.609,4.585,10.206,10.194,10.206c5.621,0,10.206-4.597,10.206-10.206v-10.183      C159.886-131.754,155.301-136.351,149.68-136.351"/>
				<path style="fill:#DD2E44;" d="M231.236-136.351L231.236-136.351c-5.609,0-10.194,4.597-10.194,10.206v10.183      c0,5.609,4.585,10.206,10.194,10.206c5.609,0,10.194-4.597,10.194-10.206v-10.183      C241.431-131.754,236.846-136.351,231.236-136.351"/>
			</g>
			<path style="fill:#3D2E24;" d="M200.653-167.867h-20.378c-2.822,0-5.097,2.287-5.097,5.097v1.855c0,2.81,2.276,5.109,5.097,5.109     h20.378c2.81,0,5.109-2.298,5.109-5.109v-1.855C205.761-165.58,203.463-167.867,200.653-167.867"/>
			<g>
				<path style="fill:#7C533E;" d="M281.594-98.019l-5.348-1.468c0,0-13.562-38.684-0.011-45.466      c30.322-15.155,39.492,43.156,39.492,58.311C315.728-75.263,281.594-98.019,281.594-98.019"/>
				<path style="fill:#7C533E;" d="M99.55-98.019l5.348-1.468c0,0,13.562-38.684,0.011-45.466      c-30.322-15.155-39.492,43.156-39.492,58.311C65.417-75.263,99.55-98.019,99.55-98.019"/>
			</g>
			<g>
				<path style="fill:#3D2E24;" d="M191.255-214.345c-31.334,0-40.96,21.663-42.564,23.268c-2.913,2.924-2.913,7.634,0,10.547      c2.822,2.833,7.339,2.913,10.263,0.273c0.592-0.432,8.203-5.541,32.302-5.541c25.031,0,32.267,5.518,32.336,5.575      c2.913,2.89,7.475,2.753,10.388-0.159c2.913-2.913,2.753-7.771-0.159-10.695C232.215-192.682,222.589-214.345,191.255-214.345"/>
				<path style="fill:#3D2E24;" d="M163.561-185.901c-3.766,0-7.248-1.695-9.557-4.665c-2.321-2.97-3.118-6.758-2.207-10.411      c0.091-0.387,0.228-0.751,0.398-1.115l11.514-23.575c0.956-1.957,2.947-3.186,5.12-3.186c0.023,0,0.057,0,0.091,0      c2.219,0.034,4.198,1.354,5.097,3.368l10.012,22.448c0.137,0.307,0.239,0.614,0.319,0.944c0.728,2.924,0.205,5.916-1.479,8.431      c-1.968,2.935-5.45,5.018-9.296,5.564l-8.727,2.048C164.426-185.946,163.994-185.901,163.561-185.901"/>
			</g>
			<path style="fill:#F5F8FA;" d="M172.755-193.729l-9.205,2.128c-4.187,0-7.259-3.937-6.246-7.999l11.514-23.575l10.001,22.448     C179.74-197.074,176.418-194.252,172.755-193.729"/>
			<path style="fill:#3D2E24;" d="M218.493-185.901c-0.432,0-0.865-0.046-1.286-0.148l-9.205-2.128     c-3.368-0.466-6.849-2.549-8.818-5.484c-1.684-2.514-2.219-5.507-1.479-8.431c0.08-0.33,0.182-0.637,0.319-0.944l10.012-22.448     c0.899-2.014,2.879-3.334,5.097-3.368c0.034,0,0.068,0,0.091,0c2.173,0,4.164,1.229,5.12,3.186l11.514,23.575     c0.171,0.364,0.307,0.728,0.398,1.115c0.91,3.652,0.114,7.441-2.207,10.411C225.741-187.596,222.259-185.901,218.493-185.901"/>
			<path style="fill:#F5F8FA;" d="M209.289-193.729l9.205,2.128c4.187,0,7.259-3.937,6.246-7.999l-11.514-23.575l-10.001,22.448     C202.303-197.074,205.625-194.252,209.289-193.729"/>
		</g>
	</g>
</g>
<g>
</g>
<g>
</g>
<g>
</g>
<g>
</g>
<g>
</g>
<g>
</g>
<g>
</g>
<g>
</g>
<g>
</g>
<g>
</g>
<g>
</g>
<g>
</g>
<g>
</g>
<g>
</g>
<g>
</g>
</svg>
