<?xml version="1.0" encoding="iso-8859-1"?>
<!-- Generator: Adobe Illustrator 19.0.0, SVG Export Plug-In . SVG Version: 6.00 Build 0)  -->
<svg xmlns="http://www.w3.org/2000/svg" xmlns:xlink="http://www.w3.org/1999/xlink" version="1.1" id="Capa_1" x="0px" y="0px" viewBox="0 0 512 512" style="enable-background:new 0 0 512 512;" xml:space="preserve">
<path style="fill:#C96823;" d="M304.32,418.01H16.321l166.813-166.813c40.236-40.236,105.472-40.236,145.708,0l68.067,68.067  L304.32,418.01z"/>
<g>
	<path style="fill:#A3ED5C;" d="M223.99,63.343c0,38.469,31.999,53.33,31.999,53.33s31.999-14.86,31.999-53.33   s-31.745-53.133-31.999-53.332C255.988,10.012,223.99,24.874,223.99,63.343z"/>
	<path style="fill:#A3ED5C;" d="M154.101,162.029c30.603,30.603,67.878,16.969,67.878,16.969s13.633-37.276-16.969-67.878   s-67.519-17.013-67.88-16.97C137.13,94.149,123.498,131.427,154.101,162.029z"/>
	<path style="fill:#A3ED5C;" d="M374.984,94.149c-0.361-0.043-37.277-13.631-67.88,16.97s-16.969,67.878-16.969,67.878   s37.276,13.633,67.878-16.969S374.984,94.149,374.984,94.149z"/>
</g>
<path style="fill:#FFBC97;" d="M478.093,311.967L478.093,311.967c-6.978,0-13.617,3.001-18.228,8.239l-1.829,2.078l-0.007-0.03  c14.276-15.576,3.227-40.691-17.901-40.691l0,0c-6.978,0-13.617,3.001-18.228,8.239l-57.381,65.188  c-14.754,16.761-33.133,29.531-53.451,37.544H173.251c4.547-5.822,11.626-9.57,19.586-9.57h66.151  c14.358,0,25.999-11.64,25.999-25.999l0,0c0-14.358-11.64-25.999-25.999-25.999H120.439c-31.466,0-61.447,13.381-82.458,36.804  L10,398.963v103.026h265.659c53.182,0,103.924-22.323,139.859-61.529l80.477-87.802  C510.271,337.083,499.222,311.967,478.093,311.967z"/>
<path d="M509.026,322.444c-5.557-12.63-17.58-20.478-31.381-20.478c-1.29,0-2.572,0.077-3.84,0.22  c-0.388-3.422-1.288-6.838-2.745-10.148c-5.557-12.63-17.581-20.478-31.381-20.478c-9.848,0-19.228,4.24-25.733,11.631  l-57.381,65.188c-13.479,15.313-30.636,27.364-49.614,34.848c-5.138,2.026-7.66,7.834-5.634,12.971  c1.552,3.934,5.318,6.333,9.306,6.333c1.221,0,2.462-0.225,3.666-0.7c21.914-8.644,41.724-22.558,57.287-40.239l57.381-65.189  c2.712-3.08,6.619-4.846,10.723-4.846c5.837,0,10.726,3.19,13.074,8.532c2.351,5.343,1.399,11.1-2.545,15.403  c-0.178,0.194-0.338,0.397-0.497,0.601l-55.181,62.69c-24.539,27.877-59.912,43.865-97.05,43.865H192.39  c-8.186,0-14.845-6.66-14.845-14.844c0-8.185,6.66-14.844,14.845-14.844h66.151c19.85,0,35.998-16.148,35.998-35.998  c0-19.85-16.148-35.998-35.998-35.998H119.638c-34.032,0-66.587,14.528-89.314,39.859l-27.768,30.95  c-3.688,4.111-3.346,10.433,0.765,14.121c4.111,3.687,10.434,3.346,14.121-0.765l27.768-30.948  c18.939-21.109,46.067-33.216,74.429-33.216h138.902c8.822,0,15.999,7.178,15.999,15.999c0,8.822-7.178,15.999-15.999,15.999  h-66.151c-19.213,0-34.844,15.63-34.844,34.843c0,19.213,15.631,34.843,34.844,34.843h105.092c42.883,0,83.727-18.461,112.061-50.65  l57.382-65.188c2.711-3.08,6.618-4.847,10.722-4.847c5.837,0,10.725,3.19,13.074,8.532c2.351,5.343,1.399,11.1-2.545,15.403  l-80.476,87.802c-33.95,37.041-82.24,58.286-132.488,58.286H10c-5.522,0-10,4.477-10,10c0,5.523,4.478,10,10,10h265.212  c55.839,0,109.503-23.608,147.231-64.772l80.476-87.802C512.243,349.242,514.584,335.076,509.026,322.444z"/>
<path d="M371.48,283.835c-5.522,0-9.995,4.477-9.995,10c0,5.523,4.482,10,10.005,10c5.523,0,10-4.477,10-10c0-5.523-4.477-10-10-10  H371.48z"/>
<path d="M255.988,137.006c-5.522,0-10,4.477-10,10v64.513c-25.527,2.248-50.431,13.111-69.926,32.606l-49.917,49.917  c-1.952,1.953-2.929,4.512-2.929,7.071s0.977,5.119,2.929,7.071c1.953,1.953,4.512,2.929,7.071,2.929s5.118-0.977,7.071-2.929  l49.917-49.916c36.272-36.273,95.294-36.273,131.566,0l18.848,18.848c3.906,3.905,10.236,3.905,14.142,0  c1.952-1.953,2.929-4.512,2.929-7.071s-0.977-5.119-2.929-7.071l-18.848-18.848c-19.495-19.495-44.399-30.359-69.926-32.606v-64.513  C265.988,141.483,261.511,137.006,255.988,137.006z"/>
<path d="M251.776,125.742c1.336,0.62,2.773,0.93,4.212,0.93c1.438,0,2.876-0.31,4.212-0.93c1.543-0.716,37.786-18.057,37.786-62.399  c0-40.731-30.718-58.756-37.218-62.115c-2.753-1.499-6.089-1.634-8.993-0.286c-1.543,0.717-37.785,18.061-37.785,62.401  C213.99,107.685,250.233,125.026,251.776,125.742z M255.951,21.609c7.864,5.328,22.036,18.196,22.036,41.734  c0,15.074-5.834,25.772-11.999,32.873V70.162c0-5.523-4.478-10-10-10c-5.522,0-10,4.477-10,10v26.051  c-6.17-7.105-11.999-17.799-11.999-32.868C233.989,39.557,248.513,26.657,255.951,21.609z"/>
<path d="M127.738,90.715c-0.646,1.767-15.424,43.67,19.291,78.385c18.538,18.538,39.122,22.961,54.552,22.961  c13.466,0,23.009-3.371,23.832-3.672c2.766-1.012,4.945-3.191,5.957-5.957c0.646-1.767,15.426-43.668-19.289-78.384  c-31.901-31.898-70.073-21.948-77.767-19.495C131.3,85.438,128.839,87.704,127.738,90.715z M145.262,102.345  c10.409-2.155,33.051-3.78,52.678,15.846c13.524,13.523,16.945,28.48,17.113,39.738l-23.002-23.002  c-3.906-3.905-10.236-3.905-14.142,0c-3.905,3.905-3.905,10.237,0,14.141l22.965,22.965c-11.269-0.183-26.231-3.604-39.702-17.076  C141.304,135.091,143.231,112.121,145.262,102.345z"/>
<path d="M280.745,182.433c1.012,2.766,3.19,4.945,5.957,5.957c0.823,0.301,10.363,3.672,23.831,3.672  c15.43,0,36.016-4.426,54.552-22.961c34.715-34.715,19.937-76.618,19.291-78.385c-1.101-3.01-3.56-5.275-6.571-6.16  c-7.406-2.378-45.749-12.527-77.77,19.494C265.319,138.765,280.099,180.666,280.745,182.433z M377.797,84.552  c-0.396-0.116-0.804-0.208-1.218-0.275C377.159,84.37,377.603,84.493,377.797,84.552z M314.176,118.191  c19.625-19.624,42.267-18.003,52.673-15.846c2.038,9.813,3.946,32.762-15.905,52.614c-13.524,13.524-28.48,16.944-39.737,17.111  l23.001-23.001c3.905-3.905,3.905-10.237,0-14.141c-3.906-3.905-10.236-3.905-14.142,0l-22.998,22.998  C297.233,146.661,300.657,131.71,314.176,118.191z"/>
<path d="M415.47,63.657c2.56,0,5.118-0.976,7.071-2.929l14.582-14.582c3.905-3.905,3.905-10.237,0-14.142  c-3.906-3.905-10.236-3.905-14.142,0l-14.582,14.582c-3.905,3.905-3.905,10.237,0,14.142  C410.351,62.681,412.91,63.657,415.47,63.657z"/>
<path d="M412.982,98.008h21.029c5.522,0,10-4.477,10-10s-4.478-10-10-10h-21.029c-5.522,0-10,4.477-10,10  S407.46,98.008,412.982,98.008z"/>
<path d="M381.003,66.157c5.522,0,10-4.477,10-10V35.094c0-5.523-4.478-10-10-10c-5.522,0-10,4.477-10,10v21.064  C371.004,61.68,375.48,66.157,381.003,66.157z"/>
<path d="M89.243,61.551c1.953,1.953,4.512,2.929,7.071,2.929c2.559,0,5.118-0.976,7.071-2.929c3.905-3.905,3.905-10.237,0-14.142  L88.803,32.827c-3.906-3.905-10.236-3.905-14.142,0c-3.905,3.905-3.905,10.237,0,14.142L89.243,61.551z"/>
<path d="M76.949,98.008h21.029c5.522,0,10-4.477,10-10s-4.478-10-10-10H76.949c-5.522,0-10,4.477-10,10S71.428,98.008,76.949,98.008  z"/>
<path d="M129.958,66.157c5.522,0,10-4.477,10-10V35.094c0-5.523-4.478-10-10-10s-10,4.477-10,10v21.064  C119.958,61.68,124.436,66.157,129.958,66.157z"/>
<g>
</g>
<g>
</g>
<g>
</g>
<g>
</g>
<g>
</g>
<g>
</g>
<g>
</g>
<g>
</g>
<g>
</g>
<g>
</g>
<g>
</g>
<g>
</g>
<g>
</g>
<g>
</g>
<g>
</g>
</svg>
