<?xml version="1.0" encoding="iso-8859-1"?>
<!-- Generator: Adobe Illustrator 19.0.0, SVG Export Plug-In . SVG Version: 6.00 Build 0)  -->
<svg xmlns="http://www.w3.org/2000/svg" xmlns:xlink="http://www.w3.org/1999/xlink" version="1.1" id="Capa_1" x="0px" y="0px" viewBox="0 0 512.001 512.001" style="enable-background:new 0 0 512.001 512.001;" xml:space="preserve">
<path style="fill:#C96823;" d="M501.986,501.995L317.87,364.005c-36.673-27.485-87.081-27.485-123.754,0L10,501.995"/>
<g>
	<path style="fill:#A3ED5C;" d="M111.119,161.181c58.474,58.474,106.42,2.413,106.42,2.413s56.061-47.946-2.413-106.42   S65.829,11.059,65.113,11.167C65.113,11.167,52.645,102.707,111.119,161.181z"/>
	<path style="fill:#A3ED5C;" d="M446.872,11.167C446.156,11.059,355.334-1.3,296.86,57.174s-2.413,106.42-2.413,106.42   s47.946,56.061,106.42-2.413S446.872,11.167,446.872,11.167z"/>
</g>
<g>
	<path style="fill:#12ADDD;" d="M366.1,304.067c0,37.528,30.422,67.95,67.95,67.95S502,341.594,502,304.067   c0-16.269-5.72-31.198-15.255-42.897h0.005l-52.459-67.549l-52.69,67.195h0.039C371.933,272.566,366.1,287.635,366.1,304.067z"/>
	<path style="fill:#12ADDD;" d="M10,304.067c0,37.528,30.422,67.95,67.95,67.95s67.95-30.422,67.95-67.95   c0-16.269-5.72-31.198-15.255-42.897h0.005l-52.459-67.549l-52.69,67.195h0.039C15.833,272.566,10,287.635,10,304.067z"/>
</g>
<path d="M507.983,493.993l-184.116-137.99c-17.01-12.749-36.795-20.302-57.726-22.151v-30.708l14.831-14.83  c3.905-3.905,3.905-10.237,0-14.142c-3.905-3.905-10.235-3.905-14.143,0l-0.688,0.688v-68.818l28.456-28.456  c9.308,7.903,26.459,19.306,48.681,20.172c0.91,0.035,1.817,0.053,2.725,0.053c21.486,0,42.312-9.935,61.936-29.559  c25.461-25.461,41.978-60.95,47.766-102.63c4.331-31.197,1.213-54.812,1.078-55.803c-0.599-4.395-4.02-7.87-8.404-8.537  c-0.233-0.036-24.329-3.441-56.234,1.017c-41.481,5.795-76.875,22.326-102.353,47.805c-20.452,20.453-30.38,42.208-29.506,64.66  c0.866,22.221,12.271,39.373,20.172,48.681l-14.315,14.315v-0.084c0-5.523-4.478-10-10-10c-5.522,0-10,4.477-10,10v0.381  l-14.612-14.612c7.903-9.308,19.306-26.459,20.172-48.681c0.874-22.452-9.054-44.207-29.506-64.66  c-25.48-25.479-60.873-42.011-102.355-47.806c-31.907-4.457-56-1.051-56.234-1.017c-4.385,0.667-7.806,4.142-8.404,8.537  c-0.135,0.99-3.253,24.605,1.078,55.803c5.787,41.681,22.304,77.169,47.766,102.63c19.625,19.625,40.447,29.56,61.935,29.559  c0.906,0,1.816-0.018,2.725-0.053c22.22-0.866,39.372-12.27,48.681-20.172l28.753,28.753v25.542l-0.709-0.709  c-3.906-3.905-10.236-3.905-14.143,0c-3.905,3.905-3.905,10.237,0,14.143l14.852,14.852v73.656  c-21.041,1.803-40.932,9.372-58.022,22.181L4.003,493.993c-4.42,3.312-5.317,9.58-2.005,13.999c3.312,4.419,9.58,5.316,13.999,2.005  l184.116-137.99c32.901-24.658,78.859-24.658,111.761,0l184.116,137.99c1.799,1.348,3.902,1.999,5.989,1.999  c3.041,0,6.046-1.382,8.01-4.003C513.299,503.573,512.403,497.305,507.983,493.993z M393.795,154.11  c-16.291,16.291-32.976,24.242-49.558,23.669c-15.544-0.547-28.164-8.522-35.429-14.407l47.653-47.653  c0.603,0.114,1.223,0.179,1.859,0.179h62.115C414.054,129.351,405.428,142.478,393.795,154.11z M437.918,34.265  c-0.167,15.765-2.068,38.322-9.583,61.635h-52.052L437.918,34.265z M423.852,20.045l-89.279,89.28V41.402  C366.733,23.752,401.925,20.21,423.852,20.045z M280.267,113.984c-0.648-16.655,7.313-33.39,23.663-49.74  c3.431-3.431,6.991-6.59,10.643-9.519v74.599l-19.937,19.937C288.779,142.077,280.875,129.589,280.267,113.984z M231.725,113.802  c-0.547,15.544-8.522,28.164-14.407,35.429l-19.905-19.905V54.715c3.653,2.93,7.211,6.098,10.643,9.53  C224.345,80.535,232.309,97.209,231.725,113.802z M177.413,41.399v67.926L88.129,20.041  C110.058,20.207,145.259,23.755,177.413,41.399z M74.068,34.264L135.704,95.9H83.651C76.136,72.584,74.234,50.027,74.068,34.264z   M167.748,177.779c-16.604,0.586-33.267-7.379-49.558-23.669l0,0c-11.632-11.632-20.258-24.759-26.641-38.21h62.115  c0.636,0,1.256-0.066,1.859-0.179l47.652,47.652C195.903,169.263,183.286,177.232,167.748,177.779z"/>
<path d="M376.202,452.053l-62.92-46.592c-4.438-3.285-10.7-2.353-13.987,2.085c-3.287,4.438-2.354,10.701,2.085,13.988l62.92,46.592  c1.79,1.325,3.875,1.964,5.943,1.964c3.061,0,6.083-1.401,8.044-4.049C381.573,461.602,380.639,455.34,376.202,452.053z"/>
<path d="M404.598,473.908l-0.166-0.124c-4.43-3.297-10.694-2.379-13.992,2.053c-3.297,4.431-2.378,10.695,2.053,13.992l0.166,0.124  c1.793,1.334,3.886,1.978,5.962,1.978c3.053,0,6.067-1.393,8.03-4.031C409.948,483.469,409.029,477.205,404.598,473.908z"/>
<path d="M434.315,183.621c-0.008,0-0.016,0-0.023,0c-3.071,0-5.974,1.412-7.869,3.83l-52.69,67.195  c-0.121,0.154-0.236,0.311-0.347,0.47c-11.153,13.812-17.284,31.159-17.284,48.951c0,42.982,34.968,77.951,77.95,77.951  s77.95-34.968,77.95-77.951c0-17.789-6.146-35.172-17.315-48.983c-0.012-0.016-0.024-0.031-0.036-0.047l-52.459-67.549  C440.3,185.055,437.395,183.628,434.315,183.621z M478.996,267.488c8.387,10.291,13.006,23.28,13.006,36.579  c0,31.954-25.996,57.951-57.95,57.951s-57.95-25.997-57.95-57.951c0-13.442,4.705-26.539,13.249-36.881  c0.223-0.27,0.43-0.548,0.62-0.835l44.285-56.475l44.427,57.205C478.781,267.218,478.885,267.354,478.996,267.488z"/>
<path d="M424.05,341.002c0,5.523,4.478,10,10,10c25.879,0,46.935-21.055,46.935-46.935c0-5.523-4.478-10-10-10  c-5.522,0-10,4.477-10,10c0,14.853-12.083,26.935-26.935,26.935C428.528,331.002,424.05,335.479,424.05,341.002z"/>
<path d="M77.95,382.017c42.982,0,77.95-34.968,77.95-77.951c0-17.799-6.154-35.193-17.334-49.009  c-0.006-0.007-0.012-0.015-0.017-0.022l-52.459-67.549c-1.89-2.433-4.795-3.859-7.875-3.866c-0.008,0-0.016,0-0.023,0  c-3.071,0-5.974,1.412-7.869,3.83l-52.69,67.195c-0.123,0.157-0.24,0.316-0.353,0.479C6.131,268.935,0.001,286.28,0.001,304.068  C0.001,347.048,34.968,382.017,77.95,382.017z M33.25,267.186c0.225-0.272,0.434-0.554,0.625-0.844l44.279-56.467l44.444,57.228  c0.096,0.13,0.195,0.258,0.298,0.384c8.387,10.291,13.006,23.281,13.006,36.58c0,31.954-25.996,57.951-57.95,57.951  S20,336.021,20,304.067C20,290.625,24.706,277.526,33.25,267.186z"/>
<path d="M77.95,351.001c25.879,0,46.935-21.055,46.935-46.935c0-5.523-4.478-10-10-10c-5.522,0-10,4.477-10,10  c0,14.853-12.083,26.935-26.935,26.935c-5.522,0-10,4.477-10,10C67.951,346.524,72.427,351.001,77.95,351.001z"/>
<g>
</g>
<g>
</g>
<g>
</g>
<g>
</g>
<g>
</g>
<g>
</g>
<g>
</g>
<g>
</g>
<g>
</g>
<g>
</g>
<g>
</g>
<g>
</g>
<g>
</g>
<g>
</g>
<g>
</g>
</svg>
