<?xml version="1.0" encoding="iso-8859-1"?>
<!-- Generator: Adobe Illustrator 19.0.0, SVG Export Plug-In . SVG Version: 6.00 Build 0)  -->
<svg xmlns="http://www.w3.org/2000/svg" xmlns:xlink="http://www.w3.org/1999/xlink" version="1.1" id="Capa_1" x="0px" y="0px" viewBox="0 0 512.001 512.001" style="enable-background:new 0 0 512.001 512.001;" xml:space="preserve">
<circle cx="183.005" cy="459.673" r="37.328"/>
<path style="fill:#999999;" d="M203.619,411.581l13.964-132.662l-29.833-3.141l-13.935,132.386  c-24.488,4.357-43.143,25.786-43.143,51.506c0,28.855,23.476,52.33,52.33,52.33s52.33-23.476,52.33-52.33  C235.331,438.134,222.251,419.6,203.619,411.581z M183.001,482.003c-12.314,0-22.333-10.018-22.333-22.332  c0-12.314,10.018-22.332,22.333-22.332c12.314,0,22.332,10.018,22.332,22.332C205.333,471.985,195.315,482.003,183.001,482.003z"/>
<polygon style="fill:#808080;" points="345.951,482.003 324.243,275.778 294.41,278.919 315.787,482.003 289.994,482.003   289.994,512.001 375.322,512.001 375.322,482.003 "/>
<g>
	<path style="fill:#D6D6D6;" d="M239.498,96.099l-29.998-0.104c0.029-8.458-1.715-11.978-4.356-17.306   c-3.355-6.769-7.531-15.192-7.477-30.732s4.288-23.935,7.69-30.68c2.678-5.31,4.447-8.817,4.477-17.276l29.998,0.104   c-0.054,15.54-4.288,23.935-7.69,30.68c-2.678,5.31-4.447,8.817-4.477,17.276c-0.029,8.458,1.715,11.978,4.356,17.306   C235.376,72.136,239.552,80.559,239.498,96.099z"/>
	<path style="fill:#D6D6D6;" d="M314.159,96.099l-29.998-0.104c0.029-8.458-1.715-11.978-4.356-17.306   c-3.355-6.769-7.531-15.193-7.477-30.733c0.054-15.54,4.288-23.935,7.69-30.68c2.678-5.31,4.447-8.817,4.477-17.276l29.998,0.104   c-0.054,15.54-4.288,23.935-7.69,30.679c-2.678,5.31-4.447,8.817-4.476,17.276c-0.029,8.458,1.715,11.978,4.356,17.306   C310.038,72.136,314.213,80.559,314.159,96.099z"/>
</g>
<rect x="83.051" y="187.69" width="44.957" height="29.998"/>
<rect x="383.993" y="187.69" width="44.957" height="29.998"/>
<path style="fill:#FF4F19;" d="M102.339,134.358v14.999c0,84.727,68.931,153.658,153.658,153.658s153.658-68.931,153.658-153.658  v-14.999H102.339z"/>
<path style="fill:#DB3502;" d="M255.997,134.358v168.657c84.727,0,153.658-68.931,153.658-153.658v-14.999H255.997z"/>
<g>
</g>
<g>
</g>
<g>
</g>
<g>
</g>
<g>
</g>
<g>
</g>
<g>
</g>
<g>
</g>
<g>
</g>
<g>
</g>
<g>
</g>
<g>
</g>
<g>
</g>
<g>
</g>
<g>
</g>
</svg>
