<?xml version="1.0" encoding="iso-8859-1"?>
<!-- Generator: Adobe Illustrator 19.0.0, SVG Export Plug-In . SVG Version: 6.00 Build 0)  -->
<svg xmlns="http://www.w3.org/2000/svg" xmlns:xlink="http://www.w3.org/1999/xlink" version="1.1" id="Capa_1" x="0px" y="0px" viewBox="0 0 512 512" style="enable-background:new 0 0 512 512;" xml:space="preserve">
<g>
	<path style="fill:#FDB455;" d="M497,331c-8.291,0-15-6.709-15-15v-30c0-8.291,6.709-15,15-15s15,6.709,15,15v30   C512,324.291,505.291,331,497,331z"/>
	<path style="fill:#FDB455;" d="M497,421c-8.291,0-15-6.709-15-15v-30c0-8.291,6.709-15,15-15s15,6.709,15,15v30   C512,414.291,505.291,421,497,421z"/>
	<path style="fill:#FDB455;" d="M437,421c-8.291,0-15-6.709-15-15v-30c0-8.291,6.709-15,15-15s15,6.709,15,15v30   C452,414.291,445.291,421,437,421z"/>
	<path style="fill:#FDB455;" d="M437,331c-8.291,0-15-6.709-15-15v-30c0-8.291,6.709-15,15-15s15,6.709,15,15v30   C452,324.291,445.291,331,437,331z"/>
	<path style="fill:#FDB455;" d="M377,331c-8.291,0-15-6.709-15-15v-30c0-8.291,6.709-15,15-15s15,6.709,15,15v30   C392,324.291,385.291,331,377,331z"/>
	<path style="fill:#FDB455;" d="M316,421c-8.291,0-15-6.709-15-15v-30c0-8.291,6.709-15,15-15s15,6.709,15,15v30   C331,414.291,324.291,421,316,421z"/>
	<path style="fill:#FDB455;" d="M377,421c-8.291,0-15-6.709-15-15v-30c0-8.291,6.709-15,15-15s15,6.709,15,15v30   C392,414.291,385.291,421,377,421z"/>
</g>
<path style="fill:#FFDAA8;" d="M301,301h210.7c0.3,0,0.3,0,0.3-0.3v-56.999c0-34.801-17.401-67.5-46.199-87.001L332.8,67.301  C305.2,48.401,274.9,37,241,33.1c-9.6-1.5-19.501-2.1-29.7-2.1C95.2,31,0,125.2,0,241.3V286c0,36.301,26.8,66.599,61,73.5V376  c0,57.9,47.1,105,105,105h271c46.199,0,82.8-42.001,73.5-90H256c-8.401,0-15-6.599-15-15v-15C273.999,361,301,333.999,301,301z"/>
<g>
	<path style="fill:#FFC473;" d="M510.5,391c9.3,47.999-27.301,90-73.5,90H241V376c0,8.401,6.599,15,15,15H510.5z"/>
	<path style="fill:#FFC473;" d="M512,243.701V300.7c0,0.3,0,0.3-0.3,0.3H301c0,32.999-27.001,60-60,60V33.1   c33.9,3.9,64.2,15.3,91.8,34.2l133.001,89.4C494.599,176.201,512,208.9,512,243.701z"/>
</g>
<path style="fill:#99522E;" d="M437,241h-30c-8.291,0-15-6.709-15-15s6.709-15,15-15h30c8.291,0,15,6.709,15,15S445.291,241,437,241  z"/>
<path style="fill:#A6673A;" d="M286,151h-23.101C257.8,142,250,134.2,241,129.101C232,124,221.8,121,211,121  c-32.999,0-60,27.001-60,60s27.001,60,60,60h75c24.901,0,45-20.099,45-45S310.901,151,286,151z"/>
<path style="fill:#99522E;" d="M331,196c0,24.901-20.099,45-45,45h-45V129.101c9,5.099,16.8,12.9,21.899,21.899H286  C310.901,151,331,171.099,331,196z"/>
<g>
</g>
<g>
</g>
<g>
</g>
<g>
</g>
<g>
</g>
<g>
</g>
<g>
</g>
<g>
</g>
<g>
</g>
<g>
</g>
<g>
</g>
<g>
</g>
<g>
</g>
<g>
</g>
<g>
</g>
</svg>
