<?xml version="1.0" encoding="iso-8859-1"?>
<!-- Generator: Adobe Illustrator 19.0.0, SVG Export Plug-In . SVG Version: 6.00 Build 0)  -->
<svg xmlns="http://www.w3.org/2000/svg" xmlns:xlink="http://www.w3.org/1999/xlink" version="1.1" id="Capa_1" x="0px" y="0px" viewBox="0 0 512.005 512.005" style="enable-background:new 0 0 512.005 512.005;" xml:space="preserve">
<polygon style="fill:#C96823;" points="210.735,444.155 225.146,502.001 286.854,502.001 301.265,444.155 357.026,421.047   408.115,451.757 451.755,408.116 421.045,357.027 444.153,301.267 502,286.855 502,225.147 444.153,210.736 421.045,154.975   451.755,103.886 408.115,60.246 357.026,90.956 301.265,67.848 286.854,10.001 225.146,10.001 210.735,67.848 154.974,90.956   103.885,60.246 60.245,103.886 90.955,154.975 67.847,210.736 10,225.147 10,286.855 67.847,301.267 90.955,357.027 60.245,408.116   103.885,451.757 154.974,421.047 "/>
<circle style="fill:#F1F2F2;" cx="255.21" cy="255.431" r="138.76"/>
<g>
	<path style="fill:#A3ED5C;" d="M182.943,274.109c30.413,30.413,69.209,15.114,69.209,15.114s15.299-38.796-15.114-69.209   s-68.838-15.172-69.211-15.116C167.827,204.898,152.53,243.697,182.943,274.109z"/>
	<path style="fill:#A3ED5C;" d="M344.172,204.898c-0.372-0.057-38.798-15.298-69.211,15.116s-15.114,69.209-15.114,69.209   s38.796,15.299,69.209-15.114C359.469,243.697,344.172,204.898,344.172,204.898z"/>
</g>
<path d="M504.417,215.444l-52.956-13.192l-19.249-46.447l28.113-46.767c2.366-3.935,1.747-8.976-1.5-12.223l-43.641-43.641  c-3.247-3.247-8.289-3.866-12.223-1.5l-46.767,28.113L309.75,60.539L296.557,7.584c-1.11-4.456-5.112-7.583-9.703-7.583h-61.707  c-4.592,0-8.593,3.127-9.704,7.583L202.25,60.539l-46.447,19.249l-46.767-28.113c-3.936-2.366-8.977-1.748-12.223,1.5l-43.64,43.64  c-3.247,3.247-3.865,8.288-1.5,12.223l28.113,46.767l-19.248,46.446L7.583,215.444C3.127,216.554,0,220.556,0,225.147v61.707  c0,4.592,3.127,8.593,7.583,9.704l52.956,13.192l19.249,46.447l-28.113,46.767c-2.366,3.935-1.747,8.976,1.5,12.223l43.641,43.641  c3.246,3.247,8.288,3.865,12.223,1.5l46.767-28.113l46.447,19.249l13.192,52.956c1.11,4.456,5.112,7.583,9.704,7.583h61.707  c4.592,0,8.593-3.127,9.704-7.583l13.192-52.956l46.447-19.249l46.767,28.113c3.935,2.365,8.976,1.747,12.223-1.5l43.641-43.641  c3.247-3.247,3.865-8.288,1.5-12.223l-28.113-46.767l19.249-46.447l52.956-13.192c4.456-1.11,7.583-5.112,7.583-9.704v-61.707  C512,220.556,508.873,216.554,504.417,215.444z M492,279.04l-50.264,12.522c-3.076,0.767-5.607,2.946-6.821,5.875l-23.109,55.762  c-1.214,2.93-0.966,6.262,0.667,8.98l26.685,44.392l-32.589,32.589l-44.392-26.685c-2.718-1.633-6.051-1.882-8.98-0.667  l-55.762,23.109c-2.929,1.214-5.108,3.745-5.875,6.821l-12.521,50.263h-46.078l-12.522-50.264c-0.767-3.076-2.946-5.607-5.875-6.821  l-55.762-23.109c-2.931-1.214-6.263-0.966-8.98,0.667l-44.392,26.685l-32.589-32.588l26.685-44.392  c1.634-2.718,1.881-6.05,0.667-8.98l-23.109-55.762c-1.214-2.929-3.745-5.108-6.821-5.875L20,279.04v-46.078l50.264-12.522  c3.076-0.767,5.607-2.946,6.821-5.875l23.109-55.762c1.214-2.93,0.966-6.262-0.667-8.98l-26.686-44.392l32.589-32.589l44.392,26.685  c2.717,1.633,6.051,1.882,8.98,0.667l55.762-23.109c2.929-1.214,5.108-3.745,5.875-6.821l12.522-50.263h46.078l12.522,50.264  c0.767,3.076,2.946,5.607,5.875,6.821l55.762,23.109c2.93,1.214,6.263,0.966,8.98-0.667l44.392-26.685l32.589,32.589l-26.685,44.392  c-1.634,2.718-1.881,6.05-0.667,8.98l23.109,55.762c1.214,2.929,3.745,5.108,6.821,5.875L492,232.962V279.04z"/>
<path d="M308.739,374.865c-16.749,7.426-34.593,11.027-52.342,11.026c-33.95-0.001-67.535-13.179-92.321-37.965  c-41.975-41.975-50.234-106.938-20.085-157.976c2.809-4.755,1.231-10.887-3.524-13.696c-4.752-2.809-10.887-1.232-13.696,3.524  c-34.793,58.899-25.268,133.859,23.162,182.291c21.85,21.849,49.426,36.241,79.747,41.619c8.806,1.562,17.652,2.337,26.464,2.337  c20.833,0,41.446-4.338,60.702-12.876c5.048-2.239,7.327-8.146,5.088-13.195C319.696,374.904,313.785,372.626,308.739,374.865z"/>
<path d="M157.004,167.007c2.551,0,5.103-0.97,7.054-2.912l0.1-0.1c3.915-3.896,3.93-10.228,0.035-14.142  c-3.896-3.916-10.228-3.931-14.142-0.035l-0.1,0.1c-3.915,3.896-3.93,10.228-0.035,14.142  C151.87,166.024,154.437,167.007,157.004,167.007z"/>
<path d="M256,106.001c-21.136,0-41.604,4.323-60.837,12.85c-5.049,2.239-7.328,8.146-5.089,13.195s8.146,7.328,13.195,5.089  c16.664-7.388,34.405-11.134,52.731-11.134c34.724,0,67.37,13.522,91.924,38.076c41.975,41.975,50.234,106.938,20.085,157.976  c-2.809,4.755-1.231,10.887,3.524,13.696c1.596,0.943,3.347,1.392,5.077,1.392c3.42,0,6.753-1.757,8.619-4.916  c34.793-58.899,25.268-133.859-23.163-182.291C333.734,121.604,296.066,106.001,256,106.001z"/>
<path d="M347.942,347.908l-0.1,0.1c-3.915,3.896-3.93,10.228-0.035,14.142c1.954,1.964,4.521,2.946,7.088,2.946  c2.551,0,5.103-0.97,7.054-2.912l0.1-0.1c3.915-3.896,3.93-10.228,0.035-14.142C358.188,344.026,351.855,344.012,347.942,347.908z"/>
<path d="M353.474,201.23c-1.106-2.806-3.406-4.934-6.222-5.846c-7.642-2.683-47.362-14.442-79.362,17.558  c-4.942,4.942-8.838,10.063-11.89,15.216c-3.052-5.154-6.948-10.275-11.89-15.216c-31.875-31.874-71.406-20.333-79.361-17.559  c-2.817,0.912-5.117,3.04-6.224,5.847c-0.723,1.833-17.306,45.297,17.347,79.95c17.517,17.517,37.279,21.94,52.784,21.94  c6.779,0,12.74-0.847,17.345-1.815v37.806c0,5.523,4.477,10,10,10s10-4.477,10-10v-37.806c4.604,0.968,10.564,1.815,17.344,1.815  c15.503,0,35.269-4.426,52.784-21.94C370.78,246.528,354.197,203.064,353.474,201.23z M190.014,267.038  c-20.033-20.032-16.688-44.3-14.212-54.096c10.503-2.639,34.404-5.618,54.165,14.144c11.85,11.85,15.517,25.179,16.025,36.121  c-0.058,1.845-0.05,3.638,0.01,5.368c-0.005,0.115-0.012,0.227-0.018,0.341l-28.921-28.917c-3.906-3.905-10.238-3.905-14.142,0  c-3.905,3.906-3.905,10.237,0,14.142l28.917,28.913C220.079,283.616,204.015,281.039,190.014,267.038z M321.985,267.038  c-14.005,14.006-30.074,16.58-41.826,16.017l28.919-28.915c3.905-3.905,3.906-10.236,0-14.142c-3.904-3.904-10.236-3.906-14.142,0  l-28.919,28.915c-0.006-0.123-0.014-0.243-0.019-0.367c0.059-1.716,0.066-3.493,0.009-5.322c0.504-10.948,4.17-24.284,16.025-36.138  c19.75-19.751,43.635-16.786,54.148-14.148C338.62,222.72,341.941,247.082,321.985,267.038z M346.027,195.072  c0.601,0.113,1.054,0.254,1.224,0.312C346.853,195.255,346.444,195.151,346.027,195.072z"/>
<g>
</g>
<g>
</g>
<g>
</g>
<g>
</g>
<g>
</g>
<g>
</g>
<g>
</g>
<g>
</g>
<g>
</g>
<g>
</g>
<g>
</g>
<g>
</g>
<g>
</g>
<g>
</g>
<g>
</g>
</svg>
