<?xml version="1.0" encoding="iso-8859-1"?>
<!-- Generator: Adobe Illustrator 19.0.0, SVG Export Plug-In . SVG Version: 6.00 Build 0)  -->
<svg xmlns="http://www.w3.org/2000/svg" xmlns:xlink="http://www.w3.org/1999/xlink" version="1.1" id="Capa_1" x="0px" y="0px" viewBox="0 0 512 512" style="enable-background:new 0 0 512 512;" xml:space="preserve">
<path style="fill:#BEF7F0;" d="M255.999,10C167.637,10,96.001,81.622,96.001,169.979c0,46.725,20.816,89.752,53.103,119.446  c19.284,17.735,30.223,42.76,30.223,68.958l0,0v66.968c0,42.332,34.317,76.649,76.649,76.649l0,0  c42.332,0,76.649-34.317,76.649-76.649v-66.968h0.117l0,0c0-25.978,10.777-50.845,29.908-68.419  c32.433-29.795,53.35-73.132,53.35-119.985C415.998,81.621,344.366,10,255.999,10z"/>
<path style="fill:#12ADDD;" d="M179.326,384.022v41.329c0,42.333,34.317,76.649,76.648,76.649l0,0  c42.333,0,76.649-34.317,76.649-76.649v-41.329H179.326z"/>
<g>
	<path style="fill:#59AA33;" d="M170.255,257.735c35.695,35.695,81.227,17.739,81.227,17.739s17.956-45.534-17.739-81.227   s-80.792-17.807-81.229-17.741C152.515,176.505,134.561,222.04,170.255,257.735z"/>
	<path style="fill:#59AA33;" d="M359.483,176.505c-0.437-0.066-45.535-17.954-81.229,17.741s-17.739,81.227-17.739,81.227   s45.534,17.956,81.227-17.739S359.483,176.505,359.483,176.505z"/>
</g>
<path d="M255.999,0C162.262,0,86.001,76.251,86.001,169.979c0,47.663,20.533,93.881,56.334,126.806  c17.153,15.776,26.991,38.229,26.991,61.599v66.968c0,47.778,38.871,86.648,86.649,86.648c47.778,0,86.648-38.871,86.648-86.648  v-65.432c0.077-0.501,0.117-1.014,0.117-1.536c0-23.23,9.722-45.484,26.674-61.056c35.96-33.036,56.584-79.452,56.584-127.349  C425.998,76.251,349.737,0,255.999,0z M255.975,492c-36.751,0-66.649-29.898-66.649-66.648v-31.348L246.001,394v20.191  l-25.033,25.034c-3.905,3.905-3.905,10.237,0,14.143c1.953,1.952,4.512,2.929,7.071,2.929c2.559,0,5.118-0.977,7.071-2.929  l10.891-10.891v22.192c0,5.522,4.478,10,10,10s10-4.478,10-10v-50.153l10.89,10.89c1.953,1.952,4.512,2.929,7.071,2.929  c2.559,0,5.118-0.977,7.071-2.929c3.905-3.905,3.905-10.237,0-14.143l-17.264-17.264l48.856-0.003v31.357  C322.624,462.101,292.726,492,255.975,492z M160.45,184.521c12.084-3.219,41.775-7.652,66.223,16.795  c14.263,14.263,18.691,30.279,19.315,43.445c-0.078,2.286-0.068,4.502,0.01,6.636c-0.063,1.441-0.164,2.83-0.296,4.157  l-36.631-36.627c-3.904-3.905-10.237-3.905-14.142,0c-3.905,3.906-3.905,10.237,0.001,14.142l36.569,36.565  c-14.377,1.386-35.824-0.62-54.174-18.971l0,0C152.489,225.826,157.449,195.652,160.45,184.521z M266.042,245.839  c0.439-13.395,4.698-29.938,19.282-44.523c24.445-24.448,54.137-20.015,66.22-16.797c3.009,11.168,7.949,41.321-16.874,66.143  c-18.472,18.471-39.887,20.457-54.233,19.03l36.628-36.624c3.906-3.905,3.906-10.236,0.001-14.142  c-3.903-3.904-10.236-3.906-14.142,0l-36.571,36.567c-0.156-1.613-0.271-3.309-0.323-5.086  C266.071,248.922,266.077,247.398,266.042,245.839z M355.885,282.6c-20.67,18.986-32.689,45.938-33.131,74.168  c-0.086,0.525-0.13,1.065-0.13,1.615v15.612l-56.625,0.004v-86.501c5.522,1.295,13.187,2.56,22.076,2.56  c17.835,0,40.58-5.094,60.738-25.252c39.874-39.874,20.804-89.86,19.973-91.968c-1.108-2.813-3.416-4.944-6.241-5.852l-0.021-0.007  c-8.793-3.087-54.519-16.625-91.341,20.197c-6.533,6.533-11.475,13.338-15.183,20.159c-3.708-6.821-8.65-13.626-15.183-20.159  c-36.823-36.822-82.549-23.285-91.341-20.197l-0.021,0.007c-2.825,0.908-5.133,3.04-6.241,5.852  c-0.831,2.108-19.901,52.095,19.973,91.968c20.161,20.161,42.902,25.253,60.738,25.252c8.889,0,16.555-1.266,22.077-2.561v86.504  l-56.675,0.004v-15.621c0-28.949-12.192-56.767-33.452-76.318c-31.695-29.149-49.873-70.002-49.873-112.085  c0-82.698,67.289-149.979,149.999-149.979s149.999,67.28,149.999,149.979C405.998,212.292,387.731,253.341,355.885,282.6z"/>
<path d="M256.108,40h-0.109c-5.522,0-10,4.477-10,10s4.478,10,10,10h0.109c5.522,0,10-4.477,10-10S261.631,40,256.108,40z"/>
<path d="M300.415,47.787c-5.194-1.89-10.929,0.792-12.814,5.982c-1.887,5.19,0.792,10.928,5.982,12.814  c22.933,8.335,42.721,24.359,55.721,45.122c1.897,3.032,5.154,4.695,8.485,4.695c1.813,0,3.647-0.493,5.297-1.526  c4.682-2.931,6.1-9.102,3.169-13.782C350.9,76.568,327.518,57.638,300.415,47.787z"/>
<path d="M64.001,74.003c-2.56,0-5.118-0.977-7.071-2.929l-24.5-24.5c-3.905-3.905-3.905-10.237,0-14.143  c3.906-3.904,10.236-3.904,14.143,0l24.5,24.5c3.905,3.905,3.905,10.237,0,14.143C69.119,73.026,66.561,74.003,64.001,74.003z"/>
<path d="M447.998,74.003c-2.56,0-5.118-0.977-7.071-2.929c-3.905-3.905-3.905-10.237,0-14.143l24.5-24.5  c3.906-3.904,10.236-3.904,14.143,0c3.905,3.905,3.905,10.237,0,14.143l-24.5,24.5C453.116,73.026,450.558,74.003,447.998,74.003z"/>
<path d="M39.501,393.962c-2.56,0-5.118-0.977-7.071-2.929c-3.905-3.905-3.905-10.237,0-14.143l24.5-24.5  c3.906-3.904,10.236-3.904,14.143,0c3.905,3.905,3.905,10.237,0,14.143l-24.5,24.5C44.619,392.985,42.061,393.962,39.501,393.962z"/>
<path d="M472.498,393.962c-2.56,0-5.118-0.977-7.071-2.929l-24.5-24.5c-3.905-3.905-3.905-10.237,0-14.143  c3.906-3.904,10.236-3.904,14.143,0l24.5,24.5c3.905,3.905,3.905,10.237,0,14.143C477.616,392.985,475.058,393.962,472.498,393.962z  "/>
<g>
</g>
<g>
</g>
<g>
</g>
<g>
</g>
<g>
</g>
<g>
</g>
<g>
</g>
<g>
</g>
<g>
</g>
<g>
</g>
<g>
</g>
<g>
</g>
<g>
</g>
<g>
</g>
<g>
</g>
</svg>
