<?xml version="1.0" encoding="iso-8859-1"?>
<!-- Generator: Adobe Illustrator 19.0.0, SVG Export Plug-In . SVG Version: 6.00 Build 0)  -->
<svg xmlns="http://www.w3.org/2000/svg" xmlns:xlink="http://www.w3.org/1999/xlink" version="1.1" id="Capa_1" x="0px" y="0px" viewBox="0 0 512 512" style="enable-background:new 0 0 512 512;" xml:space="preserve">
<rect x="213.33" y="443.67" width="85.33" height="30"/>
<circle cx="165.33" cy="459.67" r="37.33"/>
<path style="fill:#999999;" d="M185.952,411.574l17.3-164.354l-29.835-3.141l-17.271,164.078  C131.658,412.514,113,433.945,113,459.667C113,488.523,136.477,512,165.333,512c28.857,0,52.334-23.477,52.334-52.333  C217.667,438.129,204.585,419.593,185.952,411.574z M165.333,482C153.019,482,143,471.981,143,459.667  c0-12.315,10.019-22.333,22.333-22.333c12.315,0,22.334,10.019,22.334,22.333S177.648,482,165.333,482z"/>
<circle cx="346.67" cy="459.67" r="37.33"/>
<path style="fill:#808080;" d="M355.854,408.157l-17.271-164.078l-29.835,3.141l17.3,164.354  c-18.633,8.019-31.714,26.555-31.714,48.093c0,28.857,23.477,52.333,52.333,52.333C375.524,512,399,488.523,399,459.667  C399,433.945,380.343,412.514,355.854,408.157z M346.667,482c-12.315,0-22.334-10.019-22.334-22.333  c0-12.315,10.019-22.333,22.334-22.333c12.315,0,22.333,10.019,22.333,22.333S358.982,482,346.667,482z"/>
<rect x="83.04" y="117.33" width="44.96" height="30"/>
<rect x="384" y="117.33" width="44.96" height="30"/>
<path style="fill:#FF4F19;" d="M113,117.333v15.515c0,78.851,64.149,143,143,143s143-64.149,143-143v-15l-143-8.515L113,117.333z"/>
<path style="fill:#DB3502;" d="M256,117.333c0,0,0,100.512,0,158.515c78.851,0,143-64.149,143-143v-15.515  C399,117.333,256,117.333,256,117.333z"/>
<polygon points="296.727,0 215.273,0 215.273,30 241,30 241,74.485 271,74.485 271,30 296.727,30 "/>
<rect x="113" y="59.667" style="fill:#FFAF2D;" width="286" height="57.667"/>
<g>
</g>
<g>
</g>
<g>
</g>
<g>
</g>
<g>
</g>
<g>
</g>
<g>
</g>
<g>
</g>
<g>
</g>
<g>
</g>
<g>
</g>
<g>
</g>
<g>
</g>
<g>
</g>
<g>
</g>
</svg>
