<?xml version="1.0" encoding="iso-8859-1"?>
<!-- Generator: Adobe Illustrator 19.0.0, SVG Export Plug-In . SVG Version: 6.00 Build 0)  -->
<svg xmlns="http://www.w3.org/2000/svg" xmlns:xlink="http://www.w3.org/1999/xlink" version="1.1" id="Capa_1" x="0px" y="0px" viewBox="0 0 512 512" style="enable-background:new 0 0 512 512;" xml:space="preserve">
<polygon style="fill:#FCD223;" points="418.299,211 376,451 348.701,467 160.3,467 136,451 93.701,211 103.299,181.3 408.701,181.3   "/>
<polygon style="fill:#FDBF00;" points="418.299,211 376,451 348.701,467 256,467 256,181.3 408.701,181.3 "/>
<path style="fill:#6B77E8;" d="M421,166v30c0,0.899,0,1.8-0.3,2.699L418.299,211c-8.699,0-20.099,0-30.298,0.599  c-12.001,0.601-22.202,1.501-24.3,3.602c-2.1,2.098-2.701,7.2-2.701,10.8c0,41.4-33.6,75-75,75c-8.401,0-15-6.601-15-15v-90  c-4.799,0.899-9.901,5-15,5s-10.201-3.101-15-4v89c0,8.399-6.599,15-15,15c-41.4,0-75-33.6-75-75c0-3.6-0.601-8.701-2.701-10.8  c-3.3-3.301-13.499-3.9-24.3-4.2H93.701L91.3,198.699C91,197.8,91,196.899,91,196v-30c0-63.9,36.599-120.401,90-147.7L211,135  c0,24.899,20.099,46,45,46s45-21.101,45-46l30-116.7C384.401,45.599,421,102.1,421,166z"/>
<path style="fill:#3A4DE2;" d="M421,166v30c0,0.899,0,1.8-0.3,2.699L418.299,211c-8.699,0-20.099,0-30.298,0.599  c-12.001,0.601-22.202,1.501-24.3,3.602c-2.1,2.098-2.701,7.2-2.701,10.8c0,41.4-33.6,75-75,75c-8.401,0-15-6.601-15-15v-90  c-4.799,0.899-9.901,5-15,5v-20c24.901,0,45-21.101,45-46l30-116.7C384.401,45.599,421,102.1,421,166z"/>
<path style="fill:#FD6243;" d="M296.499,380.499c6,5.7,6,15.3,0,21c-5.7,6-15.298,6-20.999,0l-19.5-19.2l-19.501,19.2  c-5.7,6-15.298,6-20.999,0c-6-5.7-6-15.3,0-21L234.699,361L215.5,341.499c-6-5.7-6-15.3,0-21c5.7-5.999,15.298-5.999,20.999,0  l19.501,19.2l19.501-19.2c5.7-5.999,15.298-5.999,20.999,0c6,5.7,6,15.3,0,21L277.301,361L296.499,380.499z"/>
<path style="fill:#FF4F19;" d="M296.499,380.499c6,5.7,6,15.3,0,21c-5.7,6-15.298,6-20.999,0l-19.5-19.2V339.7l19.501-19.2  c5.7-5.999,15.298-5.999,20.999,0c6,5.7,6,15.3,0,21L277.301,361L296.499,380.499z"/>
<g>
	<path style="fill:#FDB455;" d="M331,18.3V90l-30,30h-90l-30-30V18.3C204.401,6.299,230.799,0,256,0S307.599,6.299,331,18.3z"/>
	<path style="fill:#FDB455;" d="M376,451v46c0,8.399-6.599,15-15,15H151c-8.401,0-15-6.601-15-15v-46H376z"/>
</g>
<g>
	<path style="fill:#FF9800;" d="M376,451v46c0,8.399-6.599,15-15,15H256v-61H376z"/>
	<path style="fill:#FF9800;" d="M331,18.3V90l-30,30h-45V0C281.201,0,307.599,6.299,331,18.3z"/>
</g>
<path style="fill:#FCD223;" d="M331,90v45c0,36.299-25.8,67.599-60,74.5c-4.799,0.899-9.901,1.5-15,1.5s-10.201-0.601-15-1.5  c-34.2-6.901-60-38.202-60-74.5V90H331z"/>
<path style="fill:#FDBF00;" d="M331,90v45c0,36.299-25.8,67.599-60,74.5c-4.799,0.899-9.901,1.5-15,1.5V90H331z"/>
<g>
</g>
<g>
</g>
<g>
</g>
<g>
</g>
<g>
</g>
<g>
</g>
<g>
</g>
<g>
</g>
<g>
</g>
<g>
</g>
<g>
</g>
<g>
</g>
<g>
</g>
<g>
</g>
<g>
</g>
</svg>
