<?xml version="1.0" encoding="iso-8859-1"?>
<!-- Generator: Adobe Illustrator 19.0.0, SVG Export Plug-In . SVG Version: 6.00 Build 0)  -->
<svg xmlns="http://www.w3.org/2000/svg" xmlns:xlink="http://www.w3.org/1999/xlink" version="1.1" id="Capa_1" x="0px" y="0px" viewBox="0 0 512.003 512.003" style="enable-background:new 0 0 512.003 512.003;" xml:space="preserve">
<path style="fill:#60DD4D;" d="M389.834,282.008c6.895-20.258,15.97-51.38,15.97-74.843v-15.015h-48.528  c6.772-17.665,14.829-43.013,14.829-63.61v-5.983L256.002,0L139.895,122.556v5.983c0,20.597,8.058,45.945,14.829,63.61h-48.527  v15.015c0,23.463,9.075,54.585,15.97,74.843H83.734v15.015c0,2.031,0.036,4.096,0.107,6.142  c1.57,44.718,20.175,86.508,52.389,117.675c32.293,31.243,74.828,48.449,119.771,48.449c94.989,0,172.267-77.278,172.267-172.266  v-15.015L389.834,282.008L389.834,282.008z"/>
<path style="fill:#00C47A;" d="M389.834,282.008c6.895-20.258,15.97-51.38,15.97-74.843v-15.015h-48.528  c6.772-17.665,14.829-43.013,14.829-63.61v-5.983L256.002,0l-0.003,0.004v469.285c0.001,0,0.002,0,0.003,0  c94.989,0,172.267-77.278,172.267-172.266v-15.015H389.834z"/>
<rect x="240.988" y="255.741" style="fill:#00935C;" width="30.031" height="256.262"/>
<g>
</g>
<g>
</g>
<g>
</g>
<g>
</g>
<g>
</g>
<g>
</g>
<g>
</g>
<g>
</g>
<g>
</g>
<g>
</g>
<g>
</g>
<g>
</g>
<g>
</g>
<g>
</g>
<g>
</g>
</svg>
