<?xml version="1.0" encoding="iso-8859-1"?>
<!-- Generator: Adobe Illustrator 19.0.0, SVG Export Plug-In . SVG Version: 6.00 Build 0)  -->
<svg xmlns="http://www.w3.org/2000/svg" xmlns:xlink="http://www.w3.org/1999/xlink" version="1.1" id="Capa_1" x="0px" y="0px" viewBox="0 0 512.001 512.001" style="enable-background:new 0 0 512.001 512.001;" xml:space="preserve">
<path style="fill:#896746;" d="M325.118,253.573l-122.07,122.386l-22.339-9.439l-35.237-35.237l-9.439-22.339l122.385-122.072  c6.292-6.292,16.361-6.292,22.339,0l22.339,22.339l22.022,22.023C331.411,237.215,331.411,247.283,325.118,253.573z"/>
<path style="fill:#715539;" d="M325.118,253.573l-122.07,122.386l-22.339-9.439l-17.619-17.619l140.005-139.69l22.022,22.023  C331.411,237.215,331.411,247.283,325.118,253.573z"/>
<path style="fill:#8A8891;" d="M445.289,173.273l-8.772-8.787c-6.145-6.176-16.13-6.144-22.245-0.03l-66.748,66.764  c-6.145,6.144-6.145,16.1,0,22.245l133.482,133.482c8.872,8.872,24.085,4.268,26.546-8.034  C522.515,304.067,499.226,227.194,445.289,173.273z"/>
<path style="fill:#ADACB2;" d="M347.509,75.477l-8.772-8.757c-53.921-53.952-130.81-77.209-205.654-62.278  c-12.312,2.462-16.913,17.668-8.034,26.546l133.482,133.482c6.146,6.146,16.099,6.146,22.245,0l66.764-66.748  C353.669,91.577,353.669,81.623,347.509,75.477z"/>
<path style="fill:#896746;" d="M458.831,119.862l-22.337,22.337c-6.292,6.292-16.046,6.292-22.339,0l-44.36-44.36  c-6.292-6.292-6.292-16.046,0-22.339l22.337-22.337c17.619-17.621,48.767-17.621,66.699,0  C477.08,71.725,477.08,101.615,458.831,119.862z"/>
<path style="fill:#715539;" d="M458.831,119.862l-22.337,22.337c-6.292,6.292-16.046,6.292-22.339,0l-22.023-22.023l66.699-67.012  C477.08,71.725,477.08,101.615,458.831,119.862z"/>
<path style="fill:#E0E0E2;" d="M436.494,119.862L392.132,75.5c-17.931-17.933-49.08-17.933-66.699,0l-67.014,66.699  c-18.247,18.564-18.247,48.45,0,66.699l22.339,22.339l22.339,22.337c18.247,18.249,48.135,18.249,66.699,0l66.699-66.699  C455.056,168.314,455.056,138.424,436.494,119.862z"/>
<path style="fill:#C7C5CA;" d="M436.494,186.875l-66.699,66.699c-18.563,18.249-48.452,18.249-66.699,0l-22.339-22.337  L414.47,97.839l22.023,22.023C455.056,138.424,455.056,168.314,436.494,186.875z"/>
<path style="fill:#FDB455;" d="M203.049,375.961c-27.374,27.057-17.305,16.988-44.677,44.362l-22.337-9.125l-35.237-35.237  l-9.125-22.339c27.372-27.372,17.304-17.304,44.362-44.675L203.049,375.961z"/>
<path style="fill:#FF9800;" d="M203.049,375.961c-27.374,27.057-17.305,16.988-44.677,44.362l-22.337-9.125l-17.619-17.619  l51.283-50.968L203.049,375.961z"/>
<path style="fill:#896746;" d="M158.371,420.323c-16.046,16.043-28.315,28.315-44.36,44.36l-22.339-9.123l-35.237-35.237  l-9.123-22.339c16.046-16.046,28.315-28.317,44.36-44.362l33.35,33.352L158.371,420.323z"/>
<path style="fill:#715539;" d="M158.371,420.323c-16.046,16.043-28.315,28.315-44.36,44.36l-22.339-9.123l-17.619-17.619  l50.968-50.968L158.371,420.323z"/>
<path style="fill:#FDB455;" d="M114.011,464.683c-28.631,28.629-24.541,24.541-33.35,33.35  c-18.564,18.564-48.452,18.564-66.699,0.315c-18.564-18.564-18.564-48.45-0.315-67.014c11.641-11.326,11.011-10.698,33.664-33.35  L114.011,464.683z"/>
<path style="fill:#FF9800;" d="M114.011,464.683c-28.631,28.629-24.541,24.541-33.35,33.35  c-18.564,18.564-48.452,18.564-66.699,0.315l66.699-67.014L114.011,464.683z"/>
<g>
</g>
<g>
</g>
<g>
</g>
<g>
</g>
<g>
</g>
<g>
</g>
<g>
</g>
<g>
</g>
<g>
</g>
<g>
</g>
<g>
</g>
<g>
</g>
<g>
</g>
<g>
</g>
<g>
</g>
</svg>
