<?xml version="1.0" encoding="iso-8859-1"?>
<!-- Generator: Adobe Illustrator 19.0.0, SVG Export Plug-In . SVG Version: 6.00 Build 0)  -->
<svg xmlns="http://www.w3.org/2000/svg" xmlns:xlink="http://www.w3.org/1999/xlink" version="1.1" id="Capa_1" x="0px" y="0px" viewBox="0 0 512 512" style="enable-background:new 0 0 512 512;" xml:space="preserve">
<path style="fill:#12ADDD;" d="M145.993,188.305c0,60.581,49.247,109.693,109.995,109.693s109.995-49.111,109.995-109.693  c0-26.262-9.259-50.364-24.693-69.249h0.008L256.379,10.011l-85.293,108.474h0.064C155.435,137.453,145.993,161.779,145.993,188.305  z"/>
<path style="fill:#FFBC97;" d="M478.093,311.966L478.093,311.966c-6.978,0-13.617,3.001-18.228,8.239l-1.829,2.078l-0.007-0.03  c14.276-15.576,3.227-40.691-17.901-40.691l0,0c-6.978,0-13.617,3.001-18.228,8.239l-57.381,65.188  c-14.754,16.761-33.133,29.531-53.451,37.544H173.251c4.547-5.822,11.626-9.57,19.586-9.57h66.151  c14.358,0,25.999-11.64,25.999-25.999l0,0c0-14.358-11.64-25.999-25.999-25.999H120.439c-31.466,0-61.447,13.381-82.458,36.804  L10,398.962v103.026h265.659c53.182,0,103.924-22.323,139.859-61.529l80.477-87.802  C510.271,337.082,499.222,311.966,478.093,311.966z"/>
<path d="M509.027,322.445c-5.558-12.631-17.581-20.478-31.382-20.478c-1.29,0-2.571,0.077-3.84,0.22  c-0.388-3.422-1.288-6.837-2.744-10.148c-5.558-12.632-17.581-20.478-31.382-20.478c-9.848,0-19.227,4.239-25.733,11.631  l-57.381,65.188c-13.479,15.313-30.636,27.364-49.614,34.849c-5.138,2.026-7.66,7.834-5.634,12.971  c1.552,3.934,5.318,6.334,9.306,6.334c1.221,0,2.462-0.226,3.666-0.7c21.914-8.644,41.724-22.558,57.287-40.239l57.381-65.188  c2.712-3.08,6.62-4.847,10.723-4.847c5.837,0,10.726,3.189,13.074,8.532c2.351,5.343,1.399,11.101-2.545,15.403  c-0.18,0.197-55.679,63.291-55.679,63.291c-24.539,27.877-59.912,43.865-97.05,43.865H192.39c-8.186,0-14.845-6.66-14.845-14.845  c0-8.186,6.66-14.844,14.845-14.844h66.151c19.85,0,35.998-16.148,35.998-35.998c0-19.85-16.148-35.998-35.998-35.998H119.638  c-34.032,0-66.586,14.527-89.314,39.859L2.557,391.773c-3.688,4.11-3.346,10.433,0.766,14.12c4.108,3.687,10.433,3.346,14.12-0.766  l27.768-30.948c18.939-21.109,46.068-33.216,74.429-33.216h138.902c8.822,0,15.999,7.178,15.999,15.999  c0,8.822-7.178,15.999-15.999,15.999h-66.151c-19.213,0-34.844,15.631-34.844,34.844c0,19.213,15.631,34.843,34.844,34.843h105.092  c42.883,0,83.727-18.461,112.061-50.65l57.382-65.189c2.71-3.079,6.618-4.846,10.722-4.846c5.837,0,10.725,3.189,13.074,8.532  c2.351,5.343,1.399,11.101-2.545,15.403l-80.476,87.803c-33.95,37.041-82.24,58.285-132.488,58.285H10c-5.522,0-10,4.478-10,10  c0,5.522,4.478,10,10,10h265.212c55.839,0,109.503-23.608,147.231-64.771l80.476-87.803  C512.243,349.241,514.584,335.075,509.027,322.445z"/>
<path d="M255.988,307.997c66.165,0,119.994-53.693,119.994-119.692c0-27.357-9.491-54.087-26.731-75.308  c-0.021-0.027-0.043-0.056-0.064-0.084L264.268,3.868c-1.89-2.426-4.791-3.849-7.866-3.855c0,0-0.016,0-0.023,0  c-3.066,0-5.965,1.407-7.861,3.819l-85.294,108.473c-0.164,0.209-0.319,0.424-0.465,0.643  c-17.268,21.237-26.766,47.954-26.766,75.357C135.994,254.304,189.823,307.997,255.988,307.997z M178.85,124.866  c0.271-0.327,0.519-0.668,0.741-1.02l76.75-97.608l76.861,98.699c0.11,0.152,0.226,0.302,0.346,0.448  c14.467,17.701,22.435,40.047,22.435,62.92c0,54.971-44.857,99.693-99.995,99.693s-99.995-44.723-99.995-99.693  C155.993,165.187,164.11,142.657,178.85,124.866z"/>
<path d="M405.409,177.377c0,5.522,4.478,10,10,10h33.563c5.522,0,10-4.478,10-10s-4.478-10-10-10h-33.563  C409.886,167.378,405.409,171.856,405.409,177.377z"/>
<path d="M402.627,206.997c-3.903-3.907-10.234-3.911-14.142-0.008s-3.91,10.235-0.008,14.142l12.097,12.109  c1.953,1.955,4.514,2.933,7.075,2.933c2.558,0,5.115-0.975,7.067-2.925c3.907-3.903,3.91-10.235,0.008-14.142L402.627,206.997z"/>
<path d="M395.403,150.572c2.561,0,5.122-0.978,7.074-2.933l12.117-12.129c3.903-3.907,3.9-10.238-0.007-14.141  c-3.907-3.905-10.24-3.901-14.141,0.007l-12.117,12.129c-3.903,3.907-3.9,10.238,0.007,14.141  C390.289,149.597,392.846,150.572,395.403,150.572z"/>
<path d="M63.004,187.217h33.563c5.522,0,10-4.478,10-10s-4.478-10-10-10H63.004c-5.522,0-10,4.478-10,10  S57.482,187.217,63.004,187.217z"/>
<path d="M109.35,147.598c1.953,1.955,4.514,2.933,7.075,2.933c2.557,0,5.115-0.976,7.067-2.925  c3.907-3.903,3.911-10.235,0.008-14.142l-10.472-10.483c-3.902-3.906-10.234-3.91-14.142-0.008  c-3.907,3.903-3.911,10.235-0.008,14.142L109.35,147.598z"/>
<path d="M109.499,206.956l-12.604,12.617c-3.903,3.907-3.9,10.238,0.007,14.141c1.952,1.951,4.51,2.926,7.067,2.926  c2.561,0,5.122-0.978,7.074-2.933l12.604-12.617c3.903-3.907,3.9-10.238-0.007-14.141  C119.733,203.045,113.401,203.048,109.499,206.956z"/>
<path d="M325.928,198.835c0.02,0,0.038,0,0.057,0c5.497,0,9.969-4.44,9.999-9.944l0.002-0.587c0-5.522-4.478-10-10-10  c-5.522,0-10,4.478-10,10l-0.002,0.476C315.953,194.304,320.405,198.805,325.928,198.835z"/>
<path d="M255.988,268.109c27.089,0,52.128-13.515,66.978-36.153c3.029-4.618,1.742-10.816-2.876-13.846  c-4.619-3.03-10.816-1.741-13.846,2.876c-11.142,16.984-29.93,27.125-50.257,27.125c-5.522,0-10,4.478-10,10  C245.988,263.632,250.466,268.109,255.988,268.109z"/>
<g>
</g>
<g>
</g>
<g>
</g>
<g>
</g>
<g>
</g>
<g>
</g>
<g>
</g>
<g>
</g>
<g>
</g>
<g>
</g>
<g>
</g>
<g>
</g>
<g>
</g>
<g>
</g>
<g>
</g>
</svg>
