<?xml version="1.0" encoding="iso-8859-1"?>
<!-- Generator: Adobe Illustrator 19.0.0, SVG Export Plug-In . SVG Version: 6.00 Build 0)  -->
<svg xmlns="http://www.w3.org/2000/svg" xmlns:xlink="http://www.w3.org/1999/xlink" version="1.1" id="Capa_1" x="0px" y="0px" viewBox="0 0 512.001 512.001" style="enable-background:new 0 0 512.001 512.001;" xml:space="preserve">
<path style="fill:#C1C1C1;" d="M294.295,133.564h-76.591V32.682c0-13.682,11.091-24.774,24.774-24.774h27.042  c13.682,0,24.774,11.091,24.774,24.774V133.564z"/>
<path style="fill:#E0E0E3;" d="M255.997,77.992L255.997,77.992c-10.955,0-19.835-8.881-19.835-19.835V37.96  c0-5.686,4.61-10.296,10.296-10.296h19.078c5.686,0,10.296,4.61,10.296,10.296v20.197C275.832,69.112,266.951,77.992,255.997,77.992  z"/>
<g>
	<polygon style="fill:#C1C1C1;" points="471.612,100.468 469.471,87.701 450.774,92.445 448.24,101.115 418.132,108.755    421.311,127.706 442,122.457 447.99,131.467 471.62,128.457 503.677,112.09 500.499,93.139  "/>
	<polygon style="fill:#C1C1C1;" points="40.388,100.468 42.529,87.701 61.226,92.445 63.76,101.115 93.868,108.755 90.689,127.706    70,122.457 64.01,131.467 40.38,128.457 8.323,112.09 11.501,93.139  "/>
</g>
<polygon style="fill:#E0E0E3;" points="437.193,97.779 401.241,156.592 341.363,160.893 324.489,162.105 324.447,162.105   325.174,178.115 325.184,178.442 333.859,370.28 338.254,467.363 188.702,467.363 194.805,316.441 196.165,282.766 180.555,267.167   186.457,181.709 187.806,162.126 150.168,159.417 110.77,156.592 74.807,97.779 "/>
<g>
	<polygon style="fill:#C1C1C1;" points="267.299,161.483 268.162,171.208 286.017,171.208 283.351,123.423 282.339,105.315    262.893,111.745 264.126,125.668  "/>
	<path style="fill:#C1C1C1;" d="M217,97.777c0,0,4.381,37.446,66.348,25.643l-1.43-25.643H217z"/>
</g>
<polygon style="fill:#AFAFAF;" points="331.182,311.119 300.226,298.776 300.226,279.256 330.222,289.902 "/>
<g>
	<polygon style="fill:#C1C1C1;" points="341.363,160.893 324.489,162.105 321.748,97.779 338.992,97.779  "/>
	<path style="fill:#C1C1C1;" d="M163.161,160.352l24.646,1.774l-0.923,13.41c35.03,13.829,76.588,4.709,99.239-2.386l-0.937-16.706   c-129.41,41.296-129.41-58.665-129.41-58.665h-17.69C138.866,111.577,143.006,140.477,163.161,160.352z"/>
	<path style="fill:#C1C1C1;" d="M236.132,166.268l-7.81,163.148l-33.517-12.975l1.36-33.675l14.745,15.293l8.843-132.034   C224.802,166.479,230.251,166.574,236.132,166.268z"/>
</g>
<polygon style="fill:#F4F4F4;" points="281.918,97.779 321.748,97.779 324.194,156.592 330.222,289.902 291.878,276.305 "/>
<polygon style="fill:#C1C1C1;" points="338.254,467.363 188.702,467.363 189.472,448.391 193.877,339.25 194.805,316.441   333.859,370.28 334.881,392.919 337.39,448.391 "/>
<g>
	<polygon style="fill:#AFAFAF;" points="338.254,467.363 188.702,467.363 189.472,448.391 337.39,448.391  "/>
	<polygon style="fill:#AFAFAF;" points="334.881,392.919 193.877,339.25 194.805,316.441 333.859,370.28  "/>
</g>
<rect x="165.615" y="467.363" style="fill:#524C45;" width="194.568" height="36.73"/>
<path d="M511.475,110.784l-3.183-18.951c-0.366-2.179-1.626-4.105-3.477-5.312c-1.85-1.206-4.12-1.583-6.262-1.041l-20.567,5.216  l-0.725-4.306c-0.367-2.178-1.628-4.103-3.478-5.309c-1.851-1.206-4.12-1.582-6.262-1.039l-18.687,4.743  c-2.71,0.687-4.855,2.755-5.641,5.439l-0.543,1.852c-1.45-1.387-3.392-2.202-5.458-2.202H321.754h-19.557V32.684  C302.197,14.662,287.539,0,269.523,0h-27.046c-18.016,0-32.674,14.662-32.674,32.684v57.188H74.807  c-2.066,0-4.007,0.815-5.458,2.202l-0.543-1.852c-0.786-2.682-2.931-4.75-5.641-5.439l-18.687-4.743  c-2.14-0.542-4.411-0.167-6.262,1.039c-1.85,1.207-3.111,3.131-3.478,5.309l-0.725,4.306l-20.566-5.215  c-2.141-0.544-4.412-0.165-6.262,1.041c-1.85,1.207-3.111,3.134-3.477,5.312l-3.183,18.951c-0.571,3.402,1.129,6.781,4.201,8.35  l32.063,16.369c0.813,0.415,1.692,0.686,2.597,0.801l23.631,3.004c0.334,0.043,0.667,0.063,0.998,0.063  c2.624,0,5.107-1.308,6.583-3.531l2.887-4.346l14.998,3.805l15.541,25.417c1.331,2.178,3.632,3.578,6.177,3.761l69.175,4.967  l-6.715,97.181c-0.158,2.282,0.681,4.521,2.299,6.136l13.162,13.153l-1.221,30.21v0.001l-0.635,15.699l-5.157,127.638H165.61  c-4.366,0-7.905,3.539-7.905,7.905v36.73c0,4.366,3.539,7.905,7.905,7.905h194.573c4.366,0,7.905-3.539,7.905-7.905v-36.73  c0-4.366-3.539-7.905-7.905-7.905H345.81l-12.734-281.512l-0.385-8.51l69.115-4.963c2.546-0.183,4.847-1.584,6.179-3.762  l15.537-25.417l14.992-3.803l2.887,4.346c1.477,2.223,3.958,3.532,6.583,3.531c0.331,0,0.664-0.021,0.998-0.063l23.631-3.004  c0.905-0.115,1.784-0.386,2.597-0.801l32.063-16.369C510.345,117.565,512.046,114.185,511.475,110.784z M296.093,459.46v-95.329  l7.969,3.085v92.244H296.093z M272.315,459.46V354.926l7.968,3.085V459.46H272.315z M249.943,459.46V346.266l6.562,2.54v110.655  h-6.562V459.46z M226.228,459.46V337.085l7.905,3.06V459.46L226.228,459.46L226.228,459.46z M196.935,459.46l5.32-131.656  l8.163,3.16V459.46L196.935,459.46L196.935,459.46z M313.567,292.379l8.998,3.194l1.428,31.555l-15.864-6.938v-29.736  L313.567,292.379z M297.058,332.601l27.737,12.132l0.624,13.799l-122.49-47.419l0.386-9.539l1.907,1.977  c1.517,1.573,3.583,2.417,5.692,2.417c0.909,0,1.826-0.156,2.71-0.48c2.937-1.073,4.966-3.776,5.176-6.896l1.967-29.349  l38.93,17.245c1.041,0.462,2.128,0.68,3.198,0.68c3.031,0,5.925-1.755,7.231-4.705c1.769-3.991-0.035-8.661-4.026-10.429  l-44.208-19.583l5.237-78.151c0.782,0.015,1.546,0.05,2.34,0.05c2.318,0,4.683-0.062,7.085-0.188  c12.557-0.67,26.415-3.115,41.302-7.273l6.128,109.853c0.177,3.181,2.247,5.946,5.251,7.01l3.086,1.094v40.512  C292.321,328.499,294.18,331.342,297.058,332.601z M267.927,58.156c0,6.578-5.352,11.93-11.93,11.93  c-6.579,0-11.93-5.352-11.93-11.93V37.96c0-1.319,1.073-2.392,2.392-2.392h19.078c1.319,0,2.392,1.073,2.392,2.392v20.197H267.927z   M250.846,85.41c1.671,0.315,3.391,0.487,5.151,0.487c1.762,0,3.485-0.173,5.157-0.488v4.464h-10.308V85.41z M242.9,105.682  c0.014,0,0.027,0.002,0.041,0.002s0.027-0.002,0.041-0.002h26.037c0.014,0,0.027,0.002,0.041,0.002s0.027-0.002,0.041-0.002h5.341  l0.619,11.085c-17.782,2.457-31.733,0.481-40.586-5.829c-2.343-1.67-4.111-3.491-5.464-5.257h13.89V105.682z M224.808,123.46  c9.233,6.775,21.365,10.172,36.232,10.172c4.694,0,9.668-0.345,14.904-1.022l1.009,18.087c-15.056,4.434-28.909,7.02-41.23,7.677  c-5.38,0.278-10.514,0.204-15.262-0.221c-43.455-3.902-53.654-36.961-56.046-52.47h46.604  C212.978,110.757,216.923,117.675,224.808,123.46z M211.376,172.907l-7.16,106.827l-2.364-2.452  c-0.018-0.019-0.038-0.034-0.056-0.053c-0.016-0.017-0.03-0.035-0.046-0.052l-13.066-13.057l6.599-95.499  C200.121,170.456,205.472,171.916,211.376,172.907z M319.871,373.337l6.327,2.449l3.786,83.674h-10.113V373.337z M316.299,156.919  c0,0.009,0.001,0.019,0.001,0.028l5.499,121.575l-3.022-1.072l-15.908-5.645c-0.025-0.008-0.051-0.014-0.076-0.022l-3.317-1.176  l-9.2-164.926h3.976c0.014,0,0.027,0.002,0.041,0.002s0.027-0.002,0.041-0.002h19.837L316.299,156.919z M225.613,32.684  c0-9.305,7.566-16.874,16.864-16.874h27.046c9.298,0,16.864,7.57,16.864,16.874v57.188h-4.47h-4.953V76.288  c4.214-4.866,6.773-11.204,6.773-18.132V37.96c0-10.036-8.165-18.201-18.201-18.201h-19.078c-10.036,0-18.201,8.165-18.201,18.201  v20.197c0,6.931,2.561,13.272,6.779,18.139v13.577h-9.423V32.684H225.613z M71.945,114.792c-3.253-0.825-6.672,0.493-8.528,3.288  l-3.272,4.924l-17.395-2.211l-25.673-13.106l0.802-4.772l20.562,5.215c2.138,0.543,4.41,0.167,6.261-1.04  c1.85-1.207,3.111-3.131,3.478-5.309l0.725-4.305l6,1.523l1.271,4.335c0.786,2.682,2.931,4.75,5.641,5.439l12.37,3.141l2.495,4.08  L71.945,114.792z M88.907,105.682h59.587c0.883,6.747,3.019,16.996,8.178,27.54c3.136,6.408,7.639,13.388,14.056,19.749  l-4.915-0.353l-32.611-30.727c-3.179-2.995-8.181-2.845-11.174,0.332c-2.994,3.178-2.846,8.18,0.332,11.174l18.497,17.429  l-25.465-1.829L88.907,105.682z M352.279,496.19H173.516v-20.92h15.188h149.551h14.024L352.279,496.19L352.279,496.19z   M396.618,148.997l-30.867,2.217l13.524-18.984c2.533-3.556,1.704-8.492-1.852-11.025c-3.555-2.534-8.492-1.704-11.025,1.852  l-21.105,29.626l-13.306,0.955l-1.993-47.957h93.102L396.618,148.997z M469.251,120.793l-17.395,2.211l-3.272-4.924  c-1.856-2.795-5.277-4.113-8.528-3.288l-4.732,1.201l2.494-4.079l12.368-3.14c2.71-0.688,4.854-2.756,5.641-5.439L457.097,99  l6-1.523l0.725,4.305c0.367,2.178,1.628,4.102,3.478,5.309c1.85,1.207,4.12,1.582,6.261,1.04l20.562-5.215l0.802,4.772  L469.251,120.793z"/>
<path d="M265.848,239.381l-26.737-10.753c-4.046-1.627-8.654,0.334-10.284,4.385c-1.628,4.051,0.334,8.654,4.385,10.284  l26.737,10.753c0.967,0.389,1.965,0.572,2.947,0.572c3.131,0,6.096-1.874,7.337-4.958  C271.861,245.614,269.898,241.01,265.848,239.381z"/>
<g>
</g>
<g>
</g>
<g>
</g>
<g>
</g>
<g>
</g>
<g>
</g>
<g>
</g>
<g>
</g>
<g>
</g>
<g>
</g>
<g>
</g>
<g>
</g>
<g>
</g>
<g>
</g>
<g>
</g>
</svg>
