<?xml version="1.0" encoding="iso-8859-1"?>
<!-- Generator: Adobe Illustrator 19.0.0, SVG Export Plug-In . SVG Version: 6.00 Build 0)  -->
<svg xmlns="http://www.w3.org/2000/svg" xmlns:xlink="http://www.w3.org/1999/xlink" version="1.1" id="Capa_1" x="0px" y="0px" viewBox="0 0 512 512" style="enable-background:new 0 0 512 512;" xml:space="preserve">
<g>
	<rect x="241" y="64" style="fill:#FFE981;" width="30" height="74.67"/>
	<rect x="241" style="fill:#FFE981;" width="30" height="30"/>
	<rect x="64" y="241" style="fill:#FFE981;" width="74.67" height="30"/>
	<rect y="241" style="fill:#FFE981;" width="30" height="30"/>
	<rect x="241" y="373.33" style="fill:#FFE981;" width="30" height="74.67"/>
	<rect x="241" y="482" style="fill:#FFE981;" width="30" height="30"/>
	<rect x="373.33" y="241" style="fill:#FFE981;" width="74.67" height="30"/>
	<rect x="482" y="241" style="fill:#FFE981;" width="30" height="30"/>
	
		<rect x="109.299" y="131.63" transform="matrix(-0.7071 -0.7071 0.7071 -0.7071 146.6363 353.9981)" style="fill:#FFE981;" width="74.669" height="30"/>
	
		<rect x="70.591" y="70.59" transform="matrix(-0.7071 0.7071 -0.7071 -0.7071 206.6332 85.5897)" style="fill:#FFE981;" width="30" height="30"/>
	
		<rect x="131.633" y="328.024" transform="matrix(-0.7071 -0.7071 0.7071 -0.7071 -8.0303 727.3911)" style="fill:#FFE981;" width="30" height="74.669"/>
	
		<rect x="70.584" y="411.415" transform="matrix(0.7071 0.7071 -0.7071 0.7071 326.5877 64.3771)" style="fill:#FFE981;" width="30" height="30"/>
	
		<rect x="328.032" y="350.363" transform="matrix(-0.7071 -0.7071 0.7071 -0.7071 365.3691 882.0663)" style="fill:#FFE981;" width="74.669" height="30"/>
	
		<rect x="411.421" y="411.41" transform="matrix(0.7071 -0.7071 0.7071 0.7071 -176.6216 426.4178)" style="fill:#FFE981;" width="30" height="30"/>
	
		<rect x="350.368" y="109.304" transform="matrix(-0.7071 -0.7071 0.7071 -0.7071 520.0321 508.6818)" style="fill:#FFE981;" width="30" height="74.669"/>
	
		<rect x="411.404" y="70.585" transform="matrix(-0.7071 -0.7071 0.7071 -0.7071 667.399 447.6161)" style="fill:#FFE981;" width="30" height="30"/>
</g>
<circle style="fill:#FFDB2D;" cx="256" cy="256" r="128"/>
<path style="fill:#FFC02D;" d="M256,399c-78.851,0-143-64.149-143-143s64.149-143,143-143s143,64.149,143,143S334.851,399,256,399z   M256,143c-62.309,0-113,50.691-113,113s50.691,113,113,113s113-50.691,113-113S318.309,143,256,143z"/>
<path style="fill:#FFAF2D;" d="M256.002,113v30C318.31,143.001,369,193.692,369,256s-50.69,112.999-112.998,113v30  C334.852,398.999,399,334.85,399,256S334.852,113.001,256.002,113z"/>
<g>
</g>
<g>
</g>
<g>
</g>
<g>
</g>
<g>
</g>
<g>
</g>
<g>
</g>
<g>
</g>
<g>
</g>
<g>
</g>
<g>
</g>
<g>
</g>
<g>
</g>
<g>
</g>
<g>
</g>
</svg>
