<?xml version="1.0" encoding="iso-8859-1"?>
<!-- Generator: Adobe Illustrator 19.0.0, SVG Export Plug-In . SVG Version: 6.00 Build 0)  -->
<svg xmlns="http://www.w3.org/2000/svg" xmlns:xlink="http://www.w3.org/1999/xlink" version="1.1" id="Capa_1" x="0px" y="0px" viewBox="0 0 512.001 512.001" style="enable-background:new 0 0 512.001 512.001;" xml:space="preserve">
<path style="fill:#BAB6A0;" d="M151.035,205.246c4.211,17.241,2.435,94.856,1.055,138.209c-0.564,17.575-1.055,29.518-1.055,29.518  H62.302c-1.944-4.023-2.936-11.87-3.271-22.079c-0.115-3.396-0.157-7.053-0.125-10.93c0.293-48.525,10.491-129.902,10.491-138.982  c0-10.031,4.148-13.939,8.965-22.35c0.94-1.641,1.912-3.448,2.873-5.507c3.124-6.677,4.921-15.778,5.935-22.873h65.264  c0.24,1.463,0.627,3.051,1.243,4.733C157.482,165.634,145.121,181.015,151.035,205.246z"/>
<path style="fill:#A8A288;" d="M151.039,205.249c-5.916-24.234,6.445-39.617,2.635-50.259c-0.607-1.689-1.002-3.274-1.238-4.733  H87.172c-1.009,7.092-2.816,16.196-5.94,22.87c-0.962,2.058-1.933,3.865-2.871,5.507l48.878,3.124v18.199  c0,0-6.311,58.637-5.262,61.658c1.057,3.029-5.254,46.457-5.254,46.457l-2.785,28.308c-23.826-1.889-43.521,1.069-55.032,3.587  c-0.031,3.877,0.01,7.534,0.125,10.93c0.074,2.275,0.184,4.425,0.327,6.45c0.498,7.06,1.433,12.501,2.94,15.633h88.74  c0,0,0.487-11.818,1.042-29.231c0.003-0.098,0.006-0.194,0.009-0.293l0,0C153.468,300.107,155.249,222.492,151.039,205.249z"/>
<path style="fill:#BAB6A0;" d="M298.428,230.721v142.263h-88.545c0,0,2.633-13.302,4.169-29.978  c1.724-18.651,2.069-41.524-4.169-54.732c-11.828-25.004,8.276-138.021,8.276-138.021h66.926c0,0-0.69,5.339-1.087,11.786  c-0.251,4.106-0.366,8.662-0.125,12.591c0.178,2.842,0.543,5.35,1.212,7.126C288.147,189.855,298.428,230.721,298.428,230.721z"/>
<g>
	<path style="fill:#A8A288;" d="M298.43,230.721v142.258H256l5.773-108.644c0.045-0.702,0.112-1.404,0.212-2.095l12.661-85.161   c0.936-6.286,4.436-11.636,9.351-15.035c-0.246,4.101-0.368,8.66-0.122,12.583c0.179,2.842,0.546,5.35,1.215,7.134   C288.143,189.851,298.43,230.721,298.43,230.721z"/>
	<path style="fill:#A8A288;" d="M287.07,334.521l-43.481,5.052l-2.78-17.084l3.152-34.707l-15.775-18.967l-2.107-62.983l7.36-24.077   l7.368-3.463l43.064-3.66c-0.631-10.114,1.223-24.376,1.223-24.376h-66.936c0,0-20.108,113.014-8.283,138.022   c11.833,24.999,0,84.701,0,84.701h0.008c0,0.001-0.001,0.006-0.001,0.006h88.545v-38.463H287.07V334.521z"/>
</g>
<path style="fill:#C6C2B0;" d="M316.553,100.422v40.658l-16.016,17.275l-42.853,2.407l-89.14,4.994l-114.929-7.402v-42.909  c0,0,132.673-13.43,142.615-13.43c9.941,0,32.845,4.313,57.699-1.593c15.269-3.633,35.42-2.809,48.693-1.616  C310.936,99.541,316.553,100.422,316.553,100.422z"/>
<g>
	<path style="fill:#BAB6A0;" d="M316.553,100.422v40.658l-16.016,17.275l-42.853,2.407c-0.201-2.128-0.089-4.28,0.323-6.375   l7.423-37.637c2.062-10.443,11.223-17.977,21.878-17.977h0.045l15.269,0.033C310.936,99.541,316.553,100.422,316.553,100.422z"/>
	<polygon style="fill:#BAB6A0;" points="316.552,138.663 316.552,141.082 300.537,158.357 168.543,165.758 53.613,158.357    53.613,138.719 157.743,145.997  "/>
	<polygon style="fill:#BAB6A0;" points="354.554,180.623 354.554,210.894 348.959,385.641 277.652,385.641 284.038,265.517    296.699,180.356 313.818,180.434  "/>
</g>
<polygon style="fill:#A8A288;" points="354.554,180.623 354.554,210.894 348.959,385.641 323.693,385.641 325.955,348.527   309.594,309.842 312.58,272.805 309.594,265.661 313.818,180.434 "/>
<polygon style="fill:#BAB6A0;" points="464.902,274.649 460.116,349.599 457.598,389.054 390.233,389.054 402.093,333.539   408.477,303.644 402.49,265.318 402.49,196.584 457.598,200.492 464.473,270.218 "/>
<path style="fill:#A8A288;" d="M427.566,308.983l8.359-8.794v-24.665l28.543-5.305l-6.866-69.725l-55.113-3.912v68.732l5.985,38.329  l-18.245,85.406h0.004l-0.001,0.004h67.365l2.518-39.455c-12.22-6.147-24.824-10.025-35.753-12.473L427.566,308.983z"/>
<path style="fill:#C6C2B0;" d="M473.696,168.509l-19.215,38.083l-170.89-8.348l-1.672-17.81l-2.04-21.733l7.423-37.637  l169.743,0.368c8.114,0.011,14.789,6.397,15.157,14.512L473.696,168.509z"/>
<polygon style="fill:#BAB6A0;" points="473.696,168.509 454.482,206.592 283.592,198.244 279.88,158.7 390.23,180.434   431.467,172.253 450.782,175.753 "/>
<path style="fill:#008B48;" d="M504.169,414.216H7.842c0,0,11.086-63.969,113.904-53.551  C266.319,375.304,453.355,307.302,504.169,414.216z"/>
<path style="fill:#008040;" d="M475.957,414.216H32.042c13.709-16.384,41.232-33.468,95.692-27.7  C252.798,399.775,411.11,345.284,475.957,414.216z"/>
<path d="M332.073,178.128h12.082c4.329,0,7.837-3.509,7.837-7.837s-3.508-7.837-7.837-7.837h-12.082  c-4.329,0-7.837,3.509-7.837,7.837S327.745,178.128,332.073,178.128z"/>
<path d="M390.23,158.178h31.8c4.329,0,7.837-3.509,7.837-7.837c0-4.328-3.508-7.837-7.837-7.837h-31.8  c-4.329,0-7.837,3.509-7.837,7.837C382.393,154.669,385.901,158.178,390.23,158.178z"/>
<path d="M435.925,226.931c-4.329,0-7.837,3.509-7.837,7.837v7.179c0,4.328,3.508,7.837,7.837,7.837c4.329,0,7.837-3.509,7.837-7.837  v-7.179C443.762,230.44,440.254,226.931,435.925,226.931z"/>
<path d="M313.211,264.995c-4.314-0.349-8.093,2.867-8.441,7.182l-2.986,37.035c-0.348,4.314,2.867,8.094,7.182,8.442  c0.214,0.018,0.426,0.026,0.637,0.026c4.043,0,7.472-3.108,7.803-7.207l2.986-37.035  C320.74,269.121,317.524,265.343,313.211,264.995z"/>
<path d="M230.716,274.74v14.714c0,4.328,3.509,7.837,7.837,7.837c4.328,0,7.837-3.509,7.837-7.837V274.74  c0-4.328-3.509-7.837-7.837-7.837C234.225,266.904,230.716,270.413,230.716,274.74z"/>
<path d="M235.522,231.236v-14.714c0-4.328-3.509-7.837-7.837-7.837c-4.328,0-7.837,3.509-7.837,7.837v14.714  c0,4.328,3.509,7.837,7.837,7.837C232.014,239.073,235.522,235.564,235.522,231.236z"/>
<path d="M103.125,316.237l5.632-54.483c0.445-4.305-2.684-8.155-6.989-8.601c-4.297-0.439-8.155,2.684-8.601,6.989l-5.632,54.483  c-0.445,4.305,2.684,8.155,6.989,8.601c0.274,0.028,0.545,0.042,0.815,0.042C99.305,323.269,102.71,320.268,103.125,316.237z"/>
<path d="M511.242,410.85c-10.227-21.521-25.383-36.417-44.21-46.538l5.692-89.167c0.027-0.422,0.021-0.846-0.022-1.266l-7.085-71.95  l15.073-29.89c0.607-1.203,0.892-2.541,0.832-3.887l-1.49-32.568c-0.563-12.305-10.654-21.965-22.971-21.991l-132.67-0.285V100.42  c0-3.86-2.811-7.145-6.625-7.743c-1.605-0.251-39.604-6.084-65.656,0.119c-17.67,4.207-34.718,2.852-45.996,1.954  c-3.856-0.306-7.185-0.572-9.886-0.572c-10.045,0-129.786,12.089-143.406,13.468c-4.002,0.405-7.048,3.774-7.048,7.797v42.911  c0,4.133,3.209,7.555,7.333,7.82l21.95,1.415c-0.301,0.782-0.607,1.531-0.925,2.209c-1.811,3.865-3.611,6.734-5.352,9.51  c-3.714,5.92-7.221,11.512-7.221,21.67c0,2.413-1.06,12.976-2.285,25.207c-6.238,62.219-9.743,108.1-7.598,133.21  c-13.922,5.049-23.863,11.897-30.811,18.428c-17.33,16.295-20.617,34.295-20.748,35.052c-0.395,2.279,0.236,4.615,1.725,6.384  c1.489,1.769,3.683,2.791,5.996,2.791h496.327c2.687,0,5.189-1.378,6.625-3.651C512.225,416.128,512.396,413.277,511.242,410.85z   M407.196,347.136l8.94-41.851c0.199-0.936,0.227-1.901,0.078-2.846l-5.889-37.727v-52.427l40.757,1.991l5.958,60.505l-5.274,82.635  C438.234,352.313,423.262,349.056,407.196,347.136z M216.963,284.924c-6.769-14.309-0.865-71.493,5.77-114.354l50.132-2.812  l2.93,31.222c0.365,3.882,3.525,6.905,7.42,7.096l1.728,0.085l-8.655,58.207c-0.037,0.245-0.062,0.49-0.074,0.737l-4.489,84.494  c-0.678,0.052-1.356,0.105-2.035,0.158c-16.159,1.252-32.496,2.511-48.787,3.485C223.444,332.614,225.197,302.328,216.963,284.924z   M291.844,266.306l8.829-59.377l46.048,2.25v1.595l-4.31,134.394c-17.801,0.587-36.219,1.823-54.928,3.227L291.844,266.306z   M362.391,211.149c0.003-0.084,0.004-0.167,0.004-0.251v-0.954l32.258,1.576v53.801c0,0.404,0.031,0.809,0.094,1.209l5.759,36.897  l-9.027,42.256c-10.751-0.721-21.91-0.956-33.375-0.852L362.391,211.149z M464.375,136.299l1.396,30.515l-15.988,31.706  l-159.019-7.768l-2.97-31.65l5.953-30.19l163.28,0.351C460.967,129.273,464.194,132.363,464.375,136.299z M61.449,122.529  c53.046-5.348,128.08-12.677,134.779-12.677c2.078,0,5.12,0.241,8.642,0.522c12.261,0.976,30.791,2.45,50.87-2.331  c17.075-4.065,41.395-2.068,52.976-0.74v5.968l-21.392-0.046c-0.006,0-0.013,0-0.018,0c-3.743,0-6.964,2.647-7.688,6.321  l-0.576,2.918h-17.483c-4.329,0-7.837,3.509-7.837,7.837c0,4.328,3.508,7.837,7.837,7.837h14.392l-2.742,13.903l-104.638,5.869  l-107.124-6.904v-28.479H61.449z M67.79,310.607c1.651-28.691,4.918-61.287,7.08-82.857c1.596-15.921,2.364-23.71,2.364-26.77  c0-5.65,1.612-8.22,4.825-13.342c1.805-2.876,4.049-6.456,6.266-11.188c1.075-2.294,2.054-4.907,2.939-7.816l52.949,3.413  c-2.093,8.913-4.309,20.63-0.787,35.062c1.053,4.311,2.325,16.35,2.402,49.214c0.01,4.323,3.517,7.819,7.837,7.818h0.019  c4.328-0.01,7.828-3.527,7.818-7.856c-0.066-28.013-0.999-45.315-2.849-52.895c-2.956-12.107-0.649-21.693,1.388-30.149  c0.014-0.057,0.026-0.114,0.041-0.171l7.954,0.513c0.168,0.01,0.335,0.017,0.504,0.017c0.146,0,0.293-0.004,0.439-0.013  l37.815-2.121c-1.59,10.538-3.442,23.77-4.999,37.542c-7.347,64.977-1.065,78.257,1,82.619c6.502,13.746,4.769,42.175,2.154,62.468  c-15.361,0.711-30.61,1.066-45.562,0.818l1.835-65.465c0.121-4.326-3.287-7.932-7.614-8.053c-4.331-0.12-7.932,3.287-8.053,7.614  l-1.833,65.393c-7.154-0.345-14.233-0.834-21.191-1.538c-22.386-2.266-40.634-1.051-55.475,2.145  C66.557,346.174,66.54,332.322,67.79,310.607z M18.806,406.377c7.511-15.705,31.201-45.1,102.147-37.919  c47.768,4.837,99.711,0.815,149.946-3.075c51.788-4.009,100.704-7.799,141.089-1.779c37.952,5.656,63.349,19.362,78.803,42.774  H18.806z"/>
<g>
</g>
<g>
</g>
<g>
</g>
<g>
</g>
<g>
</g>
<g>
</g>
<g>
</g>
<g>
</g>
<g>
</g>
<g>
</g>
<g>
</g>
<g>
</g>
<g>
</g>
<g>
</g>
<g>
</g>
</svg>
