<?xml version="1.0" encoding="iso-8859-1"?>
<!-- Generator: Adobe Illustrator 19.0.0, SVG Export Plug-In . SVG Version: 6.00 Build 0)  -->
<svg xmlns="http://www.w3.org/2000/svg" xmlns:xlink="http://www.w3.org/1999/xlink" version="1.1" id="Capa_1" x="0px" y="0px" viewBox="0 0 512 512" style="enable-background:new 0 0 512 512;" xml:space="preserve">
<path style="fill:#C2C2C2;" d="M512,21.228L490.771,0L98.115,392.658c-24.821-15.227-57.795-12.121-79.268,9.353  c-25.128,25.128-25.128,66.015,0,91.143C31.41,505.717,47.914,512,64.418,512s33.008-6.282,45.572-18.847  c21.474-21.474,24.581-54.447,9.353-79.268L512,21.228z M88.761,471.926c-6.502,6.502-15.148,10.082-24.344,10.082  s-17.841-3.581-24.344-10.083S29.99,456.777,29.99,447.581s3.581-17.841,10.083-24.344c6.503-6.502,15.148-10.083,24.344-10.083  s17.841,3.581,24.344,10.083c6.503,6.503,10.083,15.148,10.083,24.344C98.844,456.778,95.264,465.423,88.761,471.926z"/>
<path style="fill:#FF4F19;" d="M280.057,431.634l0.195-33.058l-45.561-22.018L208.91,397.25c0,0-21.571,10.735-28.183,24.416  c-4.021,8.32-4.561,17.707-1.521,26.433c3.039,8.725,9.296,15.745,17.615,19.766c6.369,3.077,13.515,4.077,20.388,3.014  c3.438,6.046,8.66,11.025,15.029,14.103c4.767,2.304,9.883,3.465,15.026,3.465c3.833,0,7.682-0.645,11.407-1.943  c8.725-3.04,15.744-9.296,19.765-17.615C285.049,455.205,280.057,431.634,280.057,431.634z"/>
<path style="fill:#FFB9A3;" d="M217.99,231.956c-34.338-16.594-73.08-18.823-109.091-6.278  c-36.013,12.546-64.985,38.364-81.579,72.7l-4.355,9.009l71.147,34.384l4.355-9.01c12.936-26.768,49.212-36.1,80.858-20.804  c15.57,7.525,27.636,19.776,33.974,34.498c6.124,14.225,6.111,29.065-0.036,41.784l-4.355,9.01l71.147,34.384l4.355-9.01  C318.666,351.744,288.87,266.211,217.99,231.956z"/>
<path style="fill:#FF9575;" d="M255.194,257.943l-62.376,62.376c9.055,7.054,16.124,16.011,20.482,26.136  c6.124,14.225,6.111,29.065-0.036,41.784l-4.355,9.01l71.147,34.384l4.355-9.01C311.858,365.83,298.176,299.636,255.194,257.943z"/>
<g>
	<path style="fill:#FF4F19;" d="M118.274,222.769l10.424,84.739c9.229-2.931,19.538-3.693,29.993-2.042l-10.772-87.569   C137.976,218.466,128.049,220.086,118.274,222.769z"/>
	<path style="fill:#FF4F19;" d="M273.951,280.316l-76.326,44.102c6.765,6.304,12.122,13.782,15.675,22.037   c0.416,0.967,0.799,1.936,1.158,2.908l73.627-42.543C284.325,297.546,279.594,288.656,273.951,280.316z"/>
	<path style="fill:#FF4F19;" d="M385.182,327.095l0.195-33.058l-45.561-22.018l-25.781,20.692c0,0-21.571,10.735-28.183,24.416   c-4.021,8.319-4.561,17.707-1.521,26.432c3.039,8.725,9.296,15.745,17.615,19.766c6.369,3.077,13.515,4.077,20.388,3.014   c3.439,6.047,8.66,11.025,15.029,14.103c4.767,2.304,9.883,3.465,15.026,3.465c3.833,0,7.682-0.645,11.407-1.943   c8.725-3.04,15.744-9.296,19.765-17.615C390.175,350.666,385.182,327.095,385.182,327.095z"/>
</g>
<path style="fill:#FFB9A3;" d="M323.116,127.417c-34.338-16.594-73.08-18.823-109.091-6.278  c-36.013,12.546-64.985,38.364-81.579,72.7l-4.354,9.009l71.147,34.384l4.355-9.01c12.936-26.768,49.212-36.1,80.858-20.804  c15.571,7.525,27.636,19.776,33.974,34.498c6.124,14.225,6.111,29.065-0.036,41.784l-4.355,9.01l71.147,34.384l4.355-9.01  C423.792,247.206,393.995,161.672,323.116,127.417z"/>
<path style="fill:#FF9575;" d="M360.32,153.405l-62.376,62.376c9.055,7.054,16.124,16.011,20.482,26.136  c6.124,14.225,6.111,29.065-0.036,41.784l-4.355,9.01l71.147,34.384l4.355-9.01C416.984,261.292,403.302,195.096,360.32,153.405z"/>
<g>
	<path style="fill:#FF4F19;" d="M223.4,118.23l10.424,84.74c9.229-2.931,19.538-3.693,29.993-2.042l-10.772-87.569   C243.101,113.927,233.175,115.547,223.4,118.23z"/>
	<path style="fill:#FF4F19;" d="M379.077,175.777l-76.326,44.102c6.765,6.304,12.122,13.782,15.675,22.037   c0.416,0.967,0.799,1.936,1.158,2.908l73.627-42.543C389.451,193.006,384.719,184.116,379.077,175.777z"/>
	<path style="fill:#FF4F19;" d="M489.132,224.281l0.195-33.058l-45.561-22.018l-25.782,20.692c0,0-21.571,10.735-28.183,24.416   c-4.02,8.32-4.561,17.707-1.521,26.433c3.039,8.725,9.296,15.745,17.616,19.766c6.369,3.077,13.515,4.077,20.388,3.014   c3.439,6.047,8.66,11.025,15.03,14.103c4.767,2.304,9.883,3.465,15.026,3.465c3.833,0,7.682-0.645,11.407-1.943   c8.725-3.04,15.744-9.296,19.765-17.615C494.124,247.852,489.132,224.281,489.132,224.281z"/>
</g>
<path style="fill:#FFB9A3;" d="M427.066,24.603C392.729,8.009,353.986,5.78,317.976,18.325  c-36.013,12.546-64.985,38.364-81.579,72.7l-4.355,9.01l71.147,34.384l4.355-9.01c12.936-26.768,49.212-36.1,80.858-20.804  c15.571,7.525,27.636,19.776,33.974,34.498c6.124,14.225,6.111,29.065-0.036,41.784l-4.355,9.011l71.147,34.384l4.355-9.011  C527.741,144.391,497.946,58.858,427.066,24.603z"/>
<path style="fill:#FF9575;" d="M464.27,50.591l-62.376,62.376c9.055,7.054,16.124,16.011,20.482,26.136  c6.124,14.225,6.111,29.065-0.036,41.784l-4.355,9.011l71.147,34.384l4.355-9.011C520.933,158.478,507.252,92.282,464.27,50.591z"/>
<g>
	<path style="fill:#FF4F19;" d="M327.349,15.416l10.424,84.74c9.229-2.931,19.538-3.693,29.993-2.042l-10.772-87.569   C347.052,11.113,337.124,12.733,327.349,15.416z"/>
	<path style="fill:#FF4F19;" d="M483.027,72.963l-76.326,44.102c6.765,6.304,12.122,13.782,15.675,22.038   c0.416,0.967,0.799,1.936,1.158,2.908l73.627-42.542C493.4,90.193,488.669,81.303,483.027,72.963z"/>
</g>
<g>
</g>
<g>
</g>
<g>
</g>
<g>
</g>
<g>
</g>
<g>
</g>
<g>
</g>
<g>
</g>
<g>
</g>
<g>
</g>
<g>
</g>
<g>
</g>
<g>
</g>
<g>
</g>
<g>
</g>
</svg>
