<?xml version="1.0" encoding="iso-8859-1"?>
<!-- Generator: Adobe Illustrator 19.0.0, SVG Export Plug-In . SVG Version: 6.00 Build 0)  -->
<svg xmlns="http://www.w3.org/2000/svg" xmlns:xlink="http://www.w3.org/1999/xlink" version="1.1" id="Capa_1" x="0px" y="0px" viewBox="0 0 512 512" style="enable-background:new 0 0 512 512;" xml:space="preserve">
<path style="fill:#FFDAA8;" d="M512,137v360c0,8.399-6.599,15-15,15H45c-24.901,0-45-20.4-45-45v-15l90-330h407  C505.401,122,512,128.599,512,137z"/>
<path style="fill:#FFC473;" d="M512,137v360c0,8.399-6.599,15-15,15H256V122h241C505.401,122,512,128.599,512,137z"/>
<path style="fill:#FF4F19;" d="M397.211,407l19.395-19.395c5.859-5.859,5.859-15.352,0-21.211s-15.352-5.859-21.211,0L376,385.789  l-19.395-19.395c-5.859-5.859-15.352-5.859-21.211,0s-5.859,15.352,0,21.211L354.789,407l-19.395,19.395  c-5.859,5.859-5.859,15.352,0,21.211c5.86,5.86,15.351,5.86,21.211,0L376,428.211l19.395,19.395c5.86,5.86,15.351,5.86,21.211,0  c5.859-5.859,5.859-15.352,0-21.211L397.211,407z"/>
<path style="fill:#FDB455;" d="M90,76v346H45c-24.901,0-45,20.099-45,45V122c0-33.001,27.001-61,60-61h15C83.401,61,90,67.599,90,76  z"/>
<path style="fill:#A6673A;" d="M421,287c0,24.899-20.099,45-45,45H211c-16.5,0-30,13.5-30,30s13.5,30,30,30h75  c8.401,0,15,6.599,15,15c0,8.399-6.599,15-15,15h-75c-32.999,0-60-27.001-60-60c0-33.001,27.001-60,60-60h165  c8.401,0,15-6.601,15-15c0-8.401-6.599-15-15-15H256c-8.401,0-15-6.601-15-15c0-8.401,6.599-15,15-15h120  C400.901,242,421,262.099,421,287z"/>
<g>
	<path style="fill:#99522E;" d="M301,407c0,8.399-6.599,15-15,15h-30v-30h30C294.401,392,301,398.599,301,407z"/>
	<path style="fill:#99522E;" d="M421,287c0,24.899-20.099,45-45,45H256v-30h120c8.401,0,15-6.601,15-15c0-8.401-6.599-15-15-15H256   v-30h120C400.901,242,421,262.099,421,287z"/>
</g>
<path style="fill:#6B77E8;" d="M256,0c-57.9,0-105,49.1-105,107c0,54,84.3,149.399,93.9,159.899C247.599,270.2,251.8,272,256,272  c4.2,0,8.401-1.8,11.1-5.101C276.7,256.399,361,161,361,107C361,49.1,313.9,0,256,0z M256,152c-24.901,0-45-20.101-45-45  c0-24.901,20.099-47,45-47s45,22.099,45,47C301,131.899,280.901,152,256,152z"/>
<path style="fill:#3A4DE2;" d="M361,107c0,54-84.3,149.399-93.9,159.899C264.401,270.2,260.2,272,256,272V152  c24.901,0,45-20.101,45-45c0-24.901-20.099-47-45-47V0C313.9,0,361,49.1,361,107z"/>
<g>
</g>
<g>
</g>
<g>
</g>
<g>
</g>
<g>
</g>
<g>
</g>
<g>
</g>
<g>
</g>
<g>
</g>
<g>
</g>
<g>
</g>
<g>
</g>
<g>
</g>
<g>
</g>
<g>
</g>
</svg>
