<?xml version="1.0" encoding="iso-8859-1"?>
<!-- Generator: Adobe Illustrator 19.0.0, SVG Export Plug-In . SVG Version: 6.00 Build 0)  -->
<svg xmlns="http://www.w3.org/2000/svg" xmlns:xlink="http://www.w3.org/1999/xlink" version="1.1" id="Capa_1" x="0px" y="0px" viewBox="0 0 512 512" style="enable-background:new 0 0 512 512;" xml:space="preserve">
<path style="fill:#FDB455;" d="M331,61H181c-8.401,0-15,6.599-15,15v60c0,8.399,6.599,15,15,15h150c8.401,0,15-6.601,15-15V76  C346,67.599,339.401,61,331,61z"/>
<path style="fill:#FF9800;" d="M346,76v60c0,8.399-6.599,15-15,15h-75V61h75C339.401,61,346,67.599,346,76z"/>
<path style="fill:#FCD223;" d="M391,211H121v-75c0-8.284,6.716-15,15-15h240c8.284,0,15,6.716,15,15V211z"/>
<path style="fill:#FDBF00;" d="M376,121H256v90h135v-75C391,127.714,384.284,121,376,121z"/>
<path style="fill:#FDB455;" d="M421,271H91v-75c0-8.284,6.716-15,15-15h300c8.284,0,15,6.716,15,15V271z"/>
<path style="fill:#FF9800;" d="M406,181H256v90h165v-75C421,187.714,414.284,181,406,181z"/>
<path style="fill:#FCD223;" d="M451,331H61v-75c0-8.284,6.716-15,15-15h360c8.284,0,15,6.716,15,15V331z"/>
<path style="fill:#FDBF00;" d="M436,241H256v90h195v-75C451,247.714,444.284,241,436,241z"/>
<path style="fill:#FDB455;" d="M481,391H31v-75c0-8.284,6.716-15,15-15h420c8.284,0,15,6.716,15,15V391z"/>
<path style="fill:#FF9800;" d="M466,301H256v90h225v-75C481,307.714,474.284,301,466,301z"/>
<path style="fill:#FCD223;" d="M497,451H15c-8.284,0-15-6.716-15-15v-60c0-8.284,6.716-15,15-15h482c8.284,0,15,6.716,15,15v60  C512,444.284,505.284,451,497,451z"/>
<path style="fill:#FDBF00;" d="M497,361H256v90h241c8.284,0,15-6.716,15-15v-60C512,367.714,505.284,361,497,361z"/>
<polygon style="fill:#FD6243;" points="361,451 151,451 211,121 301,121 "/>
<polygon style="fill:#FF4F19;" points="256,451 361,451 301,121 256,121 "/>
<g>
</g>
<g>
</g>
<g>
</g>
<g>
</g>
<g>
</g>
<g>
</g>
<g>
</g>
<g>
</g>
<g>
</g>
<g>
</g>
<g>
</g>
<g>
</g>
<g>
</g>
<g>
</g>
<g>
</g>
</svg>
