<?xml version="1.0" encoding="iso-8859-1"?>
<!-- Generator: Adobe Illustrator 19.0.0, SVG Export Plug-In . SVG Version: 6.00 Build 0)  -->
<svg xmlns="http://www.w3.org/2000/svg" xmlns:xlink="http://www.w3.org/1999/xlink" version="1.1" id="Capa_1" x="0px" y="0px" viewBox="0 0 512 512" style="enable-background:new 0 0 512 512;" xml:space="preserve">
<g>
	<path style="fill:#A3ED5C;" d="M252.211,352.441c-66.559,44.211-157.201,36.977-215.88-21.701   c-8.194-8.194-15.366-17.019-21.553-26.306C37.276,417.099,136.718,502,256,502c112.828,0,207.906-75.962,236.905-179.531   c-1.845-2.084-3.751-4.134-5.745-6.129c-49.753-49.753-128.07-53.535-182.165-11.346L252.211,352.441z"/>
	<path style="fill:#A3ED5C;" d="M259.922,159.559c66.559-44.211,157.201-36.977,215.879,21.701   c8.194,8.194,15.366,17.019,21.553,26.306C474.857,94.901,375.415,10,256.133,10C143.304,10,48.226,85.962,19.227,189.531   c1.845,2.084,3.751,4.134,5.745,6.129c49.753,49.753,128.07,53.535,182.165,11.346L259.922,159.559z"/>
</g>
<path d="M507.029,205.608c-11.423-57.205-42.583-109.33-87.74-146.772C373.53,20.895,315.541,0,256,0  c-56.993,0-110.932,18.328-155.987,53.002C56.386,86.577,24.229,134.106,9.465,186.835c-0.916,3.27-0.109,6.781,2.142,9.323  c2.128,2.405,4.145,4.556,6.163,6.573c28.677,28.677,66.609,43.298,104.698,43.295c31.911-0.002,63.936-10.269,90.689-31.134  c4.355-3.396,5.132-9.681,1.735-14.035c-3.397-4.355-9.681-5.132-14.035-1.736c-49.052,38.258-118.562,35.294-164.31-6.127  c10.028-14.255,21.719-27.434,34.824-39.176c48.579-43.525,113.66-64.449,178.552-57.414c5.496,0.606,10.425-3.373,11.021-8.863  c0.595-5.49-3.373-10.424-8.863-11.02c-70.527-7.655-141.257,15.094-194.056,62.402c-4.969,4.452-9.734,9.109-14.322,13.924  C82.636,72.956,164.84,20,256,20c96.834,0,182.613,59.419,218.359,146.325c-29.227-25.733-66.117-41.485-105.063-44.659  c-42.277-3.437-84.556,8.029-119.056,32.31c-4.516,3.179-5.601,9.416-2.422,13.933c3.178,4.518,9.416,5.602,13.933,2.423  c64.224-45.198,151.216-37.629,206.846,18.001c7.542,7.542,14.372,15.878,20.301,24.778c2.647,3.975,7.735,5.521,12.146,3.696  C505.457,214.98,507.962,210.291,507.029,205.608z"/>
<path d="M240.31,188.39c0.021-0.021,0.042-0.042,0.063-0.063c4.006-4.012,4.05-10.259,0.1-14.221  c-3.951-3.963-10.197-3.938-14.221,0.057c-4.024,3.994-4.096,10.24-0.164,14.221c1.968,1.991,4.514,2.986,7.075,2.986  C235.72,191.369,238.29,190.376,240.31,188.39z"/>
<path d="M494.231,309.269c-52.703-52.703-136.701-57.932-195.387-12.161c-4.355,3.396-5.132,9.681-1.735,14.035  c3.396,4.354,9.679,5.13,14.035,1.736c49.052-38.257,118.563-35.293,164.31,6.128c-10.028,14.255-21.719,27.433-34.824,39.176  c-48.578,43.526-113.656,64.45-178.552,57.414c-5.491-0.592-10.424,3.373-11.021,8.863c-0.595,5.49,3.373,10.424,8.863,11.02  c8.988,0.976,17.971,1.456,26.928,1.456c61.327,0,121.058-22.579,167.127-63.858c4.969-4.452,9.734-9.109,14.322-13.924  C429.365,439.044,347.16,492,256,492c-96.841,0-182.619-59.413-218.361-146.329c28.261,24.868,63.841,40.495,101.364,44.323  c40.743,4.161,82.064-5.665,116.344-27.659c4.648-2.982,5.999-9.169,3.016-13.817c-2.983-4.647-9.168-5.998-13.817-3.017  c-63.291,40.61-147.884,31.428-201.145-21.833c-7.542-7.542-14.372-15.878-20.301-24.778c-2.646-3.974-7.735-5.52-12.146-3.696  c-4.412,1.826-6.917,6.516-5.983,11.198c11.423,57.205,42.583,109.33,87.74,146.772C138.47,491.105,196.459,512,256,512  c56.993,0,110.932-18.328,155.987-53.002c43.627-33.575,75.784-81.104,90.548-133.833c0.916-3.27,0.109-6.781-2.142-9.323  C498.266,313.437,496.249,311.286,494.231,309.269z"/>
<path d="M285.177,324.319c-3.886-3.917-10.277-3.882-14.199,0c-0.013,0.013-0.025,0.024-0.038,0.037  c-3.901,3.901-3.972,10.293-0.076,14.199c1.937,1.942,4.49,2.906,7.049,2.906c2.588,0,5.183-0.986,7.15-2.943  C288.977,334.627,289.063,328.236,285.177,324.319z"/>
<g>
</g>
<g>
</g>
<g>
</g>
<g>
</g>
<g>
</g>
<g>
</g>
<g>
</g>
<g>
</g>
<g>
</g>
<g>
</g>
<g>
</g>
<g>
</g>
<g>
</g>
<g>
</g>
<g>
</g>
</svg>
