<?xml version="1.0" encoding="iso-8859-1"?>
<!-- Generator: Adobe Illustrator 19.0.0, SVG Export Plug-In . SVG Version: 6.00 Build 0)  -->
<svg xmlns="http://www.w3.org/2000/svg" xmlns:xlink="http://www.w3.org/1999/xlink" version="1.1" id="Capa_1" x="0px" y="0px" viewBox="0 0 469.39 469.39" style="enable-background:new 0 0 469.39 469.39;" xml:space="preserve">
<g transform="matrix(1.25 0 0 -1.25 0 45)">
	<g>
		<g>
			<g>
				<path style="fill:#88C9F9;" d="M347.045-339.512v22.756c0,37.706-30.561,68.267-68.267,68.267H96.734      c-37.695,0-68.267-30.561-68.267-68.267v-22.756H347.045z"/>
				<path style="fill:#88C9F9;" d="M138.149-249.639c19.843-14.416,32.415-42.416,49.607-42.416      c17.203,0,29.764,28.012,49.607,42.416v43.361h-99.214V-249.639z"/>
				<path style="fill:#88C9F9;" d="M113.163-111.274c0-16.475-8.351-29.833-18.648-29.833s-20.537,12.618-20.537,29.093      c0,22.027,5.7,30.583,20.537,30.583C104.812-81.43,113.163-94.799,113.163-111.274"/>
				<path style="fill:#88C9F9;" d="M301.534-111.957c0-16.475-10.24-29.104-20.548-29.104c-10.297,0-18.637,13.358-18.637,29.844      c0,16.475,8.34,29.833,18.637,29.833C296.368-81.385,301.534-89.941,301.534-111.957"/>
				<path style="fill:#88C9F9;" d="M90.795-122.879c0,63.59,17.317,136.078,96.961,136.078s96.973-72.488,96.973-136.078      c0-57.344-28.706-115.143-96.973-115.143S90.795-180.223,90.795-122.879"/>
			</g>
			<g>
				<path style="fill:#662113;" d="M229.888-122.31h-1.65c-5.222,0-9.5,4.278-9.5,9.5v11.981c0,5.222,4.278,9.5,9.5,9.5h1.65      c5.222,0,9.5-4.278,9.5-9.5v-11.981C239.388-118.032,235.11-122.31,229.888-122.31"/>
				<path style="fill:#662113;" d="M145.624-122.31h1.65c5.222,0,9.5,4.278,9.5,9.5v11.981c0,5.222-4.278,9.5-9.5,9.5h-1.65      c-5.222,0-9.5-4.278-9.5-9.5v-11.981C136.124-118.032,140.402-122.31,145.624-122.31"/>
			</g>
			<path style="fill:#226699;" d="M187.87-200.726c31.334,0,40.96,8.033,42.564,9.648c2.913,2.913,2.913,7.634,0,10.547     c-2.822,2.822-7.339,2.901-10.263,0.262c-0.592-0.421-8.203-5.541-32.302-5.541c-25.031,0-32.267,5.518-32.336,5.575     c-2.913,2.901-7.475,2.765-10.388-0.159c-2.913-2.913-2.753-7.771,0.159-10.684C146.91-192.693,156.535-200.726,187.87-200.726"/>
			<path style="fill:#55ACEE;" d="M196.289-154.623h-17.067c-4.699,0-8.533,3.834-8.533,8.533c0,4.699,3.834,8.533,8.533,8.533     h17.067c4.699,0,8.533-3.834,8.533-8.533C204.823-150.789,200.988-154.623,196.289-154.623"/>
			<g>
				<path style="fill:#744EAA;" d="M119.717-247.921c0,0-1.786-77.562,45.363-77.562v-14.029H85.22c0,0-2.435,67.402,11.56,91.022      L119.717-247.921z"/>
				<path style="fill:#744EAA;" d="M255.693-247.921c0,0,1.786-77.562-45.363-77.562v-14.029h79.861c0,0,2.435,67.402-11.56,91.022      L255.693-247.921z"/>
				<path style="fill:#744EAA;" d="M187.756-31.516c0,0,81.34-21.14,93.81-59.21c5.439,11.617,8.59,37.057,8.59,51.405      c0,43.679-34.133,75.321-89.6,75.321h-25.6c-46.933,0-89.6-31.642-89.6-75.321c0-14.347,3.152-41.677,8.579-53.294      C106.416-54.522,187.756-31.516,187.756-31.516"/>
			</g>
			<g>
				<path style="fill:#CBB7EA;" d="M289.985-45.704c-15.883,12.686-34.634,23.165-52.474,29.116      c-4.153,1.388-8.59-0.865-9.967-4.983s0.853-8.579,4.972-9.967c18.955-6.315,39.765-18.955,55.558-33.394      C289.087-57.833,289.792-49.811,289.985-45.704"/>
				<path style="fill:#CBB7EA;" d="M86.687-58.606C109.522-42.268,185.936,6.918,273.26,7.601      c-5.393,6.19-11.196,10.661-17.966,14.871c-76.299-5.666-141.392-43.679-169.87-62.817      C85.527-45.522,85.948-51.871,86.687-58.606"/>
				<path style="fill:#CBB7EA;" d="M283.568-8.305c-0.319,0.046-0.956,0-1.286,0c-32.256,0-64.887-8.078-97.03-23.984      c1.593,0.478,2.503,0.728,2.503,0.728s9.284-2.412,22.039-7.066c24.189,9.614,48.503,14.575,72.488,14.575      c2.31,0,4.597-0.159,6.519-0.603C287.949-19.888,285.992-13.152,283.568-8.305"/>
				<path style="fill:#CBB7EA;" d="M87.495-21.344c28.183,18.045,80.794,44.055,140.425,54.431      c-9.045,2.685-17.59,2.867-27.352,2.867h-20.082c-31.004-12.049-58.618-21.129-79.906-32.848      C94.492-4.619,89.953-11.855,87.495-21.344"/>
			</g>
			<path style="fill:#FFD983;" d="M189.008,3.073L189.008,3.073c10.092,0,18.341-8.26,18.341-18.341v-18.785     c0-10.092-8.249-18.341-18.341-18.341l0,0c-10.092,0-18.341,8.249-18.341,18.341v18.785     C170.667-5.188,178.916,3.073,189.008,3.073"/>
			<path style="fill:#FFAC33;" d="M189.008-8.305L189.008-8.305c5.507,0,10.024-4.506,10.024-10.024v-12.595     c0-5.518-4.517-10.024-10.024-10.024l0,0c-5.507,0-10.024,4.506-10.024,10.024v12.595     C178.984-12.811,183.501-8.305,189.008-8.305"/>
			<path d="M284.991-159.277c0.364,2.321-1.217,4.506-3.55,4.87c-2.378,0.444-4.517-1.24-4.87-3.561     c-0.125-0.728-12.197-71.111-82.273-75.378c1.252,11.014-0.899,20.537-1.001,21.003c-0.728,3.061-3.8,5.006-6.849,4.233     c-3.049-0.717-4.949-3.777-4.233-6.838c0.023-0.091,2.025-8.909,0.592-18.512c-71.327,3.186-83.376,72.476-83.854,75.503     c-0.375,2.321-2.549,3.914-4.881,3.55c-2.321-0.364-3.914-2.549-3.55-4.87c0.091-0.558,6.451-37.604,35.635-62.009     c0.091-0.193,0.296-0.455,0.796-0.887c8.522-7.361,44.646-45.375,60.757-46.205v-0.023c0.011,0,0.034,0.011,0.046,0.011     c0.011,0,0.023-0.011,0.046-0.011v0.023c16.111,0.831,52.235,38.844,60.746,46.205c0.501,0.421,0.705,0.683,0.796,0.876     C278.539-196.892,284.911-159.834,284.991-159.277"/>
		</g>
	</g>
</g>
<g>
</g>
<g>
</g>
<g>
</g>
<g>
</g>
<g>
</g>
<g>
</g>
<g>
</g>
<g>
</g>
<g>
</g>
<g>
</g>
<g>
</g>
<g>
</g>
<g>
</g>
<g>
</g>
<g>
</g>
</svg>
