<?xml version="1.0" encoding="iso-8859-1"?>
<!-- Generator: Adobe Illustrator 19.0.0, SVG Export Plug-In . SVG Version: 6.00 Build 0)  -->
<svg xmlns="http://www.w3.org/2000/svg" xmlns:xlink="http://www.w3.org/1999/xlink" version="1.1" id="Capa_1" x="0px" y="0px" viewBox="0 0 512.001 512.001" style="enable-background:new 0 0 512.001 512.001;" xml:space="preserve">
<path style="fill:#FFB64C;" d="M419.412,123.424l-44.476,2.009l-85.949,85.949l-9.61,9.61l-32.51,116.314  c22.843,3.8,223.148,36.951,245.99,40.751c8.346,1.455,16.153-4.834,17.261-12.742c0.02-0.146,0.114-0.262,0.13-0.41  C519.992,277.193,489.007,188.503,419.412,123.424z"/>
<path style="fill:#FFC473;" d="M235.342,46.754L205.31,77.959v0.298v106.702l95.301,57.266  c45.223-45.223,76.09-76.09,118.801-118.801C367.079,74.484,299.754,48.362,235.342,46.754z"/>
<path style="fill:#FFB64C;" d="M75.574,105.26l0.002,42.469c29.265,29.265,47.743,47.743,77.371,77.371l82.397-25.237  c0-55.768,0-97.819,0-153.107C175.677,45.266,119.233,66.683,75.574,105.26z"/>
<path style="fill:#FFC473;" d="M75.574,105.26c-45.338,40.043-68.83,93.896-74.506,150.97l29.496,30.032c57.359,0,36.315,0,94.006,0  l49.608-82.397C137.343,167.029,112.257,141.944,75.574,105.26z"/>
<path style="fill:#FFB64C;" d="M124.57,256.23c-46.678,0-76.234,0-123.503,0c-5.888,58.398,12.583,116.644,55.662,157.379  l45.174-2.707c20.935-20.935,34.712-34.712,56.541-56.541L124.57,256.23z"/>
<path style="fill:#FFC473;" d="M234.902,351.677l-97.691-18.55c-42.431,42.431-60.934,60.934-80.481,80.481  c45.985,43.48,113.011,63.678,173.763,44.386l20.289-42.747C234.232,348.999,236.596,358.462,234.902,351.677z"/>
<path style="fill:#FFB64C;" d="M308.63,317.14c-19.694-3.276-34.349-5.714-56.835-9.455l-46.045,51.265  c5.355,21.437,19.566,78.317,24.743,99.043c52.148-16.56,88.78-56.577,102.658-106.335L308.63,317.14z"/>
<path style="fill:#FF9800;" d="M310.455,230.685c-0.121-0.15-0.276-0.258-0.397-0.408c-17.638-21.84-44.274-38.752-75.341-44.769  c-9.831-1.903-11.774-3.792-30.032-2.425c-13.683,1.023-26.924,4.724-39.167,10.869c-23.394,11.739-43.861,34.224-52.774,60.401  c-10.104,29.659-6.111,62.634,13.522,87.217c18.392,23.036,50.983,38.009,82.761,31.126c20.014-4.339,37.604-16.339,48.431-35.4  c50.617,8.42,33.739,5.613,75.068,12.486C345.421,303.54,335.372,261.835,310.455,230.685z"/>
<g>
</g>
<g>
</g>
<g>
</g>
<g>
</g>
<g>
</g>
<g>
</g>
<g>
</g>
<g>
</g>
<g>
</g>
<g>
</g>
<g>
</g>
<g>
</g>
<g>
</g>
<g>
</g>
<g>
</g>
</svg>
