<?xml version="1.0" encoding="iso-8859-1"?>
<!-- Generator: Adobe Illustrator 19.0.0, SVG Export Plug-In . SVG Version: 6.00 Build 0)  -->
<svg xmlns="http://www.w3.org/2000/svg" xmlns:xlink="http://www.w3.org/1999/xlink" version="1.1" id="Capa_1" x="0px" y="0px" viewBox="0 0 512.005 512.005" style="enable-background:new 0 0 512.005 512.005;" xml:space="preserve">
<path style="fill:#56412D;" d="M223.113,211.992c-3.166-14.018-10.279-26.691-20.57-36.649c-2.649-2.563-5.081-5.015-7.338-7.384  l-41.755,65.546c0,0-56.113-24.88-71.231-30.981c-5.01,13.417-5.984,27.917-2.818,41.932l40.16,177.772l143.712-32.465  L223.113,211.992z"/>
<path style="fill:#FFAF2D;" d="M193.406,166.045c-0.602-0.648-9.874-11.645-10.293-12.203  c-9.478-12.642-13.479-23.278-16.287-35.707l-17.377-76.922l-76.95,17.382l17.377,76.922c2.795,12.373,3.76,23.647,0.69,39.024  c-0.165,0.827-3.256,12.932-3.32,13.142c-0.264,0.883-5.298,15.609-5.434,15.993l73.135,40.885l48.458-68.354  C203.118,175.92,193.778,166.446,193.406,166.045z"/>
<path style="fill:#FF9900;" d="M193.406,166.045c-0.602-0.648-9.874-11.645-10.293-12.203  c-9.478-12.642-13.479-23.278-16.287-35.707l-17.377-76.922l-37.52,8.476l43.019,194.874l48.458-68.354  C203.118,175.92,193.778,166.446,193.406,166.045z"/>
<rect x="68.223" y="8.511" transform="matrix(-0.9754 0.2204 -0.2204 -0.9754 233.033 82.2605)" style="fill:#FFDB2D;" width="87.409" height="91.239"/>
<path style="fill:#FFB9A3;" d="M397.869,22.005c-11.414,0-21.693,4.956-28.8,12.827c-7.106-7.872-17.385-12.827-28.799-12.827  c-21.395,0-38.8,17.406-38.8,38.8c0,11.02,4.711,21.558,12.925,28.913c3.929,3.518,32.953,31.302,47.751,45.502l6.924,6.644  l6.924-6.644c14.798-14.2,43.821-41.984,47.751-45.502c8.214-7.355,12.925-17.893,12.925-28.913  C436.669,39.411,419.264,22.005,397.869,22.005z"/>
<path style="fill:#FF9575;" d="M397.869,22.005c-11.414,0-21.693,4.956-28.8,12.827c0,48.507,0,107.033,0,107.033l6.924-6.644  c14.798-14.2,43.821-41.984,47.751-45.502c8.214-7.355,12.925-17.893,12.925-28.913C436.669,39.411,419.264,22.005,397.869,22.005z"/>
<rect x="155.758" y="298.096" transform="matrix(-0.2203 -0.9754 0.9754 -0.2203 -99.4616 551.6826)" width="29.999" height="34.993"/>
<g>
	
		<rect x="224.005" y="44.672" transform="matrix(0.7071 -0.7071 0.7071 0.7071 27.8088 186.4796)" style="fill:#FFDB2D;" width="30" height="30"/>
	
		<rect x="347.788" y="208.889" transform="matrix(0.7071 -0.7071 0.7071 0.7071 -52.0548 322.1054)" style="fill:#FFDB2D;" width="30" height="30"/>
	
		<rect x="422.221" y="145.122" transform="matrix(0.7071 -0.7071 0.7071 0.7071 14.8359 356.0602)" style="fill:#FFDB2D;" width="30" height="30"/>
</g>
<rect x="226.553" y="160.005" style="fill:#DB3502;" width="58.899" height="138.55"/>
<polygon style="fill:#FF4F19;" points="77.525,327.116 117.7,512.005 394.306,512.005 434.481,327.116 "/>
<polygon style="fill:#DB3502;" points="256.003,327.116 256.003,512.005 394.306,512.005 434.481,327.116 "/>
<polygon style="fill:#56412D;" points="256.003,276.631 97.336,366.883 414.67,366.883 "/>
<polygon style="fill:#FFDB2D;" points="50.896,276.631 50.896,429.805 256.003,276.631 "/>
<polygon style="fill:#FFAF2D;" points="256.003,276.631 461.11,429.805 461.11,276.631 "/>
<g>
</g>
<g>
</g>
<g>
</g>
<g>
</g>
<g>
</g>
<g>
</g>
<g>
</g>
<g>
</g>
<g>
</g>
<g>
</g>
<g>
</g>
<g>
</g>
<g>
</g>
<g>
</g>
<g>
</g>
</svg>
