<?xml version="1.0" encoding="iso-8859-1"?>
<!-- Generator: Adobe Illustrator 19.0.0, SVG Export Plug-In . SVG Version: 6.00 Build 0)  -->
<svg xmlns="http://www.w3.org/2000/svg" xmlns:xlink="http://www.w3.org/1999/xlink" version="1.1" id="Capa_1" x="0px" y="0px" viewBox="0 0 469.334 469.334" style="enable-background:new 0 0 469.334 469.334;" xml:space="preserve">
<path style="fill:#292F33;" d="M433.778,469.334v-28.445c0-47.132-38.201-85.334-85.334-85.334H120.889  c-47.119,0-85.334,38.201-85.334,85.334v28.445H433.778z"/>
<g>
	<path style="fill:#BE1931;" d="M120.889,355.556c0-56.889-99.555-99.555-99.555-156.445c0,0,14.222-71.111,213.334-71.111v284.445   C234.667,412.445,149.333,398.223,120.889,355.556"/>
	<path style="fill:#BE1931;" d="M348.444,355.556c0-56.889,99.555-99.555,99.555-156.445c0,0-52.152-71.111-213.334-71.111v284.445   C234.667,412.445,320.001,398.223,348.444,355.556"/>
</g>
<path style="fill:#F7DECE;" d="M172.654,356.996c24.804,18.02,40.505,27.904,62.009,27.904c21.504,0,37.205-9.899,62.009-27.904  v-54.201H172.654V356.996z"/>
<path style="fill:#EEC2AD;" d="M172.542,326.725c17.294,19.541,38.741,24.832,62.066,24.832c23.31,0,44.758-5.305,62.066-24.832  v-49.65H172.543v49.65H172.542z"/>
<path style="fill:#F7DECE;" d="M113.46,198.539c0-79.488,54.272-143.943,121.201-143.943c66.944,0,121.216,64.455,121.216,143.943  s-54.273,143.929-121.216,143.929C167.733,342.467,113.46,278.026,113.46,198.539"/>
<path style="fill:#C1694F;" d="M234.667,312.889c-39.167,0-51.2-27.079-53.205-29.085c-3.641-3.655-3.641-9.543,0-13.184  c3.528-3.541,9.174-3.641,12.829-0.341c0.74,0.54,10.254,6.926,40.378,6.926c31.289,0,40.334-6.898,40.42-6.969  c3.641-3.612,9.344-3.441,12.985,0.199c3.641,3.641,3.441,9.714-0.199,13.369C285.867,285.81,273.834,312.889,234.667,312.889"/>
<g>
	<path style="fill:#DD2E44;" d="M177.778,199.111L177.778,199.111c-7.823,0-14.223-6.4-14.223-14.223v-14.223   c0-7.822,6.4-14.223,14.223-14.223l0,0c7.822,0,14.223,6.4,14.223,14.223v14.223C192.001,192.711,185.601,199.111,177.778,199.111"/>
	<path style="fill:#DD2E44;" d="M291.556,199.111L291.556,199.111c-7.822,0-14.223-6.4-14.223-14.223v-14.223   c0-7.822,6.4-14.223,14.223-14.223l0,0c7.822,0,14.223,6.4,14.223,14.223v14.223C305.778,192.711,299.378,199.111,291.556,199.111"/>
</g>
<path style="fill:#C1694F;" d="M245.334,238.223H224c-5.874,0-10.666-4.792-10.666-10.666S218.126,216.89,224,216.89h21.334  c5.874,0,10.666,4.792,10.666,10.666S251.207,238.223,245.334,238.223"/>
<g>
	<path style="fill:#F7DECE;" d="M348.444,184.889l-6.685,1.835c0,0-16.952,48.355-0.014,56.833   c37.902,18.944,49.365-53.945,49.365-72.889C391.112,156.445,348.444,184.889,348.444,184.889"/>
	<path style="fill:#F7DECE;" d="M120.889,184.889l6.685,1.835c0,0,16.953,48.355,0.014,56.833   c-37.902,18.944-49.365-53.945-49.365-72.889C78.222,156.445,120.889,184.889,120.889,184.889"/>
</g>
<g transform="matrix(1.25 0 0 -1.25 22.5 15)">
	<path style="fill:#292F33;" d="M169.734-90.4c18.065,43.049,20.335,78.302,0,102.4c-91.022,0-102.4-45.511-102.4-113.778   s19.991-11.036,22.756,0C101.466-56.267,146.978-44.889,169.734-90.4"/>
	<path style="fill:#292F33;" d="M169.734-90.4c22.756,45.511,68.267,34.133,79.644-11.378c2.765-11.036,22.756-68.267,22.756,0   S260.755,12,169.734,12"/>
</g>
<path style="fill:#E1E8ED;" d="M149.333,399.633v28.445c0,11.321,10.639,19.626,21.632,16.881l63.701-31.104l-65.92-29.384  C158.891,382.01,149.333,389.463,149.333,399.633"/>
<path style="fill:#BF6952;" d="M200.056,277.329c-4.708,0-9.06,2.119-11.946,5.831c-2.901,3.712-3.897,8.447-2.759,13.014  c0.114,0.484,0.285,0.939,0.497,1.394l14.393,29.469c1.195,2.446,3.684,3.982,6.4,3.982c0.029,0,0.071,0,0.114,0  c2.774-0.042,5.247-1.693,6.371-4.21l12.515-28.06c0.171-0.384,0.299-0.768,0.399-1.18c0.91-3.655,0.256-7.395-1.849-10.539  c-2.46-3.669-6.813-6.273-11.62-6.955l-10.909-2.56C201.136,277.386,200.596,277.329,200.056,277.329"/>
<path style="fill:#F5F8FA;" d="M211.556,287.112l-11.506-2.66c-5.234,0-9.074,4.921-7.808,9.999l14.392,29.469l12.501-28.061  C220.288,291.293,216.136,287.765,211.556,287.112"/>
<path style="fill:#BF6952;" d="M268.724,277.329c-0.54,0-1.081,0.057-1.607,0.185l-11.506,2.66  c-4.21,0.582-8.561,3.186-11.022,6.855c-2.105,3.142-2.774,6.884-1.849,10.539c0.1,0.413,0.228,0.796,0.399,1.18l12.515,28.06  c1.124,2.517,3.599,4.168,6.371,4.21c0.043,0,0.085,0,0.114,0c2.716,0,5.205-1.536,6.4-3.982l14.392-29.469  c0.214-0.455,0.384-0.91,0.497-1.394c1.138-4.565,0.142-9.301-2.759-13.014C277.782,279.448,273.431,277.329,268.724,277.329"/>
<path style="fill:#F5F8FA;" d="M257.223,287.112l11.506-2.66c5.234,0,9.074,4.921,7.807,9.999l-14.392,29.469l-12.501-28.06  C248.49,291.293,252.644,287.765,257.223,287.112"/>
<g>
	<path style="fill:#E1E8ED;" d="M320.001,399.633v28.445c0,11.321-10.639,19.626-21.633,16.881l-63.701-31.105l65.92-29.384   C310.443,382.01,320.001,389.463,320.001,399.633"/>
	<path style="fill:#E1E8ED;" d="M220.444,398.223h28.445c7.822,0,14.223,6.4,14.223,14.223l0,0c0,7.822-6.4,14.222-14.223,14.222   h-28.445c-7.822,0-14.223-6.4-14.223-14.222l0,0C206.222,404.622,212.622,398.223,220.444,398.223"/>
</g>
<g>
	<path style="fill:#99AAB5;" d="M199.354,431.293c-0.355-0.696-8.633-16.995-2.047-33.749l13.241,5.22   c-4.181,10.624,1.38,21.86,1.436,21.974L199.354,431.293z"/>
	<path style="fill:#99AAB5;" d="M270.529,431.293l-12.644-6.556c0.042-0.071,5.632-11.349,1.451-21.974l13.226-5.22   C279.148,414.297,270.87,430.596,270.529,431.293"/>
</g>
<g>
</g>
<g>
</g>
<g>
</g>
<g>
</g>
<g>
</g>
<g>
</g>
<g>
</g>
<g>
</g>
<g>
</g>
<g>
</g>
<g>
</g>
<g>
</g>
<g>
</g>
<g>
</g>
<g>
</g>
</svg>
