<?xml version="1.0" encoding="iso-8859-1"?>
<!-- Generator: Adobe Illustrator 19.0.0, SVG Export Plug-In . SVG Version: 6.00 Build 0)  -->
<svg xmlns="http://www.w3.org/2000/svg" xmlns:xlink="http://www.w3.org/1999/xlink" version="1.1" id="Capa_1" x="0px" y="0px" viewBox="0 0 512.001 512.001" style="enable-background:new 0 0 512.001 512.001;" xml:space="preserve">
<path style="fill:#E0D7D0;" d="M401.776,422.048c-18.021,11.275-32.402,25.357-43.378,38.657  c-18.917,22.888-27.743,43.461-27.743,43.461H222.194c0,0-8.826-20.573-27.743-43.461c-10.976-13.301-25.357-27.383-43.378-38.657  H401.776z"/>
<path style="fill:#CEC3BC;" d="M401.776,422.048c-18.021,11.275-32.402,25.357-43.378,38.657H194.451  c-10.976-13.301-25.357-27.383-43.378-38.657H401.776z"/>
<polygon style="fill:#F1EFF0;" points="295.434,419.47 260.326,419.47 260.614,403.182 260.717,397.105 261.098,375.085   265.582,119.173 265.983,96.267 266.22,82.932 289.54,82.932 289.776,96.267 290.177,119.173 294.652,375.085 295.043,397.105   295.146,403.182 "/>
<g>
	<polygon style="fill:#E0D7D0;" points="290.174,119.168 265.582,119.168 265.982,96.27 289.775,96.27  "/>
	<polygon style="fill:#E0D7D0;" points="295.434,419.47 260.326,419.47 260.614,403.182 260.717,397.105 295.043,397.105    295.146,403.182  "/>
</g>
<polygon style="fill:#F1EFF0;" points="394.965,434.735 158.638,434.735 147.883,420.33 152.185,409.368 401.417,409.368   405.719,420.33 "/>
<polygon style="fill:#E0D7D0;" points="405.717,420.33 394.963,434.732 158.637,434.732 147.882,420.33 148.076,419.847   405.523,419.847 "/>
<path style="fill:#FFC373;" d="M295.435,46.593c0,9.696-7.86,17.556-17.556,17.556c-9.696,0-17.556-7.86-17.556-17.556  s7.86-38.756,17.556-38.756C287.574,7.837,295.435,36.898,295.435,46.593z"/>
<path style="fill:#FFB64D;" d="M295.437,46.592c0,9.698-7.862,17.56-17.56,17.56c-9.698,0-17.56-7.862-17.56-17.56  c0-2.799,0.654-7.2,1.822-12.056c2.865,5.797,8.832,9.779,15.737,9.779s12.872-3.982,15.737-9.779  C294.784,39.393,295.437,43.793,295.437,46.592z"/>
<polygon style="fill:#E0D7D0;" points="294.94,77.789 258.588,77.789 248.302,59.943 305.227,59.943 "/>
<rect x="248.301" y="77.793" style="fill:#F1EFF0;" width="56.926" height="17.847"/>
<path d="M414.263,401.531l-111.305-0.002l-3.711-211.863h68.034c4.329,0,7.837-3.509,7.837-7.837s-3.508-7.837-7.837-7.837h-68.307  l-1.235-70.52h7.49c4.329,0,7.837-3.509,7.837-7.837V77.789c0-3.286-2.025-6.096-4.893-7.26l3.846-6.672  c1.398-2.425,1.396-5.412-0.004-7.835c-1.401-2.423-3.986-3.916-6.786-3.916h-2.57c0.397-1.776,0.615-3.618,0.615-5.513  C303.272,38.689,296.356,0,277.879,0c-18.477,0-25.393,38.689-25.393,46.593c0,1.894,0.218,3.737,0.615,5.513h-4.799  c-2.799,0-5.385,1.493-6.786,3.916c-1.4,2.423-1.402,5.409-0.004,7.835l3.846,6.673c-2.868,1.164-4.893,3.974-4.893,7.26v17.846  c0,4.328,3.509,7.837,7.837,7.837h9.719l-1.89,107.875c-0.075,4.328,3.371,7.897,7.699,7.973c4.374,0.054,7.897-3.371,7.973-7.699  l1.894-108.149h8.363l5.221,298.057h-18.807l2.844-162.34c0.075-4.328-3.371-7.897-7.699-7.973  c-4.323-0.046-7.897,3.372-7.973,7.699l-1.666,95.053h-63.795c-4.328,0-7.837,3.509-7.837,7.837s3.509,7.837,7.837,7.837h63.521  l-0.909,51.889l-114.213,0.002c-4.328,0-7.837,3.509-7.837,7.837c0,4.328,3.509,7.837,7.837,7.837h2.108l-0.085,0.21  c-1.017,2.535-0.639,5.417,0.995,7.605l10.754,14.401c1.48,1.981,3.807,3.148,6.279,3.148h7.103  c33.329,28.481,49.072,64.272,49.25,64.686c1.236,2.88,4.069,4.746,7.201,4.746h108.466c3.134,0,5.965-1.866,7.201-4.746  c0.18-0.419,15.815-36.16,49.237-64.686h7.869c2.472,0,4.8-1.167,6.28-3.148l10.753-14.401c1.631-2.184,2.009-5.059,1-7.591  l-0.088-0.224h1.355c4.329,0,7.837-3.509,7.837-7.837C422.1,405.041,418.593,401.531,414.263,401.531z M261.863,67.78h29.801  l-1.253,2.172h-27.296L261.863,67.78z M268.159,46.593c0-7.875,5.469-25.513,9.72-30.228c4.251,4.715,9.72,22.354,9.72,30.228  c0,2.047-0.639,3.945-1.723,5.513h-15.992C268.798,50.538,268.159,48.639,268.159,46.593z M256.138,85.626h41.252v2.172h-41.252  V85.626L256.138,85.626z M391.035,426.895H162.564l-5.793-7.758l0.759-1.935h238.54l0.759,1.934L391.035,426.895z M325.685,496.326  h-39.946v-13.374c0-4.328-3.508-7.837-7.837-7.837c-4.328,0-7.837,3.509-7.837,7.837v13.374h-42.901  c-4.194-8.458-14.336-26.9-31.224-46.002c1.288-1.397,2.082-3.257,2.082-5.307v-2.449h1.574v2.449c0,4.328,3.509,7.837,7.837,7.837  c4.328,0,7.837-3.509,7.837-7.837v-2.449h1.574v2.449c0,4.328,3.509,7.837,7.837,7.837s7.837-3.509,7.837-7.837v-2.449h1.574v2.449  c0,4.328,3.509,7.837,7.837,7.837c4.328,0,7.837-3.509,7.837-7.837v-2.449h1.574v2.449c0,4.328,3.509,7.837,7.837,7.837  c4.328,0,7.837-3.509,7.837-7.837v-2.449h1.574v2.449c0,4.328,3.509,7.837,7.837,7.837c4.329,0,7.837-3.509,7.837-7.837v-2.449  h1.574v2.449c0,4.328,3.508,7.837,7.837,7.837s7.837-3.509,7.837-7.837v-2.449h1.575v2.449c0,4.328,3.508,7.837,7.837,7.837  s7.837-3.509,7.837-7.837v-2.449h1.574v2.449c0,4.328,3.508,7.837,7.837,7.837s7.837-3.509,7.837-7.837v-2.449h1.575v2.449  c0,4.328,3.508,7.837,7.837,7.837s7.837-3.509,7.837-7.837v-2.449h1.574v2.449c0,2.05,0.794,3.911,2.082,5.308  C340.02,469.426,329.879,487.868,325.685,496.326z"/>
<path d="M179.214,282.907c0-4.328-3.509-7.837-7.837-7.837H88.611c-4.328,0-7.837,3.509-7.837,7.837  c0,4.328,3.509,7.837,7.837,7.837h82.766C175.706,290.744,179.214,287.235,179.214,282.907z"/>
<path d="M202.981,285.293c-4.328,0-7.837,3.509-7.837,7.837c0,4.328,3.509,7.837,7.837,7.837H218.9c4.328,0,7.837-3.509,7.837-7.837  c0-4.328-3.509-7.837-7.837-7.837H202.981z"/>
<path d="M136.393,268.218h74.977c4.328,0,7.837-3.509,7.837-7.837s-3.509-7.837-7.837-7.837h-74.977  c-4.328,0-7.837,3.509-7.837,7.837S132.065,268.218,136.393,268.218z"/>
<path d="M416.033,207.258c0-4.328-3.508-7.837-7.837-7.837h-54.705c-4.329,0-7.837,3.509-7.837,7.837  c0,4.328,3.508,7.837,7.837,7.837h54.705C412.524,215.095,416.033,211.586,416.033,207.258z"/>
<path d="M359.753,322.47c-4.329,0-7.837,3.509-7.837,7.837c0,4.328,3.508,7.837,7.837,7.837h18.25c4.329,0,7.837-3.509,7.837-7.837  c0-4.328-3.508-7.837-7.837-7.837H359.753z"/>
<path d="M423.39,131.837h-18.25c-4.329,0-7.837,3.509-7.837,7.837s3.508,7.837,7.837,7.837h18.25c4.329,0,7.837-3.509,7.837-7.837  S427.718,131.837,423.39,131.837z"/>
<g>
</g>
<g>
</g>
<g>
</g>
<g>
</g>
<g>
</g>
<g>
</g>
<g>
</g>
<g>
</g>
<g>
</g>
<g>
</g>
<g>
</g>
<g>
</g>
<g>
</g>
<g>
</g>
<g>
</g>
</svg>
