<?xml version="1.0" encoding="iso-8859-1"?>
<!-- Generator: Adobe Illustrator 19.0.0, SVG Export Plug-In . SVG Version: 6.00 Build 0)  -->
<svg xmlns="http://www.w3.org/2000/svg" xmlns:xlink="http://www.w3.org/1999/xlink" version="1.1" id="Capa_1" x="0px" y="0px" viewBox="0 0 512 512" style="enable-background:new 0 0 512 512;" xml:space="preserve">
<path style="fill:#A6673A;" d="M421,346v121c0,8.399-6.599,15-15,15H106c-8.401,0-15-6.601-15-15V346c0-33.6,16.199-63.3,40.8-82.5  L202,352c2.401,5.4,7.8,9,13.799,9h80.402c5.999,0,11.398-3.6,13.799-9l70.201-88.5C404.801,282.7,421,312.4,421,346z"/>
<path style="fill:#99522E;" d="M421,346v121c0,8.399-6.599,15-15,15H256V361h40.201c5.999,0,11.398-3.6,13.799-9l70.201-88.5  C404.801,282.7,421,312.4,421,346z"/>
<path style="fill:#FDB455;" d="M380.2,263.5l-42.601,100.199C330.399,380.2,314.2,391,296.201,391h-80.402  c-17.999,0-34.199-10.8-41.398-27.301L131.8,263.5c19.801-15.601,42.601-22.5,64.2-22.5h120  C337.599,241,360.399,247.899,380.2,263.5z"/>
<path style="fill:#FF9800;" d="M380.2,263.5l-42.601,100.199C330.399,380.2,314.2,391,296.201,391H256V241h60  C337.599,241,360.399,247.899,380.2,263.5z"/>
<path style="fill:#A6673A;" d="M271,256v60c0,8.399-6.599,15-15,15s-15-6.601-15-15v-60c0-8.401,6.599-15,15-15S271,247.599,271,256  z"/>
<path style="fill:#99522E;" d="M271,256v60c0,8.399-6.599,15-15,15v-90C264.401,241,271,247.599,271,256z"/>
<path style="fill:#6B77E8;" d="M363.999,55C338.5,21.099,298.299,0,256,0s-82.5,21.099-107.999,55C111.099,103.9,91,164.799,91,226  c0,24.899,20.099,45,45,45h240c24.901,0,45-20.101,45-45C421,164.799,400.901,103.9,363.999,55z"/>
<path style="fill:#3A4DE2;" d="M421,226c0,24.899-20.099,45-45,45H256V0c42.299,0,82.5,21.099,107.999,55  C400.901,103.9,421,164.799,421,226z"/>
<path style="fill:#FCD223;" d="M286,91h-60c-24.901,0-45,20.099-45,45v60c0,41.4,33.6,75,75,75s75-33.6,75-75v-60  C331,111.099,310.901,91,286,91z"/>
<path style="fill:#FDBF00;" d="M331,136v60c0,41.4-33.6,75-75,75V91h30C310.901,91,331,111.099,331,136z"/>
<path style="fill:#FD6243;" d="M271,76v60c0,8.399-6.599,15-15,15s-15-6.601-15-15V76c0-8.401,6.599-15,15-15S271,67.599,271,76z"/>
<path style="fill:#FD5022;" d="M271,76v60c0,8.399-6.599,15-15,15V61C264.401,61,271,67.599,271,76z"/>
<path style="fill:#FF9800;" d="M466,512H346c-8.291,0-15-6.709-15-15v-30c0-24.814,20.186-45,45-45h60c24.814,0,45,20.186,45,45v30  C481,505.291,474.291,512,466,512z"/>
<path style="fill:#FDB455;" d="M166,512H46c-8.291,0-15-6.709-15-15v-30c0-24.814,20.186-45,45-45h60c24.814,0,45,20.186,45,45v30  C181,505.291,174.291,512,166,512z"/>
<g>
</g>
<g>
</g>
<g>
</g>
<g>
</g>
<g>
</g>
<g>
</g>
<g>
</g>
<g>
</g>
<g>
</g>
<g>
</g>
<g>
</g>
<g>
</g>
<g>
</g>
<g>
</g>
<g>
</g>
</svg>
