<?xml version="1.0" encoding="iso-8859-1"?>
<!-- Generator: Adobe Illustrator 19.0.0, SVG Export Plug-In . SVG Version: 6.00 Build 0)  -->
<svg xmlns="http://www.w3.org/2000/svg" xmlns:xlink="http://www.w3.org/1999/xlink" version="1.1" id="Capa_1" x="0px" y="0px" viewBox="0 0 512 512" style="enable-background:new 0 0 512 512;" xml:space="preserve">
<path style="fill:#A6673A;" d="M454.701,191.499C452.3,168.399,433.1,151,409.999,151H344c-23.101,0-42.301,17.399-44.702,40.499  l-20.7,207.001c-4.199,44.099,30.3,82.5,74.702,82.5h47.399c44.101,0,78.9-38.401,74.702-82.5L454.701,191.499z"/>
<path style="fill:#99522E;" d="M475.401,398.5C479.6,442.599,444.8,481,400.699,481H377V151h32.999  c23.101,0,42.301,17.399,44.702,40.499L475.401,398.5z"/>
<path style="fill:#A6673A;" d="M212.701,191.499C210.3,168.399,191.1,151,167.999,151H102c-23.1,0-42.3,17.399-44.701,40.499  L36.599,398.5c-4.199,44.099,30.3,82.5,74.702,82.5H158.7c44.101,0,78.9-38.401,74.702-82.5L212.701,191.499z"/>
<path style="fill:#99522E;" d="M233.401,398.5C237.6,442.599,202.8,481,158.699,481H135V151h32.999  c23.101,0,42.301,17.399,44.702,40.499L233.401,398.5z"/>
<path style="fill:#FDB455;" d="M467,31H45C20.099,31,0,51.099,0,76v60c0,24.899,20.099,45,45,45h422c24.901,0,45-20.101,45-45V76  C512,51.099,491.901,31,467,31z"/>
<path style="fill:#FF9800;" d="M512,76v60c0,24.899-20.099,45-45,45H256V31h211C491.901,31,512,51.099,512,76z"/>
<g>
</g>
<g>
</g>
<g>
</g>
<g>
</g>
<g>
</g>
<g>
</g>
<g>
</g>
<g>
</g>
<g>
</g>
<g>
</g>
<g>
</g>
<g>
</g>
<g>
</g>
<g>
</g>
<g>
</g>
</svg>
