<?xml version="1.0" encoding="iso-8859-1"?>
<!-- Generator: Adobe Illustrator 19.0.0, SVG Export Plug-In . SVG Version: 6.00 Build 0)  -->
<svg xmlns="http://www.w3.org/2000/svg" xmlns:xlink="http://www.w3.org/1999/xlink" version="1.1" id="Capa_1" x="0px" y="0px" viewBox="0 0 512 512" style="enable-background:new 0 0 512 512;" xml:space="preserve">
<path style="fill:#FDB455;" d="M415.596,133.834l-21.6,29.999H118.004l-21.6-29.999l18.299-65.398  c11.4-41.099,59.7-66.899,99.597-40.5c12.9,8.701,27.3,12.9,41.699,12.9c14.399,0,28.8-4.199,41.699-12.9  c39.599-26.399,88.197-0.899,99.597,40.5L415.596,133.834z"/>
<path style="fill:#FF9800;" d="M415.596,133.834l-21.6,29.999H256V40.836c14.399,0,28.8-4.199,41.699-12.9  c39.599-26.399,88.197-0.899,99.597,40.5L415.596,133.834z"/>
<path style="fill:#FD6243;" d="M424.895,223.23c-1.199,0.3-2.701,0.601-3.9,0.601L256,223.531l-168.895-0.3  c-8.101-2.1-12.9-10.499-10.499-18.299l19.798-71.098h319.191l19.798,71.098C437.794,212.732,432.995,221.13,424.895,223.23z"/>
<path style="fill:#FF4F19;" d="M424.895,223.23c-1.199,0.3-2.701,0.601-3.9,0.601L256,223.531v-89.697h159.595l19.798,71.098  C437.794,212.732,432.995,221.13,424.895,223.23z"/>
<path style="fill:#A6673A;" d="M425.711,255.968c-7.119-4.277-16.333-1.948-20.58,5.142l-25.692,42.831  C353.571,347.05,306.272,374.827,256,374.827s-97.57-27.776-123.438-70.886L106.87,261.11c-4.263-7.09-13.477-9.419-20.58-5.142  c-7.104,4.263-9.404,13.477-5.142,20.58l25.692,42.831c26.731,44.545,72.447,75.469,123.105,83.258  c-9.402,15.775-18.943,34.787-18.943,47.187c0,24.813,20.185,44.999,44.999,44.999s44.999-20.185,44.999-44.999  c0-12.4-9.542-31.413-18.943-47.187c50.659-7.789,96.375-38.715,123.105-83.258l25.692-42.831  C435.116,269.445,432.816,260.231,425.711,255.968z M256,464.824c-8.276,0-15-6.724-15-14.985c0.117-4.585,6.357-17.65,15-32.211  c8.628,14.531,14.868,27.597,15,32.196C271,458.1,264.261,464.824,256,464.824z"/>
<path style="fill:#99522E;" d="M271,449.825c0,8.276-6.738,15-15,15v29.999c24.813,0,44.999-20.185,44.999-44.999  c0-12.4-9.542-31.413-18.943-47.187c50.659-7.789,96.375-38.715,123.105-83.258l25.692-42.831c4.263-7.104,1.963-16.318-5.142-20.58  c-7.119-4.277-16.333-1.948-20.58,5.142l-25.692,42.83C353.571,347.05,306.272,374.827,256,374.827v42.802  C264.627,432.159,270.868,445.225,271,449.825z"/>
<path style="fill:#FDB455;" d="M510.493,262.229c-20.999-42.298-64.598-68.397-111.697-68.397H113.204  c-47.099,0-90.697,26.099-111.697,68.397c-2.1,4.501-2.1,10.201,0.601,14.401c2.999,4.499,7.8,7.2,12.9,7.2h481.986  c5.099,0,9.901-2.701,12.9-7.2C512.593,272.43,512.593,266.73,510.493,262.229z"/>
<path style="fill:#FF9800;" d="M509.892,276.63c-2.999,4.499-7.8,7.2-12.9,7.2H255.999v-89.997h142.796  c47.099,0,90.697,26.099,111.697,68.397C512.593,266.73,512.593,272.43,509.892,276.63z"/>
<g>
</g>
<g>
</g>
<g>
</g>
<g>
</g>
<g>
</g>
<g>
</g>
<g>
</g>
<g>
</g>
<g>
</g>
<g>
</g>
<g>
</g>
<g>
</g>
<g>
</g>
<g>
</g>
<g>
</g>
</svg>
