<?xml version="1.0" encoding="iso-8859-1"?>
<!-- Generator: Adobe Illustrator 19.0.0, SVG Export Plug-In . SVG Version: 6.00 Build 0)  -->
<svg xmlns="http://www.w3.org/2000/svg" xmlns:xlink="http://www.w3.org/1999/xlink" version="1.1" id="Capa_1" x="0px" y="0px" viewBox="0 0 512 512" style="enable-background:new 0 0 512 512;" xml:space="preserve">
<path style="fill:#C7C5CC;" d="M418.357,400.917c0.23-7.534,0.397-19.174-0.052-33.687v-0.073  c-1.045-34.116-5.475-84.051-20.396-133.537c-15.234-50.52-29.32-90.101-49.841-119.076c-11.327-16.008-24.001-27.982-37.888-36.258  c-16.426-9.812-34.555-14.44-54.178-14.44c-36.237,0-67.322,15.851-92.159,50.813c-23.176,32.611-34.607,68.67-49.841,119.274  c-14.879,49.423-19.289,99.192-20.334,133.224c-0.439,14.555-0.261,26.216-0.031,33.76H45.184c0.533-7.335,1.536-19.007,3.26-33.76  c4.065-34.764,12.194-86.642,27.982-139.075c16.029-53.269,36.717-95.9,61.481-126.714c23.552-29.288,50.855-48.128,81.522-56.309  h0.01c11.703-3.114,23.897-4.681,36.561-4.681c45.829,0,85.556,20.522,118.094,60.99c24.764,30.814,45.453,73.445,61.481,126.714  c15.788,52.433,23.918,104.312,27.982,139.075c0,0.021,0.01,0.052,0.01,0.073c1.714,14.723,2.717,26.363,3.25,33.687H418.357z"/>
<g>
	<path style="fill:#AEAEAF;" d="M418.357,400.917c0.23-7.534,0.397-19.174-0.052-33.687h45.265   c1.714,14.723,2.717,26.363,3.25,33.687H418.357z"/>
	<path style="fill:#AEAEAF;" d="M310.18,78.285c-16.426-9.812-34.555-14.44-54.178-14.44c-8.14,0-16.008,0.805-23.615,2.435   c-26.269,5.642-49.288,21.264-68.545,48.378c-23.176,32.611-34.607,68.67-49.841,119.274   c-14.054,46.665-18.766,93.643-20.125,127.383c-0.084,1.996-0.146,3.939-0.209,5.841c-0.428,14.357-0.261,25.903-0.042,33.447   c0,0.105,0.01,0.209,0.01,0.313H45.185c0.01-0.104,0.01-0.209,0.021-0.313c0.543-7.356,1.536-18.902,3.239-33.447   c0.219-1.902,0.46-3.845,0.7-5.841c4.274-34.586,12.351-83.664,27.282-133.234c16.029-53.269,36.717-95.9,61.481-126.714   c14.639-18.202,30.741-32.381,48.19-42.454c10.616-6.144,21.723-10.762,33.332-13.855h0.01   C273.63,48.213,308.695,77.052,310.18,78.285z"/>
</g>
<g>
	<path style="fill:#9F9FA0;" d="M93.648,367.843H48.366c-1.654,14.219-2.625,25.521-3.16,32.76c-0.01,0.105-0.01,0.209-0.021,0.313   h48.452c0-0.104-0.01-0.209-0.01-0.313C93.41,393.181,93.246,381.879,93.648,367.843z"/>
	<path style="fill:#9F9FA0;" d="M310.18,78.285c-16.426-9.806-34.555-14.441-54.179-14.441c-8.14,0-16.008,0.804-23.615,2.438   c-16.927-4.724-33.51-6.654-46.29-7.368c10.616-6.145,21.723-10.761,33.332-13.852h0.01   C273.63,48.214,308.697,77.052,310.18,78.285z"/>
</g>
<rect x="7.839" y="392.848" style="fill:#F4F4F4;" width="496.324" height="78.785"/>
<rect x="189.125" y="420.046" style="fill:#C7C5CC;" width="133.746" height="51.576"/>
<path style="fill:#008B48;" d="M117.552,471.637H7.839v-78.785h11.494c13.521,4.65,50.197,19.78,77.28,48.796  C104.752,450.363,112.035,460.331,117.552,471.637z"/>
<path style="fill:#008040;" d="M96.613,441.649c8.14,8.714,15.423,18.683,20.94,29.988H7.839v-29.988H96.613z"/>
<path style="fill:#008B48;" d="M504.162,392.852v78.785H394.449c5.517-11.306,12.8-21.274,20.94-29.988  c27.084-29.017,63.759-44.147,77.28-48.796L504.162,392.852L504.162,392.852z"/>
<path style="fill:#008040;" d="M504.162,441.649v29.988H394.449c5.517-11.306,12.8-21.274,20.94-29.988H504.162z"/>
<rect x="172.407" y="392.848" style="fill:#C7C5CC;" width="167.183" height="27.199"/>
<path d="M152.178,240.805h40.517c4.329,0,7.837-3.509,7.837-7.837c0-4.328-3.508-7.837-7.837-7.837h-40.517  c-4.329,0-7.837,3.509-7.837,7.837C144.341,237.296,147.849,240.805,152.178,240.805z"/>
<path d="M422.305,100.59h40.517c4.329,0,7.837-3.509,7.837-7.837c0-4.328-3.508-7.837-7.837-7.837h-40.517  c-4.329,0-7.837,3.509-7.837,7.837C414.469,97.081,417.978,100.59,422.305,100.59z"/>
<path d="M219.43,240.805h19.809c4.329,0,7.837-3.509,7.837-7.837c0-4.328-3.508-7.837-7.837-7.837H219.43  c-4.329,0-7.837,3.509-7.837,7.837C211.594,237.296,215.101,240.805,219.43,240.805z"/>
<path d="M330.235,286.353h19.809c4.329,0,7.837-3.509,7.837-7.837s-3.508-7.837-7.837-7.837h-19.809  c-4.329,0-7.837,3.509-7.837,7.837S325.906,286.353,330.235,286.353z"/>
<path d="M509.705,387.31c-1.47-1.47-3.463-2.296-5.542-2.296h-30.821c-3.218-34.127-11.223-95.952-30.258-159.188  c-11.257-37.398-24.811-69.701-40.468-96.515h57.142c4.329,0,7.837-3.509,7.837-7.837c0-4.328-3.508-7.837-7.837-7.837h-66.96  c-4.075-6.066-8.273-11.8-12.598-17.18c-34.094-42.417-75.881-63.924-124.201-63.924c-43.937,0-82.47,17.788-114.732,52.905  c-0.869-0.333-1.81-0.523-2.797-0.523H57.635c-4.329,0-7.837,3.509-7.837,7.837c0,4.328,3.508,7.837,7.837,7.837h70.929  c-23.965,31.224-44.021,73.317-59.649,125.237c-19.034,63.236-27.04,125.061-30.258,159.188H7.843c-4.328,0-7.837,3.508-7.837,7.837  L0,471.629c0,2.078,0.825,4.072,2.295,5.542c1.47,1.47,3.463,2.296,5.542,2.296H504.16c4.328,0,7.837-3.509,7.837-7.837L512,392.852  C512,390.773,511.175,388.78,509.705,387.31z M367.985,106.278c24.132,30.023,44.349,71.765,60.093,124.065  c18.391,61.098,26.277,120.909,29.521,154.671h-31.174c-0.01-33.954-3.067-94.15-21.013-153.654  c-16.027-53.139-30.14-91.973-50.944-121.343c-11.608-16.387-24.839-29.068-39.596-38.019c-3.106-2.536-17.239-13.476-39.869-22.478  C310.422,54.468,341.633,73.491,367.985,106.278z M83.924,230.343c15.742-52.301,35.961-94.042,60.093-124.065  c22.128-27.53,47.679-45.357,76.271-53.297c8.659,0.577,16.796,1.835,24.347,3.538c-34.846,3.173-64.135,21.162-87.185,53.6  c-22.36,31.466-34.149,66.552-46.193,105.845c-1.268,4.138,1.058,8.521,5.196,9.79c4.135,1.265,8.521-1.057,9.79-5.196  c13.795-45.008,24.89-74.491,43.983-101.36c22.721-31.976,50.78-47.52,85.777-47.52c18.418,0,34.892,4.286,49.66,12.972  c0.352,0.25,0.716,0.469,1.093,0.654c12.903,7.825,24.493,19.047,34.923,33.772c19.573,27.632,33.155,65.18,48.727,116.808  c17.388,57.652,20.341,116.138,20.348,149.129h-26.58c-4.329,0-7.837,3.509-7.837,7.837s3.508,7.837,7.837,7.837h72.244  c-5.93,3.285-12.221,7.115-18.576,11.526h-90.413v-11.526h5.747c4.329,0,7.837-3.509,7.837-7.837s-3.508-7.837-7.837-7.837h-13.584  H101.24c0.005-30.098,2.476-82.458,16.578-135.771c1.107-4.184-1.389-8.473-5.572-9.58c-4.182-1.11-8.473,1.389-9.581,5.572  c-14.53,54.933-17.088,108.804-17.099,139.778H54.402C57.647,351.252,65.532,291.442,83.924,230.343z M330.71,463.792v-10.13h65.098  c-2.182,3.245-4.23,6.624-6.127,10.13H330.71z M408.132,437.988H330.71v-10.101h8.882h78.586  C414.73,431.059,411.364,434.424,408.132,437.988z M122.321,463.792c-1.898-3.507-3.947-6.885-6.127-10.13h65.098v10.13H122.321z   M103.87,437.988c-3.233-3.564-6.598-6.93-10.047-10.101h78.586h8.882v10.101H103.87z M164.573,400.688v11.526H74.16  c-6.355-4.412-12.646-8.241-18.576-11.526H164.573z M331.755,412.214h-8.882H189.127h-8.882v-11.526h151.509V412.214z   M196.964,427.887h118.073v10.101H196.964L196.964,427.887L196.964,427.887z M15.679,400.688h2.319  c12.739,4.531,60.51,23.64,86.114,63.104H15.674L15.679,400.688z M196.964,463.792v-10.13h118.073v10.13H196.964z M496.324,463.792  h-88.432c25.604-39.466,73.378-58.575,86.115-63.104h2.321L496.324,463.792z"/>
<g>
</g>
<g>
</g>
<g>
</g>
<g>
</g>
<g>
</g>
<g>
</g>
<g>
</g>
<g>
</g>
<g>
</g>
<g>
</g>
<g>
</g>
<g>
</g>
<g>
</g>
<g>
</g>
<g>
</g>
</svg>
