<?xml version="1.0" encoding="iso-8859-1"?>
<!-- Generator: Adobe Illustrator 19.0.0, SVG Export Plug-In . SVG Version: 6.00 Build 0)  -->
<svg xmlns="http://www.w3.org/2000/svg" xmlns:xlink="http://www.w3.org/1999/xlink" version="1.1" id="Capa_1" x="0px" y="0px" viewBox="0 0 512.003 512.003" style="enable-background:new 0 0 512.003 512.003;" xml:space="preserve">
<g>
	<path style="fill:#DBC1A2;" d="M187,180.598l-1.495,15.551l-2.175,22.579l-0.112,1.193l-5.556,57.819l-0.804,8.4l-1.918,19.924   v0.011l-2.175,22.579l-0.112,1.193l-5.556,57.808h-0.011l-0.804,8.411l-1.918,19.924l-2.22,23.181l-0.055,0.591l-2.967,30.856   l-3.224,33.544h192.701l1.45-15.182l2.967-30.856l0.055-0.591l2.231-23.181l2.733-28.335l5.556-57.819l0.558-5.857l0.357-3.671   l1.372-14.246l1.908-19.935l0.814-8.388l5.556-57.83l0.112-1.193l2.175-22.568V214.5l1.495-15.551L187,180.598z"/>
	<path style="fill:#DBC1A2;" d="M187,180.587v0.011l-1.495,15.551l-2.175,22.579l-0.112,1.193l-5.556,57.819l-0.804,8.4   l-1.918,19.924v0.011l-2.175,22.579l-0.112,1.193l-5.556,57.808h-0.011l-0.804,8.411l-1.918,19.924l-2.22,23.181l-0.055,0.591   l-2.967,30.856l-3.224,33.544h192.701l1.45-15.182l2.967-30.856l0.055-0.591l2.231-23.181l2.733-28.336l5.556-57.819l0.558-5.857   l0.357-3.671l1.372-14.246l1.908-19.935l0.814-8.388l5.556-57.83l0.112-1.193l2.175-22.568v-0.012l1.495-15.551L187,180.587z"/>
</g>
<g>
	
		<rect x="173.354" y="315.194" transform="matrix(-0.9954 -0.0957 0.0957 -0.9954 505.9749 678.5394)" style="fill:#BAA288;" width="191.81" height="23.884"/>
	
		<rect x="162.779" y="425.113" transform="matrix(-0.9954 -0.0957 0.0957 -0.9954 474.3532 896.8597)" style="fill:#BAA288;" width="191.81" height="23.884"/>
	
		<rect x="183.919" y="205.27" transform="matrix(-0.9954 -0.0957 0.0957 -0.9954 537.5765 460.2057)" style="fill:#BAA288;" width="191.81" height="23.884"/>
	<polygon style="fill:#BAA288;" points="350.048,488.981 348.588,504.164 155.898,504.164 159.122,470.619 181.265,472.75    206.745,475.204 241.851,478.573 267.32,481.027 302.426,484.396 327.905,486.85  "/>
	<path style="fill:#BAA288;" d="M259.582,294.089l-35.1-3.374l4.852-50.471c0.932-9.692,9.545-16.795,19.238-15.863l0,0   c9.692,0.932,16.795,9.545,15.863,19.238L259.582,294.089z"/>
	<path style="fill:#BAA288;" d="M320.16,299.912l-35.1-3.374l4.853-50.471c0.932-9.692,9.545-16.795,19.238-15.863l0,0   c9.692,0.932,16.795,9.545,15.863,19.238L320.16,299.912z"/>
	<path style="fill:#BAA288;" d="M374.264,237.083l-6.48,67.411l-22.149-2.13l4.853-50.478c0.932-9.69,9.539-16.787,19.241-15.854   C371.315,236.185,372.833,236.548,374.264,237.083z"/>
	<path style="fill:#BAA288;" d="M183.334,218.728l-6.48,67.411l22.149,2.129l4.852-50.478c0.932-9.69-6.166-18.297-15.868-19.229   C186.4,218.408,184.84,218.475,183.334,218.728z"/>
</g>
<g>
	
		<rect x="159.262" y="286.853" transform="matrix(-0.9954 -0.0957 0.0957 -0.9954 513.4569 626.7943)" style="fill:#DBC1A2;" width="224.995" height="28.463"/>
	
		<rect x="169.826" y="176.928" transform="matrix(-0.9954 -0.0957 0.0957 -0.9954 545.0564 408.4605)" style="fill:#DBC1A2;" width="224.995" height="28.463"/>
</g>
<rect id="SVGCleanerId_0" x="218.152" y="70.511" transform="matrix(-0.9954 -0.0957 0.0957 -0.9954 564.424 274.8164)" style="fill:#DBC1A2;" width="141.3" height="106.725"/>
<g>
	
		<rect id="SVGCleanerId_0_1_" x="218.152" y="70.511" transform="matrix(-0.9954 -0.0957 0.0957 -0.9954 564.424 274.8164)" style="fill:#DBC1A2;" width="141.3" height="106.725"/>
</g>
<g>
	
		<rect x="220.608" y="86.322" transform="matrix(-0.9954 -0.0957 0.0957 -0.9954 571.7742 223.9516)" style="fill:#BAA288;" width="141.3" height="23.884"/>
	<path style="fill:#BAA288;" d="M270.957,175.77l-35.1-3.374l4.852-50.471c0.932-9.692,9.545-16.795,19.238-15.863l0,0   c9.692,0.932,16.795,9.545,15.863,19.238L270.957,175.77z"/>
	<path style="fill:#BAA288;" d="M331.535,181.595l-35.1-3.374l4.853-50.471c0.932-9.692,9.545-16.795,19.238-15.863l0,0   c9.692,0.932,16.795,9.545,15.863,19.238L331.535,181.595z"/>
</g>
<rect x="207.819" y="57.982" transform="matrix(-0.9954 -0.0957 0.0957 -0.9954 579.2624 172.2078)" style="fill:#DBC1A2;" width="171.884" height="28.463"/>
<g>
	<path style="fill:#BAA288;" d="M249.015,404.012l-35.1-3.374l4.852-50.471c0.932-9.692,9.545-16.795,19.238-15.863l0,0   c9.692,0.932,16.795,9.545,15.863,19.238L249.015,404.012z"/>
	<path style="fill:#BAA288;" d="M309.593,409.835l-35.1-3.374l4.853-50.471c0.932-9.692,9.545-16.795,19.238-15.863l0,0   c9.692,0.932,16.795,9.545,15.863,19.238L309.593,409.835z"/>
	<path style="fill:#BAA288;" d="M363.697,347.006l-6.48,67.411l-22.149-2.129l4.853-50.478c0.932-9.69,9.539-16.787,19.241-15.854   C360.748,346.108,362.266,346.471,363.697,347.006z"/>
	<path style="fill:#BAA288;" d="M172.767,328.651l-6.48,67.411l22.149,2.129l4.852-50.478c0.932-9.69-6.166-18.297-15.868-19.229   C175.833,328.331,174.273,328.398,172.767,328.651z"/>
</g>
<rect x="148.697" y="396.771" transform="matrix(-0.9954 -0.0957 0.0957 -0.9954 481.856 845.1155)" style="fill:#DBC1A2;" width="224.995" height="28.463"/>
<g>
	<path style="fill:#BAA288;" d="M239.386,504.164l2.465-25.591l0.837-8.701l0.558-5.801c0.055-0.568,0.078-1.138,0.078-1.696   c0-6.771-3.86-12.796-9.672-15.729c-1.896-0.971-4.016-1.596-6.269-1.818c-2.254-0.212-4.44,0-6.493,0.591   c-6.794,1.918-12.037,7.82-12.751,15.272l-0.558,5.812l-0.837,8.701l-2.789,28.959L239.386,504.164L239.386,504.164z"/>
	<path style="fill:#BAA288;" d="M303.898,468.198c0,0.558-0.022,1.126-0.078,1.696l-0.558,5.801l-0.837,8.701l-1.896,19.767h-35.43   l2.22-23.137l0.837-8.701l0.558-5.812c0.714-7.441,5.957-13.353,12.739-15.272c2.052-0.591,4.251-0.804,6.503-0.591   c2.254,0.224,4.373,0.847,6.269,1.818C300.039,455.403,303.898,461.427,303.898,468.198z"/>
	<path style="fill:#BAA288;" d="M353.072,457.534l-0.055,0.591l-2.967,30.856l-1.462,15.182h-22.344l1.662-17.313l1.395-14.514   c0.714-7.441,5.968-13.353,12.751-15.272c2.042-0.58,4.239-0.792,6.481-0.58C350.127,456.63,351.644,456.999,353.072,457.534z"/>
	<path style="fill:#BAA288;" d="M182.66,458.237l-0.558,5.812l-0.837,8.701l-3.023,31.414h-22.344l3.224-33.544l2.967-30.856   l0.055-0.591c1.506-0.246,3.068-0.312,4.652-0.167c2.254,0.212,4.351,0.847,6.247,1.808c0,0.011,0.011,0.011,0.011,0.011   C179.358,443.991,183.385,450.796,182.66,458.237z"/>
</g>
<path d="M401.665,496.327h-44.441l5.136-53.427l8.71,0.837c0.251,0.024,0.5,0.036,0.75,0.036c1.811,0,3.576-0.628,4.985-1.79  c1.604-1.323,2.616-3.228,2.815-5.297l2.724-28.33c0.414-4.308-2.743-8.137-7.051-8.551l-8.711-0.837l6.344-65.991l8.711,0.837  c0.255,0.024,0.508,0.037,0.76,0.037c3.99,0,7.402-3.034,7.792-7.088l2.724-28.33c0.199-2.069-0.433-4.133-1.754-5.735  c-1.323-1.604-3.228-2.616-5.297-2.815l-8.711-0.838l6.344-65.991l8.711,0.838c0.251,0.024,0.5,0.036,0.75,0.036  c1.811,0,3.576-0.628,4.985-1.79c1.604-1.323,2.616-3.228,2.815-5.297l2.724-28.33c0.414-4.308-2.743-8.137-7.051-8.551  l-33.856-3.255l2.645-27.506c0.001-0.01,0.003-0.02,0.004-0.03c0.001-0.009,0-0.019,0.001-0.029l4.562-47.453l7.422,0.714  c0.255,0.024,0.508,0.037,0.76,0.037c3.99,0,7.402-3.034,7.792-7.088l2.724-28.329l1.645-17.105c0.414-4.308-2.743-8.137-7.051-8.55  c-4.31-0.422-8.137,2.743-8.551,7.051l-0.894,9.304l-12.961-1.246l0.894-9.304c0.414-4.308-2.743-8.137-7.051-8.55  c-4.307-0.417-8.137,2.743-8.551,7.051l-0.894,9.304l-12.961-1.246L333,44.423c0.414-4.308-2.743-8.137-7.051-8.55  c-4.304-0.421-8.137,2.743-8.551,7.051l-0.894,9.304l-13.728-1.32l4.068-42.319c0.414-4.308-2.743-8.137-7.051-8.55  c-4.303-0.421-8.137,2.743-8.55,7.051l-4.069,42.319l-11.916-1.145l0.894-9.304c0.414-4.308-2.743-8.137-7.051-8.55  c-4.309-0.421-8.137,2.743-8.551,7.051l-0.894,9.304l-12.961-1.246l0.894-9.304c0.414-4.308-2.743-8.137-7.051-8.55  c-4.306-0.417-8.137,2.743-8.551,7.051l-0.894,9.304l-12.961-1.246l0.894-9.304c0.414-4.308-2.743-8.137-7.051-8.55  c-4.303-0.421-8.137,2.743-8.551,7.051l-1.645,17.105l-2.723,28.33c-0.414,4.308,2.743,8.137,7.051,8.55l7.42,0.714l-4.563,47.472  c0,0.003-0.001,0.006-0.001,0.01c0,0.004,0,0.007,0,0.01l-2.646,27.526l-33.854-3.255c-4.306-0.41-8.137,2.743-8.55,7.051  l-2.724,28.329c-0.414,4.308,2.743,8.137,7.051,8.55l8.715,0.838l-1.42,14.779v0.001l-4.924,51.212l-8.715-0.838  c-4.307-0.412-8.137,2.743-8.55,7.051l-2.724,28.329c-0.414,4.308,2.743,8.137,7.051,8.55l8.719,0.838l-1.418,14.746  c-0.001,0.012-0.005,0.023-0.006,0.034l-4.924,51.212l-8.715-0.838c-4.309-0.414-8.137,2.743-8.55,7.051l-2.724,28.329  c-0.414,4.308,2.743,8.137,7.051,8.55l8.711,0.838l-7.038,73.283h-38.439c-4.328,0-7.837,3.509-7.837,7.837  c0,4.328,3.509,7.837,7.837,7.837h291.327c4.328,0,7.837-3.509,7.837-7.837C409.502,499.838,405.994,496.327,401.665,496.327z   M169.203,447.657c0.038,0.018,0.075,0.036,0.112,0.053c0.095,0.052,0.192,0.102,0.289,0.15c3.531,1.811,5.64,5.664,5.254,9.628  l-3.735,38.839h-6.6L169.203,447.657z M196.837,496.327h-9.968l2.282-23.726l9.877,0.95L196.837,496.327z M215.375,467.314  c0.002-0.022,0.007-0.043,0.009-0.064c0.002-0.021,0.001-0.041,0.003-0.061l0.554-5.75c0.388-4.045,3.167-7.373,7.119-8.49  c1.141-0.328,2.349-0.436,3.55-0.324c1.256,0.124,2.424,0.46,3.511,1.016c3.31,1.671,5.367,5.018,5.367,8.733  c0,0.342-0.014,0.655-0.043,0.946l-0.552,5.733c-0.002,0.024-0.008,0.046-0.01,0.07c-0.002,0.024-0.001,0.047-0.003,0.071  l-2.612,27.132h-19.685L215.375,467.314z M341.469,496.327h-6.601l2.233-23.242c0.381-3.982,3.228-7.389,7.092-8.482  c0.112-0.031,0.224-0.062,0.337-0.089L341.469,496.327z M319.123,496.327h-9.968l1.16-12.078l9.877,0.95L319.123,496.327z   M296.02,469.145l-0.555,5.78c-0.001,0.007-0.003,0.015-0.003,0.023c-0.001,0.007,0,0.016-0.001,0.023l-2.051,21.356h-19.684  l2.224-23.152c0.004-0.034,0.011-0.067,0.015-0.101c0.003-0.032,0.002-0.064,0.004-0.096l0.549-5.715  c0.389-4.046,3.164-7.375,7.107-8.49c1.143-0.329,2.354-0.438,3.563-0.324c1.255,0.124,2.422,0.459,3.51,1.016  c3.31,1.671,5.367,5.018,5.367,8.733C296.062,468.543,296.047,468.854,296.02,469.145z M257.979,496.327h-9.966l1.723-17.901  l9.87,0.949L257.979,496.327z M179.829,337.13c1.329,0.608,2.512,1.513,3.468,2.672c1.662,2.016,2.441,4.559,2.19,7.162  l-3.296,34.279l-6.543-0.629L179.829,337.13z M199.78,362.077l9.877,0.95l-1.986,20.665l-9.877-0.95L199.78,362.077z   M246.067,352.791l-3.296,34.275l-19.499-1.875l2.736-28.45c0-0.005,0.002-0.01,0.002-0.016c0-0.005,0-0.01,0.001-0.015l0.557-5.794  c0.517-5.376,5.317-9.328,10.687-8.812C242.63,342.621,246.583,347.415,246.067,352.791z M260.36,367.901l9.875,0.95l-1.986,20.666  l-9.875-0.95L260.36,367.901z M306.644,358.615l-3.295,34.275l-19.499-1.875l2.736-28.461c0-0.002,0.001-0.003,0.001-0.005  s0-0.003,0-0.005l0.558-5.803c0.517-5.376,5.305-9.322,10.687-8.813C303.208,348.446,307.161,353.24,306.644,358.615z   M320.938,373.724l9.873,0.95l-1.986,20.666l-9.873-0.949L320.938,373.724z M350.972,397.468l-6.547-0.629l3.296-34.278  c0.409-4.25,3.496-7.61,7.431-8.571L350.972,397.468z M190.393,227.204c1.329,0.609,2.514,1.514,3.47,2.674  c1.662,2.016,2.441,4.559,2.19,7.162l-3.296,34.279l-6.545-0.629L190.393,227.204z M210.347,252.153l9.878,0.95l-1.986,20.665  l-9.877-0.95L210.347,252.153z M237.136,240.994c0.25-2.604,1.499-4.955,3.518-6.619c2.019-1.665,4.564-2.447,7.168-2.192  c2.605,0.25,4.955,1.499,6.619,3.518c1.665,2.019,2.443,4.564,2.193,7.168l-3.296,34.275l-19.499-1.875L237.136,240.994z   M270.927,257.976l9.876,0.95l-1.986,20.666l-9.876-0.95L270.927,257.976z M317.211,248.692l-3.295,34.275l-19.499-1.875  l3.296-34.275c0.517-5.376,5.291-9.327,10.686-8.813c2.604,0.251,4.955,1.5,6.619,3.519  C316.683,243.542,317.462,246.088,317.211,248.692z M331.505,263.801l9.874,0.95l-1.986,20.666l-9.874-0.949L331.505,263.801z   M358.288,252.637c0.25-2.603,1.498-4.951,3.514-6.613c1.16-0.957,2.495-1.62,3.917-1.963l-4.181,43.484l-6.546-0.629  L358.288,252.637z M223.814,143.449l6.889,0.662l-1.898,19.735l-6.889-0.662L223.814,143.449z M244.407,165.345l2.647-27.526  c0-0.003,0.001-0.007,0.001-0.01s0-0.006,0-0.009l1.454-15.124c0.517-5.376,5.313-9.333,10.686-8.812  c2.605,0.25,4.955,1.499,6.619,3.518s2.443,4.564,2.193,7.168l-1.454,15.13c0,0.001,0,0.003-0.001,0.004  c-0.001,0.001,0,0.003,0,0.004l-2.647,27.532l-5.517-0.531l-13.341-1.283L244.407,165.345z M328.587,130.374l-1.454,15.123  c0,0.004-0.001,0.007-0.002,0.011c-0.001,0.004,0,0.007,0,0.012l-2.647,27.525l-19.499-1.875l4.102-42.669  c0.516-5.376,5.293-9.328,10.686-8.813C325.15,120.204,329.103,124.998,328.587,130.374z M289.384,169.669l-9.876-0.95l1.898-19.735  l9.876,0.95L289.384,169.669z M340.086,174.544l1.898-19.735l6.886,0.661l-1.898,19.735L340.086,174.544z M370.906,86.049  L215.408,71.1l1.224-12.729l20.755,1.996c0.002,0,0.004,0.001,0.007,0.001c0.002,0,0.005,0,0.007,0l28.55,2.745  c0.002,0,0.003,0.001,0.005,0.001c0.002,0,0.004,0,0.005,0l56.837,5.465c0.002,0,0.003,0.001,0.005,0.001s0.003,0,0.005,0  l28.555,2.745c0.001,0,0.002,0,0.003,0s0.002,0,0.003,0l20.759,1.996L370.906,86.049z M354.184,100.188l-3.815,39.681l-6.886-0.661  l0.705-7.332c1.344-13.979-8.936-26.444-22.915-27.789c-6.773-0.649-13.391,1.374-18.64,5.702  c-5.248,4.328-8.497,10.441-9.148,17.213l-0.705,7.333l-9.875-0.95l0.705-7.333c0.651-6.771-1.374-13.391-5.702-18.64  c-4.328-5.249-10.441-8.497-17.213-9.148c-13.979-1.337-26.444,8.936-27.788,22.914l-0.705,7.333l-6.889-0.662l3.815-39.681  L354.184,100.188z M178.764,174.78l56.34,5.417c0.001,0,0.002,0,0.003,0l12.104,1.163l48.468,4.659c0.002,0,0.005,0.001,0.007,0.001  l20.244,1.946l37.344,3.59c0.002,0,0.004,0,0.005,0l33.85,3.255l-1.224,12.729l-208.366-20.032L178.764,174.78z M367.892,221.555  l-0.632,6.576c-5.629,0.16-11.013,2.162-15.426,5.799c-4.731,3.898-7.829,9.252-8.872,15.227l-10.041-0.965  c0.114-6.065-1.909-11.909-5.809-16.639c-4.328-5.249-10.441-8.497-17.213-9.149c-6.776-0.652-13.391,1.374-18.64,5.702  c-4.73,3.901-7.828,9.253-8.873,15.228l-10.045-0.965c0.114-6.065-1.909-11.91-5.809-16.639c-4.328-5.249-10.441-8.497-17.213-9.148  c-6.774-0.654-13.391,1.373-18.64,5.702c-4.73,3.901-7.828,9.253-8.873,15.227l-10.047-0.965c0.115-6.066-1.908-11.91-5.809-16.639  c-3.636-4.408-8.538-7.398-14.03-8.63l0.632-6.578L367.892,221.555z M168.196,284.704l208.366,20.032l-1.224,12.729l-208.366-20.032  L168.196,284.704z M357.324,331.478l-0.632,6.578c-11.975,0.353-22.208,9.129-24.296,21.025l-10.044-0.966  c0.234-13.148-9.712-24.508-23.019-25.788c-13.306-1.275-25.235,7.979-27.511,20.93l-10.047-0.965  c0.234-13.148-9.712-24.508-23.019-25.788c-13.307-1.276-25.236,7.978-27.511,20.929l-10.048-0.966  c0.115-6.066-1.908-11.91-5.809-16.639c-3.636-4.407-8.537-7.397-14.027-8.629l0.632-6.578L357.324,331.478z M157.629,394.627  l208.366,20.032l-1.224,12.729l-208.366-20.032L157.629,394.627z M346.755,441.401l-0.693,7.204  c-2.085,0.062-4.145,0.353-6.146,0.921c-9.532,2.697-16.476,10.463-18.15,20.08l-10.042-0.965c0.002-0.148,0.01-0.288,0.01-0.44  c0-9.665-5.355-18.372-13.937-22.705c-2.802-1.435-5.853-2.324-9.106-2.645c-3.204-0.302-6.371-0.011-9.372,0.853  c-9.525,2.694-16.465,10.459-18.139,20.078l-10.031-0.964c0.002-0.147,0.01-0.29,0.01-0.44c0-9.665-5.355-18.372-13.939-22.706  c-2.801-1.434-5.851-2.322-9.106-2.645c-3.202-0.299-6.362-0.009-9.356,0.852c-9.534,2.693-16.479,10.458-18.153,20.079  l-10.035-0.964c0.159-9.547-5.162-18.588-13.708-23.022c-0.092-0.051-0.186-0.101-0.281-0.149c-1.869-0.946-3.833-1.625-5.857-2.082  l0.691-7.194L346.755,441.401z"/>
<g>
</g>
<g>
</g>
<g>
</g>
<g>
</g>
<g>
</g>
<g>
</g>
<g>
</g>
<g>
</g>
<g>
</g>
<g>
</g>
<g>
</g>
<g>
</g>
<g>
</g>
<g>
</g>
<g>
</g>
</svg>
