<?xml version="1.0" encoding="iso-8859-1"?>
<!-- Generator: Adobe Illustrator 19.0.0, SVG Export Plug-In . SVG Version: 6.00 Build 0)  -->
<svg xmlns="http://www.w3.org/2000/svg" xmlns:xlink="http://www.w3.org/1999/xlink" version="1.1" id="Capa_1" x="0px" y="0px" viewBox="0 0 512 512" style="enable-background:new 0 0 512 512;" xml:space="preserve">
<path style="fill:#C4AE97;" d="M497.613,157.77l-24.367,132.744l-14.409,78.545l-18.317,7.45l-8.161,34.586l-6.802,28.839  l-63.634,5.11l-85.076,6.823l11.452-36.331l-0.094-0.261l-7.899-23.448l19.132-28.369l-41.514-8.349  c-12.372-2.727-17.063-17.899-8.401-27.136c12.288-13.103,35.244-29.947,57.292-47.073c13.061-10.146,24.252-19.372,33.761-27.564  c32.737-28.285,45.38-44.419,45.38-44.419l-22.57-39.894l45.735-51.649c10.031-11.306,26.018-15.245,40.145-9.864l25.537,9.728  C491.187,123.476,500.779,140.519,497.613,157.77z"/>
<g>
	<path style="fill:#AD9786;" d="M446.963,251.445l-65.689,149.532c-34.518-1.17-69.035,6.847-93.069,14.297l0.094,0.261   l-11.452,36.331l85.076-6.823l57.426-4.611l6.206-0.497v-0.001h0.003l6.802-28.839c-0.001,0-0.001,0-0.002-0.001l8.158-34.583   l18.323-7.454l14.412-78.54L446.963,251.445z"/>
	<path style="fill:#AD9786;" d="M432.815,206.048l-21.026,15.332l-48.341,38.273l-22.875-6.317   c32.744-28.285,45.388-44.415,45.388-44.415l-22.57-39.894l44.467,10.172c8.43,1.53,15.608,7.037,19.268,14.785L432.815,206.048z"/>
	<path style="fill:#AD9786;" d="M299.428,363.465L299.428,363.465c9.192,2.247,18.763-1.971,23.248-10.303   c6.382-11.859,16.903-27.768,30.015-34.218c0,0-13.222,33.353-12.026,43.482c1.196,10.129-17.426,46.43-56.964,24.37   L299.428,363.465z"/>
	<path style="fill:#AD9786;" d="M224.769,429.976c-1.442,11.849-4.629,24.388-10.397,37.125l-29.111-1.923l-81.899-5.392   c0,0,2.247-15.088,1.755-33.928c-0.199-7.952-0.888-16.572-2.435-25.015c-2.612-14.315-7.701-28.097-17.084-37.188l125.377-13.082   C210.977,350.575,230.203,385.453,224.769,429.976z"/>
</g>
<path style="fill:#9E8878;" d="M210.982,350.575L85.605,363.657c9.383,9.091,14.472,22.873,17.084,37.188l73.676-11.975  c0,0,9.663,13.024,10.111,49.238c-7.344,0.36-14.425-0.222-20.681-2.238c-21.567-6.959-46.613-9.258-60.677-10.01  c0.491,18.84-1.755,33.928-1.755,33.928l81.899,5.392l15.373,1.016l0,0l13.743,0.908  C241.806,406.497,210.982,350.575,210.982,350.575z"/>
<path style="fill:#C4AE97;" d="M231.504,60.072l-0.272,134.969l-0.157,79.851l-16.697,10.606l-3.396,65.076l-61.701,16.384  L66.796,388.87l4.775-37.794l-12.089-21.901l13.751-31.326l-42.329-0.805c-12.664-0.481-19.989-14.566-13.113-25.203  c9.749-15.088,29.33-35.756,47.961-56.539c11.045-12.319,20.407-23.395,28.296-33.155c27.167-33.677,36.728-51.806,36.728-51.806  l-29.33-35.224l35.777-58.984c7.847-12.915,22.873-19.644,37.731-16.875l26.864,5.016C219.058,27.482,231.534,42.539,231.504,60.072  z"/>
<g>
	<polygon style="fill:#AD9786;" points="231.232,195.042 231.074,274.893 214.378,285.498 210.982,350.575 149.281,366.959    198.391,161.291  "/>
	<path style="fill:#AD9786;" d="M176.364,119.151l-17.951,18.84l-40.73,46.289l-23.636-2.132   c27.167-33.677,36.728-51.806,36.728-51.806l-29.33-35.224l45.568,2.069c8.568,0,16.614,4.138,21.598,11.107L176.364,119.151z"/>
	<path style="fill:#AD9786;" d="M73.229,297.853L73.229,297.853c9.446,0.569,18.109-5.289,21.035-14.288   c4.163-12.807,11.674-30.34,23.422-39.027c0,0-7.055,35.179-4.069,44.931c2.985,9.752-8.856,48.795-51.696,34.149L73.229,297.853z"/>
</g>
<path style="fill:#008B48;" d="M504.165,493.339H7.838c0,0,41.023-63.53,141.458-39.205  C249.732,478.47,414.22,355.465,504.165,493.339z"/>
<path style="fill:#008040;" d="M476.527,493.339H27.085c22.403-14.461,59.528-27.376,114.375-14.096  C234.915,501.886,383.824,396.968,476.527,493.339z"/>
<path d="M379.305,313.558c1.076,0,2.17-0.223,3.215-0.694c34.682-15.63,40.491-52.566,41.462-65.021l6.875-5.024  c3.495-2.554,4.258-7.456,1.704-10.951c-2.554-3.495-7.458-4.258-10.951-1.704l-9.895,7.231c-2.019,1.474-3.212,3.823-3.213,6.323  c0,0.403-0.395,40.425-32.421,54.857c-3.946,1.778-5.703,6.419-3.925,10.364C373.463,311.84,376.317,313.558,379.305,313.558z"/>
<path d="M141.513,234.612c1.532,0,3.079-0.448,4.437-1.382c31.334-21.571,30.455-58.95,29.185-71.378l5.868-6.171  c2.982-3.137,2.858-8.097-0.279-11.08c-3.136-2.982-8.096-2.857-11.08,0.279l-8.446,8.882c-1.713,1.801-2.466,4.328-2.037,6.776  c0.285,1.624,6.655,39.987-22.101,59.783c-3.565,2.454-4.465,7.334-2.011,10.899C136.571,233.426,139.021,234.612,141.513,234.612z"/>
<path d="M436.447,427.907l10.772-45.659l14.575-5.938c2.477-1.009,4.267-3.212,4.751-5.843l38.781-211.291  c3.847-20.963-7.817-41.681-27.735-49.263l-25.54-9.723c-17.07-6.498-36.677-1.678-48.788,11.995l-45.729,51.627  c-2.197,2.464-2.591,6.197-0.968,9.07l19.869,35.115c-7.921,8.913-30.485,32.581-74.429,66.714  c-3.944,3.065-7.919,6.119-11.854,9.145c-18.421,14.161-35.82,27.538-46.338,38.754c-6.022,6.421-8.063,15.274-5.462,23.684  c2.602,8.41,9.288,14.565,17.884,16.464c0.048,0.01,0.096,0.021,0.144,0.03l29.983,6.038l-12.551,18.62  c-1.341,1.989-1.705,4.606-0.929,6.881l7.168,21.286l-5.988,19.011c-0.813,0.183-1.626,0.365-2.437,0.547  c-14.069,3.159-27.89,6.26-41.278,8.775c10.432-46.589-6.767-85.686-11.427-95.08l3.077-58.921l13.281-8.446  c2.257-1.436,3.626-3.923,3.631-6.596l0.432-214.82c0.043-21.312-15.133-39.615-36.086-43.519l-26.865-5.006  c-17.953-3.346-36.388,4.898-45.863,20.513L94.763,91.016c-1.733,2.822-1.461,6.571,0.655,9.117l25.818,31.003  c-6.203,10.185-24.179,37.5-61.323,78.932c-3.335,3.721-6.701,7.437-10.034,11.119c-15.595,17.222-30.324,33.488-38.67,46.402  c-4.778,7.393-5.206,16.469-1.145,24.277c4.062,7.811,11.739,12.673,20.537,13.007c0.049,0.002,0.098,0.003,0.147,0.004l30.58,0.588  l-9.025,20.561c-0.969,2.197-0.852,4.836,0.316,6.937l10.853,19.663l-4.452,35.261c-0.327,2.586,0.654,5.166,2.616,6.882  c1.445,1.263,3.284,1.937,5.159,1.937c0.671,0,1.347-0.087,2.01-0.262l23.166-6.152c5.046,15.999,5.828,35.604,5.191,50.731  c-26.345,1.371-46.297,8.992-60.106,16.766C12.838,471.423,1.715,488.375,1.253,489.09c-1.557,2.411-1.671,5.479-0.299,8  c1.372,2.52,4.012,4.089,6.882,4.089h496.327c2.876,0,5.521-1.576,6.891-4.104c1.37-2.529,1.244-5.605-0.327-8.014  C489.39,456.346,464,437.632,436.447,427.907z M451.904,363.415l-11.99,4.885l-5.93-1.449l17.245-95.027l13.738,20.42  L451.904,363.415z M295.72,413.033l-2.644-7.849l14.165,5.492c0.932,0.362,1.889,0.532,2.831,0.532c3.141,0,6.105-1.902,7.309-5.006  c1.565-4.035-0.438-8.575-4.473-10.14l-20.614-7.992l10.922-16.203c0.392,0.016,0.785,0.036,1.176,0.036  c10.35,0,20.123-5.619,25.186-15.026c8.417-15.637,17.854-26.61,26.574-30.9c3.884-1.911,5.484-6.608,3.573-10.492  c-1.91-3.883-6.608-5.483-10.492-3.573c-14.898,7.329-26.417,24.457-33.457,37.536c-2.786,5.174-8.746,7.81-14.486,6.404  c-0.062-0.015-0.122-0.022-0.184-0.036c-0.044-0.009-0.086-0.026-0.13-0.034l-41.419-8.341c-4.313-0.981-5.795-4.365-6.233-5.779  c-0.439-1.42-1.132-5.074,1.921-8.33c9.646-10.287,26.556-23.287,44.457-37.05c3.957-3.042,7.951-6.113,11.916-9.192  c45.421-35.28,68.442-59.477,76.781-68.937l8.419,3.08c0.889,0.325,1.798,0.479,2.693,0.479c3.196,0,6.198-1.97,7.36-5.146  c1.487-4.065-0.603-8.565-4.667-10.053l-10.847-3.969l-12.401-21.919l27.151,6.214c0.116,0.026,0.232,0.05,0.349,0.071  c5.93,1.076,11.007,4.972,13.581,10.421l5.698,12.062c1.337,2.832,4.154,4.491,7.091,4.491c1.121,0,2.261-0.241,3.343-0.753  c3.913-1.848,5.587-6.519,3.739-10.433l-5.698-12.062c-4.702-9.955-13.953-17.088-24.767-19.113l-31.428-7.193l36.984-41.754  c7.815-8.822,20.464-11.933,31.48-7.74l25.54,9.723c12.851,4.892,20.378,18.261,17.895,31.786l-9.992,54.44l-0.841-1.386  c-1.132-1.863-2.987-3.171-5.123-3.61l-10.167-2.087c-4.235-0.866-8.381,1.862-9.252,6.102c-0.87,4.24,1.862,8.381,6.102,9.252  l6.818,1.399l8.208,13.518l-6.646,36.209l-13.775-20.474l0.924-5.088c0.773-4.259-2.053-8.337-6.311-9.11  c-4.257-0.777-8.337,2.052-9.11,6.311l-23.498,129.488c-0.74,4.078,1.823,8.028,5.85,9.012l8.012,1.958l-9.725,41.221  c-41.279-9.706-86.449-2.141-129.654,7.211l4.041-12.827C296.267,416.305,296.25,414.605,295.72,413.033z M212.319,277.527  l-6.093-0.368v-96.578l17.163,17.639l-0.145,72.359L212.319,277.527z M78.43,347.286l-4.002-7.251l14.918,2.875  c0.501,0.096,1,0.143,1.491,0.143c3.681,0,6.964-2.607,7.686-6.356c0.819-4.25-1.962-8.359-6.213-9.178l-21.709-4.183l7.857-17.9  c10.683-1.491,19.832-8.91,23.257-19.449c5.489-16.889,12.816-29.37,20.629-35.148c3.481-2.573,4.215-7.48,1.642-10.96  c-2.571-3.481-7.48-4.215-10.96-1.642c-13.351,9.871-21.625,28.781-26.216,42.907c-1.816,5.588-7.183,9.252-13.11,8.888  c-0.063-0.004-0.124,0-0.187-0.002c-0.045-0.002-0.089-0.01-0.134-0.01l-42.243-0.812c-4.42-0.195-6.482-3.26-7.164-4.574  c-0.685-1.319-2.02-4.79,0.403-8.539c7.655-11.843,21.969-27.652,37.124-44.388c3.351-3.701,6.734-7.437,10.086-11.176  c38.392-42.822,56.722-70.741,63.238-81.539l8.833,1.528c0.452,0.078,0.902,0.116,1.345,0.116c3.743,0,7.053-2.69,7.712-6.502  c0.738-4.265-2.121-8.321-6.386-9.057l-11.381-1.969l-16.115-19.353l27.824,1.266c0.118,0.005,0.237,0.008,0.356,0.008  c6.027,0,11.717,2.927,15.222,7.828l7.76,10.851c1.53,2.139,3.937,3.279,6.381,3.279c1.578,0,3.171-0.475,4.552-1.463  c3.52-2.518,4.333-7.413,1.816-10.933l-7.76-10.851c-6.404-8.955-16.779-14.322-27.782-14.384l-32.208-1.466l28.934-47.687  c6.114-10.076,18.005-15.396,29.592-13.236l26.865,5.006c13.519,2.519,23.311,14.329,23.283,28.08l-0.111,55.349l-1.075-1.213  c-1.446-1.632-3.506-2.587-5.685-2.636l-10.377-0.238c-4.3-0.115-7.914,3.328-8.014,7.655c-0.099,4.327,3.328,7.915,7.655,8.014  l6.959,0.159l10.49,11.836l-0.074,36.814l-17.208-17.685v-5.171c0-4.328-3.509-7.837-7.837-7.837c-4.328,0-7.837,3.509-7.837,7.837  V284.54c0,4.145,3.228,7.573,7.365,7.822l8.233,0.496l-2.695,51.61L76.029,378.307l3.314-26.252  C79.552,350.409,79.232,348.74,78.43,347.286z M206.679,359.827c5.606,13.068,17.593,47.927,6.731,86.981  c-6.55,0.965-12.969,1.721-19.232,2.202c1.612-45.575-10.045-62.826-11.526-64.817c-2.583-3.472-7.492-4.193-10.965-1.611  c-3.473,2.583-4.194,7.492-1.611,10.965c0.113,0.152,10.045,14.88,8.4,56.049c-9.601-0.068-18.748-0.994-27.333-3.074  c-13.843-3.353-26.599-5.067-38.296-5.562c0.622-15.036,0.046-36.122-5.699-54.7L206.679,359.827z M25.334,485.501  c17.316-15.821,56.065-39.748,122.118-23.746c37.187,9.008,81.108-0.851,127.607-11.289c78.064-17.525,158.648-35.62,213.895,35.035  H25.334z"/>
<g>
</g>
<g>
</g>
<g>
</g>
<g>
</g>
<g>
</g>
<g>
</g>
<g>
</g>
<g>
</g>
<g>
</g>
<g>
</g>
<g>
</g>
<g>
</g>
<g>
</g>
<g>
</g>
<g>
</g>
</svg>
