<?xml version="1.0" encoding="iso-8859-1"?>
<!-- Generator: Adobe Illustrator 19.0.0, SVG Export Plug-In . SVG Version: 6.00 Build 0)  -->
<svg xmlns="http://www.w3.org/2000/svg" xmlns:xlink="http://www.w3.org/1999/xlink" version="1.1" id="Capa_1" x="0px" y="0px" viewBox="0 0 512 512" style="enable-background:new 0 0 512 512;" xml:space="preserve">
<path style="fill:#FFDB2D;" d="M512,437.007h-30V293.34c0-91.716-74.617-166.333-166.333-166.333S149.333,201.624,149.333,293.34  h-30c0-108.258,88.075-196.333,196.334-196.333S512,185.082,512,293.34V437.007z"/>
<path style="fill:#FF4F19;" d="M179.334,293.341c0-75.174,61.159-136.333,136.333-136.333S452,218.166,452,293.341v96h-30v-96  c0-58.633-47.701-106.334-106.333-106.334S209.334,234.708,209.334,293.34h-30V293.341z"/>
<path style="fill:#7985EC;" d="M392,336.007h-30V293.34c0-25.548-20.785-46.333-46.333-46.333s-46.333,20.785-46.333,46.333h-30  c0-42.09,34.243-76.333,76.333-76.333S392,251.25,392,293.341V336.007z"/>
<path style="fill:#ABDFF7;" d="M255,267.674c-11.043,0-21.797,2.119-31.817,6.214c-18.098-42.135-59.692-70.214-106.85-70.214  C52.187,203.674,0,255.861,0,320.007S52.187,436.34,116.333,436.34H255c46.502,0,84.333-37.832,84.333-84.333  S301.502,267.674,255,267.674z"/>
<g>
	
		<rect x="358.454" y="416.876" transform="matrix(-0.7071 -0.7071 0.7071 -0.7071 332.1435 1001.3307)" style="fill:#84D0F3;" width="30" height="30"/>
	
		<rect x="102.452" y="129.124" transform="matrix(-0.7071 -0.7071 0.7071 -0.7071 98.5918 329.0851)" style="fill:#84D0F3;" width="30" height="30"/>
	
		<rect x="166.211" y="65.124" transform="matrix(-0.7071 -0.7071 0.7071 -0.7071 252.69 264.9153)" style="fill:#84D0F3;" width="30" height="30"/>
</g>
<rect x="113.123" y="310.335" transform="matrix(-0.7071 -0.7071 0.7071 -0.7071 -11.3271 645.9778)" style="fill:#FFFFFF;" width="30" height="30"/>
<path style="fill:#84D0F3;" d="M255,267.674c-11.043,0-21.797,2.119-31.817,6.214c-9.261-21.562-24.685-39.428-43.849-51.749  v214.202H255c46.502,0,84.333-37.832,84.333-84.333S301.502,267.674,255,267.674z"/>
<path style="fill:#5B64B1;" d="M315.667,217.007v30c25.548,0,46.333,20.785,46.333,46.334v42.666h30V293.34  C392,251.25,357.757,217.007,315.667,217.007z"/>
<path style="fill:#DB3502;" d="M315.667,157.007v30c58.632,0,106.333,47.701,106.333,106.334v96h30v-96  C452,218.166,390.841,157.007,315.667,157.007z"/>
<path style="fill:#FFC02D;" d="M315.667,97.007v30C407.384,127.007,482,201.624,482,293.34v143.667h30V293.34  C512,185.082,423.926,97.007,315.667,97.007z"/>
<g>
</g>
<g>
</g>
<g>
</g>
<g>
</g>
<g>
</g>
<g>
</g>
<g>
</g>
<g>
</g>
<g>
</g>
<g>
</g>
<g>
</g>
<g>
</g>
<g>
</g>
<g>
</g>
<g>
</g>
</svg>
