<?xml version="1.0" encoding="iso-8859-1"?>
<!-- Generator: Adobe Illustrator 19.0.0, SVG Export Plug-In . SVG Version: 6.00 Build 0)  -->
<svg xmlns="http://www.w3.org/2000/svg" xmlns:xlink="http://www.w3.org/1999/xlink" version="1.1" id="Capa_1" x="0px" y="0px" viewBox="0 0 511.998 511.998" style="enable-background:new 0 0 511.998 511.998;" xml:space="preserve">
<rect x="230.641" y="73.854" style="fill:#83C9FF;" width="50.712" height="70.83"/>
<rect x="230.641" y="121.167" style="fill:#E0D7D0;" width="50.712" height="47.042"/>
<rect x="230.641" y="140.404" style="fill:#D3C4BA;" width="51.017" height="27.804"/>
<path style="fill:#E0D7D0;" d="M336.561,504.166H175.437c7.753-18.756,13.887-40.657,18.714-64.063  c2.936-14.232,5.402-29.027,7.44-44.011c0.94-6.698,1.776-13.437,2.539-20.188c2.456-21.661,4.148-43.384,5.277-64.063  c0.846-15.391,1.39-30.219,1.724-44.011c0.167-7.022,0.282-13.761,0.355-20.198c0.46-40.5-0.815-68.138-0.815-68.138h90.656  c0,0-1.275,27.638-0.815,68.138c0.073,6.437,0.188,13.176,0.355,20.198c0.334,13.793,0.878,28.62,1.724,44.011  c1.128,20.679,2.821,42.402,5.277,64.063c0.763,6.75,1.599,13.49,2.539,20.188c2.038,14.984,4.504,29.78,7.44,44.011  C322.675,463.509,328.807,485.41,336.561,504.166z"/>
<g>
	<path style="fill:#D3C4BA;" d="M300.867,267.83h-89.736c0.167-7.022,0.282-13.761,0.355-20.198h89.026   C300.585,254.068,300.7,260.808,300.867,267.83z"/>
	<path style="fill:#D3C4BA;" d="M310.408,396.092H201.591c0.94-6.698,1.776-13.437,2.539-20.188h103.738   C308.631,382.654,309.467,389.394,310.408,396.092z"/>
</g>
<path style="fill:#AF2E2E;" d="M300.554,208.646c-0.146,10.721-0.209,23.97-0.042,38.985h-89.026  c0.167-15.015,0.105-28.265-0.042-38.985c-0.261-18.202-0.773-29.153-0.773-29.153h90.656  C301.327,179.494,300.815,190.444,300.554,208.646z"/>
<path style="fill:#9B2A2A;" d="M301.327,179.494c0,0-0.512,10.951-0.773,29.153h-89.109c-0.261-18.202-0.773-29.153-0.773-29.153  H301.327z"/>
<path style="fill:#AF2E2E;" d="M307.868,375.904H204.13c1.327-11.672,2.424-23.374,3.333-34.91  c0.784-9.864,1.421-19.613,1.944-29.153h93.185c0.522,9.54,1.16,19.289,1.944,29.153  C305.444,352.53,306.541,364.233,307.868,375.904z"/>
<path style="fill:#9B2A2A;" d="M304.535,340.994h-97.072c0.784-9.864,1.421-19.613,1.944-29.153h93.185  C303.114,321.381,303.751,331.13,304.535,340.994z"/>
<path style="fill:#AF2E2E;" d="M336.561,504.166H175.437c4.43-10.71,8.328-22.445,11.755-34.91  c2.581-9.352,4.89-19.111,6.959-29.153h123.696c2.069,10.042,4.378,19.801,6.959,29.153  C328.234,481.722,332.131,493.456,336.561,504.166z"/>
<path style="fill:#9B2A2A;" d="M324.806,469.256H187.192c2.581-9.352,4.89-19.111,6.959-29.153h123.696  C319.916,450.145,322.225,459.904,324.806,469.256z"/>
<path style="fill:#E0E0E3;" d="M307.517,186.732H204.48v-7.576c0-7.693,6.236-13.93,13.93-13.93h75.179  c7.693,0,13.93,6.236,13.93,13.93v7.576H307.517z"/>
<path style="fill:#E0D7D0;" d="M283.259,77.916c0-9.524-4.887-17.905-12.29-22.779c-6.599-4.344-10.715-11.581-10.715-19.479v-0.69  h-8.509v0.69c0,7.898-4.117,15.135-10.715,19.479c-7.402,4.873-12.29,13.255-12.29,22.779  C228.739,77.916,283.259,77.916,283.259,77.916z"/>
<path d="M343.804,501.171c-37.207-90.028-36.308-256.621-35.107-306.7c3.768-0.569,6.658-3.812,6.658-7.739v-7.576  c0-6.854-3.191-12.968-8.158-16.961l2.184-9.696c1.096-4.871-0.065-9.902-3.184-13.8s-7.772-6.135-12.763-6.135h-4.241v-11.398  v-38.14c1.183-1.373,1.903-3.156,1.903-5.111c0-11.842-5.913-22.804-15.818-29.324c-4.501-2.963-7.188-7.798-7.188-12.934v-0.69  c0-3.038-1.731-5.667-4.258-6.966V7.837c0-4.329-3.508-7.837-7.837-7.837s-7.837,3.508-7.837,7.837v20.169  c-2.522,1.302-4.251,3.928-4.251,6.963v0.69c0,2.824-0.817,5.557-2.298,7.938v-3.028c0-4.329-3.509-7.837-7.837-7.837  c-4.328,0-7.837,3.508-7.837,7.837V59.81c-3.243,5.38-5.034,11.608-5.034,18.106c0,1.955,0.72,3.739,1.904,5.111v38.139v11.397  h-4.241c-4.993,0-9.644,2.236-12.764,6.135c-3.119,3.899-4.279,8.929-3.183,13.801l2.183,9.695  c-4.966,3.993-8.158,10.107-8.158,16.961v7.576c0,3.927,2.891,7.169,6.659,7.739c1.205,50.074,2.113,216.641-35.108,306.7  c-1,2.417-0.726,5.174,0.728,7.349c1.454,2.175,3.897,3.481,6.514,3.481H336.56c2.616,0,5.06-1.305,6.514-3.481  C344.529,506.345,344.803,503.587,343.804,501.171z M273.518,148.237v9.152h-35.039v-9.152H273.518z M261.781,255.471  c0.352,4.003,3.707,7.143,7.802,7.143c4.094,0,7.45-3.14,7.801-7.143h15.398c0.224,14.145,0.659,29.605,1.42,45.801  c0.043,0.916,0.091,1.818,0.136,2.73H217.66c0.045-0.912,0.093-1.814,0.136-2.73c0.761-16.196,1.196-31.656,1.42-45.801H261.781z   M216.804,319.676h78.39c1.023,16.93,2.325,33.069,3.909,48.387h-86.207C214.48,352.746,215.781,336.607,216.804,319.676z   M263.832,178.895v-2.853h11.574c0.321,0.855,0.622,1.81,0.889,2.853H263.832z M236.592,176.042h11.566v2.853h-12.455  C235.971,177.851,236.272,176.896,236.592,176.042z M293.588,173.063c3.273,0,5.95,2.592,6.088,5.832h-7.385  c-0.347-2.113-0.81-4.061-1.352-5.832H293.588z M219.708,178.895h-7.385c0.137-3.239,2.815-5.832,6.087-5.832h2.65  C220.518,174.834,220.055,176.782,219.708,178.895z M293.006,194.569c-0.26,10.677-0.504,26.336-0.393,45.229h-73.229  c0.111-18.894-0.133-34.552-0.393-45.229H293.006z M211.138,383.737h89.721c2.087,17.31,4.556,33.497,7.406,48.532H203.732  C206.583,417.233,209.052,401.047,211.138,383.737z M293.958,148.489c0.202,0.253,0.15,0.483,0.132,0.567l-1.876,8.333h-3.021  v-9.152h4.241C293.521,148.237,293.755,148.237,293.958,148.489z M255.17,113.33V85.753h1.658v27.577H255.17z M238.479,113.33  V85.753h1.017v27.577H238.479z M272.503,85.753h1.017v27.577h-1.017V85.753z M245.338,61.684c4.579-3.015,8.211-7.046,10.661-11.666  c2.45,4.621,6.081,8.651,10.66,11.666c1.818,1.196,3.383,2.67,4.677,4.334h-30.675C241.955,64.355,243.52,62.88,245.338,61.684z   M238.479,129.004h35.039v3.56h-35.039L238.479,129.004L238.479,129.004z M218.041,148.489c0.202-0.252,0.436-0.252,0.525-0.252  h4.241v9.152h-3.021l-1.876-8.332C217.891,148.971,217.839,148.742,218.041,148.489z M186.868,496.326  c5.158-14.242,9.716-30.387,13.667-48.384h110.925c3.952,17.996,8.51,34.142,13.667,48.384H186.868z"/>
<path d="M269.583,221.831c4.329,0,7.837-3.508,7.837-7.837v-5.013c0-4.329-3.508-7.837-7.837-7.837s-7.837,3.508-7.837,7.837v5.013  C261.746,218.322,265.254,221.831,269.583,221.831z"/>
<path d="M269.583,302.078c4.329,0,7.837-3.508,7.837-7.837v-5.013c0-4.329-3.508-7.837-7.837-7.837s-7.837,3.508-7.837,7.837v5.013  C261.746,298.569,265.254,302.078,269.583,302.078z"/>
<path d="M230.338,328.773c-4.328,0-7.837,3.508-7.837,7.837v10.442c0,4.329,3.509,7.837,7.837,7.837  c4.328,0,7.837-3.508,7.837-7.837V336.61C238.174,332.281,234.666,328.773,230.338,328.773z"/>
<g>
</g>
<g>
</g>
<g>
</g>
<g>
</g>
<g>
</g>
<g>
</g>
<g>
</g>
<g>
</g>
<g>
</g>
<g>
</g>
<g>
</g>
<g>
</g>
<g>
</g>
<g>
</g>
<g>
</g>
</svg>
