<?xml version="1.0" encoding="iso-8859-1"?>
<!-- Generator: Adobe Illustrator 19.0.0, SVG Export Plug-In . SVG Version: 6.00 Build 0)  -->
<svg xmlns="http://www.w3.org/2000/svg" xmlns:xlink="http://www.w3.org/1999/xlink" version="1.1" id="Capa_1" x="0px" y="0px" viewBox="0 0 512 512" style="enable-background:new 0 0 512 512;" xml:space="preserve">
<path style="fill:#60DD4D;" d="M265.111,245.892c-5.858-16.133-36.06-97.595-55.496-117.03  c-19.369-19.37-102.516-51.349-118.986-57.563l-19.33,19.329c6.214,16.471,38.192,99.617,57.563,118.987  c14.294,14.294,62.136,34.411,92.867,46.385c-30.731,11.974-78.574,32.091-92.867,46.385  c-19.37,19.37-51.349,102.516-57.563,118.986l19.329,19.33c16.471-6.214,99.617-38.192,118.986-57.562  c19.437-19.437,49.639-100.898,55.496-117.031v-20.216H265.111z"/>
<path style="fill:#00C47A;" d="M290.271,256c30.731-11.974,78.573-32.091,92.867-46.385c19.37-19.37,51.349-102.516,57.563-118.987  l-19.329-19.329c-16.471,6.214-99.617,38.193-118.986,57.563c-19.436,19.436-49.639,100.898-55.496,117.031v20.217  c5.857,16.132,36.06,97.594,55.496,117.03c19.369,19.371,102.516,51.349,118.986,57.563l19.329-19.33  c-6.214-16.471-38.192-99.617-57.563-118.986C368.845,288.091,321.002,267.974,290.271,256z"/>
<path style="fill:#FF4F19;" d="M256,512c-48.138,0-87.3-39.163-87.3-87.3c0-24.064,20.918-75.885,43.599-124.999  C163.185,322.382,111.364,343.3,87.3,343.3C39.162,343.3,0,304.138,0,256c0-48.137,39.162-87.3,87.3-87.3  c24.063,0,75.885,20.918,124.999,43.599C189.618,163.186,168.7,111.365,168.7,87.3C168.7,39.163,207.863,0,256,0  s87.3,39.163,87.3,87.3c0,24.065-20.918,75.885-43.599,124.998C348.816,189.618,400.637,168.7,424.7,168.7  c48.138,0,87.3,39.163,87.3,87.3c0,48.138-39.162,87.3-87.3,87.3c-24.063,0-75.885-20.918-124.999-43.599  C322.382,348.815,343.3,400.637,343.3,424.7C343.3,472.838,304.138,512,256,512z"/>
<path style="fill:#DB3502;" d="M424.7,168.7c-24.063,0-75.885,20.918-124.999,43.599C322.382,163.186,343.3,111.365,343.3,87.3  C343.3,39.163,304.138,0,256,0c-0.062,0-0.123,0.002-0.185,0.002v511.996c0.062,0,0.123,0.002,0.185,0.002  c48.138,0,87.3-39.163,87.3-87.3c0-24.064-20.918-75.885-43.599-124.999C348.816,322.382,400.637,343.3,424.7,343.3  c48.138,0,87.3-39.163,87.3-87.3S472.838,168.7,424.7,168.7z"/>
<circle style="fill:#FFDB2D;" cx="256" cy="256" r="48.2"/>
<path style="fill:#FFC02D;" d="M256,319.2c-34.849,0-63.2-28.351-63.2-63.2s28.352-63.2,63.2-63.2s63.2,28.352,63.2,63.2  S290.849,319.2,256,319.2z M256,222.8c-18.307,0-33.2,14.894-33.2,33.2s14.894,33.2,33.2,33.2s33.2-14.894,33.2-33.2  S274.307,222.8,256,222.8z"/>
<path style="fill:#FFAF2D;" d="M256,192.8v30c18.307,0,33.2,14.894,33.2,33.2s-14.894,33.2-33.2,33.2v30  c34.849,0,63.2-28.351,63.2-63.2S290.849,192.8,256,192.8z"/>
<g>
</g>
<g>
</g>
<g>
</g>
<g>
</g>
<g>
</g>
<g>
</g>
<g>
</g>
<g>
</g>
<g>
</g>
<g>
</g>
<g>
</g>
<g>
</g>
<g>
</g>
<g>
</g>
<g>
</g>
</svg>
