<?xml version="1.0" encoding="iso-8859-1"?>
<!-- Generator: Adobe Illustrator 19.0.0, SVG Export Plug-In . SVG Version: 6.00 Build 0)  -->
<svg xmlns="http://www.w3.org/2000/svg" xmlns:xlink="http://www.w3.org/1999/xlink" version="1.1" id="Capa_1" x="0px" y="0px" viewBox="0 0 512 512" style="enable-background:new 0 0 512 512;" xml:space="preserve">
<g transform="matrix(1.25 0 0 -1.25 0 45)">
	<g>
		<g>
			<g>
				<path style="fill:#292F33;" d="M250.311-3.822c0-21.993-20.378-39.822-45.511-39.822s-45.511,17.829-45.511,39.822      S179.666,36,204.8,36S250.311,18.171,250.311-3.822"/>
				<path style="fill:#292F33;" d="M341.333-146.044c0-62.839-61.133-113.778-136.533-113.778S68.267-208.884,68.267-146.044      S129.399-32.267,204.8-32.267S341.333-83.205,341.333-146.044"/>
			</g>
			<path style="fill:#FFCC4D;" d="M238.933-9.511c0-12.572-15.28-22.756-34.133-22.756s-34.133,10.183-34.133,22.756     s15.28,22.756,34.133,22.756S238.933,3.061,238.933-9.511"/>
			<g>
				<path style="fill:#88C9F9;" d="M352.711-373.6v51.2c0,37.706-40.516,62.578-78.222,62.578H137.956      c-37.695,0-81.067-24.872-81.067-62.578v-51.2H352.711z"/>
				<path style="fill:#88C9F9;" d="M164.978-265.716c16.68-12.117,31.767-11.15,39.822-11.15s24.963-0.967,39.686,10.798      l0.137,47.093h-79.644V-265.716z"/>
			</g>
			<path style="fill:#55ACEE;" d="M164.773-242.039c11.071-10.661,30.424-12.72,39.913-12.72c9.364,0,28.865,2.059,39.936,12.72     v37.387h-79.849V-242.039z"/>
			<path style="fill:#88C9F9;" d="M122.129-130.423c0,66.378,36.739,120.195,82.045,120.195c45.295,0,82.022-53.817,82.022-120.195     c0-66.367-36.727-117.02-82.022-117.02C158.868-247.443,122.129-196.789,122.129-130.423"/>
			<path style="fill:#DF1F32;" d="M204.174-219.454c-18.273,0-27.841,9.034-28.865,10.069c-3.049,3.026-3.049,7.964,0,11.002     c3.026,3.004,7.873,3.026,10.934,0.068c0.398-0.364,6.269-5.587,17.931-5.587c11.81,0,17.692,5.382,17.931,5.598     c3.118,2.913,7.999,2.822,10.957-0.216c2.958-3.061,2.958-7.873-0.046-10.866C231.993-210.42,222.436-219.454,204.174-219.454"/>
			<g>
				<path style="fill:#662113;" d="M166.207-155.147L166.207-155.147c-5.291,0-9.626,4.335-9.626,9.637v9.603      c0,5.291,4.335,9.626,9.626,9.626c5.302,0,9.637-4.335,9.637-9.626v-9.603C175.844-150.812,171.509-155.147,166.207-155.147"/>
				<path style="fill:#662113;" d="M243.177-155.147L243.177-155.147c-5.291,0-9.626,4.335-9.626,9.637v9.603      c0,5.291,4.335,9.626,9.626,9.626s9.626-4.335,9.626-9.626v-9.603C252.803-150.812,248.468-155.147,243.177-155.147"/>
			</g>
			<path style="fill:#55ACEE;" d="M214.312-184.831h-19.228c-2.662,0-4.813,2.15-4.813,4.813v1.741c0,2.662,2.15,4.824,4.813,4.824     h19.228c2.651,0,4.824-2.162,4.824-4.824v-1.741C219.136-182.681,216.963-184.831,214.312-184.831"/>
			<path style="fill:#292F33;" d="M205.369,1.867c91.659,0,124.564-70.508,124.564-137.933s-32.905-89.623-32.905-89.623     s11.378,22.198,0,44.396c-11.378,22.209-11.378,66.606-11.378,66.606s-32.757,3.254-56.889,11.105     c-34.133,11.093-45.511,22.198-45.511,22.198s-34.133-33.303-56.889-33.303c0,0,0-22.198-11.378-55.501     c-7.202-21.06,0-55.501,0-55.501S80.85-192.386,80.85-125.792C80.85-59.186,113.71,1.867,205.369,1.867"/>
			<g>
				<path style="fill:#88C9F9;" d="M134.315-145.362c5.848-14.586,3.493-29.241-5.257-32.757      c-8.75-3.504-20.582,5.473-26.431,20.059c-5.837,14.575-3.482,29.241,5.257,32.745      C116.634-121.798,128.466-130.775,134.315-145.362"/>
				<path style="fill:#88C9F9;" d="M275.342-145.362c-5.848-14.586-3.493-29.241,5.257-32.757      c8.749-3.504,20.582,5.473,26.431,20.059c5.837,14.575,3.482,29.241-5.257,32.745      C293.023-121.798,281.19-130.775,275.342-145.362"/>
			</g>
			<path style="fill:#A0041E;" d="M102.4-373.6c0,0-11.378,34.133,11.378,45.511c32.176,16.088,79.644-34.133,91.022-34.133     s58.834,50.221,91.022,34.133C318.578-339.467,307.2-373.6,307.2-373.6H102.4z"/>
			<path style="fill:#FFCC4D;" d="M204.8-293.956c34.133,0,45.511,34.133,45.511,34.133h11.378c0,0,0-56.889-56.889-56.889     s-56.889,56.889-56.889,56.889h11.378C159.289-259.822,170.667-293.956,204.8-293.956"/>
		</g>
	</g>
</g>
<g>
</g>
<g>
</g>
<g>
</g>
<g>
</g>
<g>
</g>
<g>
</g>
<g>
</g>
<g>
</g>
<g>
</g>
<g>
</g>
<g>
</g>
<g>
</g>
<g>
</g>
<g>
</g>
<g>
</g>
</svg>
