<?xml version="1.0" encoding="iso-8859-1"?>
<!-- Generator: Adobe Illustrator 19.0.0, SVG Export Plug-In . SVG Version: 6.00 Build 0)  -->
<svg xmlns="http://www.w3.org/2000/svg" xmlns:xlink="http://www.w3.org/1999/xlink" version="1.1" id="Capa_1" x="0px" y="0px" viewBox="0 0 512 512" style="enable-background:new 0 0 512 512;" xml:space="preserve">
<rect x="228" y="234" style="fill:#FFFFFF;" width="56" height="32"/>
<g>
	<path style="fill:#F1F2F2;" d="M301.969,10L301.969,10c-7.732,0-14,6.268-14,14v50h28V24C315.969,16.268,309.701,10,301.969,10z"/>
	<path style="fill:#F1F2F2;" d="M210,10L210,10c-7.732,0-14,6.268-14,14v50h28V24C224,16.268,217.732,10,210,10z"/>
</g>
<path style="fill:#F25353;" d="M256,238L256,238c-50.258,0-91-40.742-91-91V74h182v73C347,197.258,306.258,238,256,238z"/>
<circle style="fill:#FFFFFF;" cx="256.13" cy="118" r="16"/>
<g>
	<path style="fill:#59AA33;" d="M105.485,422.987c71.618,41.349,103.421-25.213,103.421-25.213s41.743-60.823-29.875-102.172   s-156.15-5.903-156.813-5.612C22.218,289.989,33.867,381.638,105.485,422.987z"/>
	<path style="fill:#59AA33;" d="M489.782,289.955c-0.663-0.29-85.195-35.736-156.813,5.612S303.093,397.74,303.093,397.74   s31.803,66.562,103.421,25.213S489.782,289.955,489.782,289.955z"/>
</g>
<path d="M218,240.573V266c0,5.523,4.478,10,10,10h18v19c0,5.523,4.478,10,10,10s10-4.477,10-10v-19h18c5.522,0,10-4.477,10-10  v-25.427c36.912-15.045,63-51.317,63-93.573V74c0-5.523-4.478-10-10-10h-21.031V24c0-13.233-10.767-24-24-24s-24,10.767-24,24v40  H234V24c0-13.233-10.767-24-24-24s-24,10.767-24,24v40h-21c-5.522,0-10,4.477-10,10v73C155,189.256,181.088,225.528,218,240.573z   M274,256h-36v-9.608c5.843,1.055,11.858,1.608,18,1.608s12.157-0.553,18-1.608V256z M297.969,24c0-2.206,1.794-4,4-4s4,1.794,4,4  v40h-8V24z M206,24c0-2.206,1.794-4,4-4s4,1.794,4,4v40h-8V24z M175,84h162v63c0,44.664-36.337,81-81,81s-81-36.336-81-81V84z"/>
<path d="M256,319.804c-5.522,0-10,4.477-10,10v0.5c0,5.523,4.478,10,10,10s10-4.477,10-10v-0.5  C266,324.281,261.522,319.804,256,319.804z"/>
<path d="M502,492h-0.138c-5.522,0-10,4.477-10,10s4.478,10,10,10H502c5.522,0,10-4.477,10-10S507.522,492,502,492z"/>
<path d="M256.127,144c14.337,0,26-11.664,26-26s-11.663-26-26-26s-26,11.664-26,26S241.79,144,256.127,144z M256.127,112  c3.309,0,6,2.691,6,6s-2.691,6-6,6s-6-2.691-6-6S252.818,112,256.127,112z"/>
<path d="M222.127,176h68c5.522,0,10-4.477,10-10s-4.478-10-10-10h-68c-5.522,0-10,4.477-10,10S216.604,176,222.127,176z"/>
<path d="M280.127,188h-48c-5.522,0-10,4.477-10,10s4.478,10,10,10h48c5.522,0,10-4.477,10-10S285.649,188,280.127,188z"/>
<path d="M299.617,411.294c6.945,10.043,20.561,25.498,41.802,32.085c6.74,2.09,13.688,3.134,20.827,3.134  c15.591,0,32.086-4.979,49.269-14.899c31.184-18.004,56.324-48.01,72.702-86.773c12.259-29.014,15.359-52.633,15.485-53.625  c0.56-4.403-1.85-8.648-5.917-10.425c-0.884-0.386-89.254-38.087-165.816,6.117c-25.051,14.463-40.271,32.908-45.237,54.822  c-4.915,21.688,1.661,41.208,6.886,52.244L266,407.609v-39.391c0-5.523-4.478-10-10-10s-10,4.477-10,10v39.424l-23.617-13.635  c5.225-11.036,11.801-30.555,6.886-52.244c-4.967-21.914-20.187-40.359-45.237-54.822c-31.206-18.017-69.675-24.825-111.241-19.685  c-31.945,3.949-54.363,13.476-54.58,13.571c-4.064,1.778-6.472,6.021-5.912,10.422c0.126,0.991,3.227,24.61,15.485,53.625  c16.378,38.763,41.519,68.769,72.702,86.772c17.185,9.921,33.677,14.9,49.269,14.899c7.138,0,14.088-1.043,20.827-3.133  c21.241-6.588,34.856-22.043,41.802-32.085L246,430.736V492H10c-5.522,0-10,4.477-10,10s4.478,10,10,10h459.738  c5.522,0,10-4.477,10-10s-4.478-10-10-10H266v-61.297L299.617,411.294z M401.515,414.293c-19.954,11.519-38.12,14.896-53.997,10.037  c-14.873-4.552-25-15.522-30.493-23.086l58.364-33.697c0.553,0.266,1.135,0.49,1.75,0.655l60.037,16.087  C427.524,395.614,415.783,406.055,401.515,414.293z M449.996,367.019l-50.333-13.487l75.536-43.61  C470.98,325.107,463.321,346.419,449.996,367.019z M465.249,292.572l-109.351,63.134l17.577-65.598  c13.287-3.253,26.476-4.521,38.895-4.521C433.246,285.587,451.938,289.114,465.249,292.572z M302.277,345.972  c3.73-16.18,15.738-30.225,35.691-41.744c4.2-2.425,8.456-4.547,12.74-6.43l-19.306,72.05l-24.377,14.074  C303.217,375.374,298.784,361.123,302.277,345.972z M209.723,346.005c3.494,15.156-0.943,29.411-4.747,37.951l-24.379-14.075  l-19.311-72.07c4.287,1.884,8.543,4.024,12.746,6.45C193.984,315.781,205.992,329.826,209.723,346.005z M138.521,290.125  l17.582,65.614L46.748,292.604C67.973,287.089,102.893,281.403,138.521,290.125z M36.847,309.981l75.49,43.584l-50.28,13.472  C48.763,346.462,41.087,325.164,36.847,309.981z M164.482,424.364c-15.876,4.859-34.044,1.483-53.997-10.038  c-14.246-8.225-25.977-18.673-35.624-30.014l60-16.077c0.615-0.165,1.197-0.389,1.75-0.655l58.363,33.696  C189.476,408.849,179.351,419.813,164.482,424.364z"/>
<g>
</g>
<g>
</g>
<g>
</g>
<g>
</g>
<g>
</g>
<g>
</g>
<g>
</g>
<g>
</g>
<g>
</g>
<g>
</g>
<g>
</g>
<g>
</g>
<g>
</g>
<g>
</g>
<g>
</g>
</svg>
