<?xml version="1.0" encoding="iso-8859-1"?>
<!-- Generator: Adobe Illustrator 19.0.0, SVG Export Plug-In . SVG Version: 6.00 Build 0)  -->
<svg xmlns="http://www.w3.org/2000/svg" xmlns:xlink="http://www.w3.org/1999/xlink" version="1.1" id="Capa_1" x="0px" y="0px" viewBox="0 0 512 512" style="enable-background:new 0 0 512 512;" xml:space="preserve">
<path style="fill:#FF4F19;" d="M496.718,307.971c-4.868-92.442-80.723-166.603-173.246-169.537  c-94.051-2.982-172.442,66.496-183.714,156.821h-23.861c-55.71,0-100.874,45.162-100.874,100.874l0,0  c0,55.71,45.162,100.873,100.874,100.873h201.747C419.9,497.002,502.166,411.416,496.718,307.971z"/>
<path style="fill:#DB3502;" d="M496.718,307.971c-4.868-92.443-80.723-166.603-173.246-169.537  c-1.951-0.062-3.892-0.081-5.828-0.081v358.65l0,0C419.9,497.002,502.166,411.416,496.718,307.971z"/>
<path style="fill:#FFE981;" d="M317.643,512H115.897C52.005,512,0.024,460.02,0.024,396.129c0-63.893,51.98-115.872,115.872-115.872  h11.077c8.3-42.541,30.64-81.127,63.798-109.755c36.944-31.898,84.238-48.602,133.175-47.059  c48.522,1.539,94.514,21.24,129.508,55.473c35.005,34.246,55.689,79.799,58.241,128.266c2.842,53.945-15.999,105.162-53.053,144.217  c-17.967,18.938-39.148,33.84-62.956,44.29C371.033,506.513,344.775,512,317.643,512z M115.897,310.253  c-47.351,0-85.875,38.523-85.875,85.875s38.523,85.875,85.875,85.875h201.747c45.537,0,87.884-18.201,119.238-51.25  c31.332-33.026,47.263-76.35,44.859-121.994c-2.156-40.935-19.651-79.432-49.263-108.402  c-29.608-28.966-68.489-45.633-109.481-46.933c-41.393-1.305-81.39,12.816-112.622,39.783  c-30.909,26.686-50.703,63.588-55.734,103.905l-1.64,13.142h-37.104V310.253z"/>
<circle style="fill:#FFFFFF;" cx="316.988" cy="314.668" r="34.996"/>
<path style="fill:#FFE981;" d="M316.992,279.676c19.328,0,34.996,15.668,34.996,34.996c0,19.328-15.668,34.996-34.996,34.996"/>
<g>
	<path style="fill:#D6D6D6;" d="M239.417,96.094L209.42,95.99c0.029-8.458-1.715-11.978-4.357-17.306   c-3.355-6.768-7.53-15.191-7.476-30.731c0.054-15.539,4.288-23.935,7.689-30.679c2.678-5.309,4.447-8.816,4.476-17.274   l29.997,0.104c-0.054,15.54-4.288,23.935-7.689,30.679c-2.678,5.309-4.447,8.817-4.477,17.275   c-0.029,8.458,1.715,11.978,4.356,17.305C235.295,72.132,239.471,80.555,239.417,96.094z"/>
	<path style="fill:#D6D6D6;" d="M314.076,96.094l-29.997-0.104c0.029-8.458-1.715-11.978-4.356-17.305   c-3.355-6.768-7.53-15.191-7.476-30.731c0.054-15.539,4.288-23.934,7.689-30.679c2.678-5.309,4.447-8.817,4.477-17.275   l29.997,0.104c-0.054,15.539-4.288,23.934-7.689,30.679c-2.678,5.309-4.447,8.816-4.476,17.274   c-0.029,8.458,1.715,11.978,4.356,17.306C309.955,72.132,314.13,80.555,314.076,96.094z"/>
</g>
<path style="fill:#FFC02D;" d="M511.695,307.181c-2.553-48.468-23.237-94.02-58.241-128.266  c-34.992-34.234-80.986-53.935-129.508-55.473c-2.105-0.066-4.206-0.086-6.303-0.086v29.995c1.782-0.001,3.566,0.016,5.353,0.072  c40.993,1.3,79.873,17.968,109.481,46.933c29.612,28.97,47.107,67.467,49.263,108.402c2.404,45.643-13.528,88.969-44.859,121.994  c-31.354,33.05-73.701,51.25-119.238,51.25v29.997c27.131,0,53.39-5.487,78.044-16.311c23.808-10.451,44.988-25.352,62.956-44.29  C495.696,412.343,514.537,361.126,511.695,307.181z"/>
<g>
</g>
<g>
</g>
<g>
</g>
<g>
</g>
<g>
</g>
<g>
</g>
<g>
</g>
<g>
</g>
<g>
</g>
<g>
</g>
<g>
</g>
<g>
</g>
<g>
</g>
<g>
</g>
<g>
</g>
</svg>
