<?xml version="1.0" encoding="iso-8859-1"?>
<!-- Generator: Adobe Illustrator 19.0.0, SVG Export Plug-In . SVG Version: 6.00 Build 0)  -->
<svg xmlns="http://www.w3.org/2000/svg" xmlns:xlink="http://www.w3.org/1999/xlink" version="1.1" id="Capa_1" x="0px" y="0px" viewBox="0 0 512 512" style="enable-background:new 0 0 512 512;" xml:space="preserve">
<path style="fill:#FDB455;" d="M421,325.899V376c0,74.399-60.601,136-135,136h-60c-74.399,0-135-61.601-135-136v-50.101  c0-8.099,6.599-15,15-15h300C414.401,310.899,421,317.8,421,325.899z"/>
<path style="fill:#FF9800;" d="M421,325.899V376c0,74.399-60.601,136-135,136h-30V310.899h150  C414.401,310.899,421,317.8,421,325.899z"/>
<path style="fill:#FFDAA8;" d="M391.901,54.899C355,19.2,306.7,0,256,0h-6C145.901,3.3,61,94.9,61,203.5v69.3  c0,32.401,20.7,60.899,51.301,71.1L151,356.8V376c0,24.899,20.099,45,45,45h120c24.901,0,45-20.101,45-45v-19.2l38.699-12.9  C430.3,333.699,451,305.2,451,272.8V196C451,142.899,430,92.1,391.901,54.899z"/>
<path style="fill:#FFC473;" d="M451,196v76.8c0,32.401-20.7,60.899-51.301,71.1L361,356.8V376c0,24.899-20.099,45-45,45h-60V0  c50.7,0,99,19.2,135.901,54.899C430,92.1,451,142.899,451,196z"/>
<path style="fill:#99522E;" d="M331,241c-33.091,0-60-26.909-60-60s26.909-60,60-60s60,26.909,60,60S364.091,241,331,241z"/>
<path style="fill:#A6673A;" d="M181,241c-33.091,0-60-26.909-60-60s26.909-60,60-60s60,26.909,60,60S214.091,241,181,241z"/>
<path style="fill:#FDB455;" d="M226,331c-8.284,0-15,6.714-15,15v84h30v-84C241,337.714,234.284,331,226,331z"/>
<path style="fill:#FF9800;" d="M286,331c-8.284,0-15,6.714-15,15v87h30v-87C301,337.714,294.284,331,286,331z"/>
<path style="fill:#A6673A;" d="M296.499,296.499c-5.7,6-15.298,6-20.999,0l-19.5-19.2l-19.501,19.2c-5.7,6-15.298,6-20.999,0  c-6-5.7-6-15.3,0-21l30-30C248.2,242.5,252.1,241,256,241s7.8,1.5,10.499,4.499l30,30C302.5,281.199,302.5,290.799,296.499,296.499z  "/>
<path style="fill:#99522E;" d="M296.499,296.499c-5.7,6-15.298,6-20.999,0l-19.5-19.2V241c3.9,0,7.8,1.5,10.499,4.499l30,30  C302.5,281.199,302.5,290.799,296.499,296.499z"/>
<g>
</g>
<g>
</g>
<g>
</g>
<g>
</g>
<g>
</g>
<g>
</g>
<g>
</g>
<g>
</g>
<g>
</g>
<g>
</g>
<g>
</g>
<g>
</g>
<g>
</g>
<g>
</g>
<g>
</g>
</svg>
