<?xml version="1.0" encoding="iso-8859-1"?>
<!-- Generator: Adobe Illustrator 19.0.0, SVG Export Plug-In . SVG Version: 6.00 Build 0)  -->
<svg xmlns="http://www.w3.org/2000/svg" xmlns:xlink="http://www.w3.org/1999/xlink" version="1.1" id="Capa_1" x="0px" y="0px" viewBox="0 0 512.002 512.002" style="enable-background:new 0 0 512.002 512.002;" xml:space="preserve">
<path style="fill:#E0E0E2;" d="M309.255,32.05c-18.027-10.801-41-7.955-55.912,6.883l-9.43,9.46  c-14.883,14.883-17.714,37.87-7.612,54.541l30.883,65.878L373.779,62.219L309.255,32.05z"/>
<path style="fill:#C7C5CA;" d="M489.773,140.358L423.687,100.7c-7.256-4.365-16.596-1.996-20.932,5.23l-91.86,91.86  c-7.225,4.336-9.564,13.707-5.23,20.932l39.658,66.087c8.208,13.707,23.255,22.213,39.241,22.213h81.671  c25.237,0,45.766-20.53,45.766-45.767V179.6C512.001,163.615,503.479,148.582,489.773,140.358z"/>
<path style="fill:#896746;" d="M442.793,43.678c-16.477-16.475-42.41-17.086-60.106-3.05  c-11.28,9.01-242.424,240.897-252.632,251.105l8.849,21.662l17.084,17.088l17.084,17.086l21.665,8.847  C339.116,212.035,377.85,173.303,442.792,108.361C460.793,90.665,460.793,61.376,442.793,43.678z"/>
<path style="fill:#715539;" d="M281.016,270.138c71.609-71.609,161.776-161.776,161.776-161.776c18-17.697,18-46.986,0-64.683  c0,0-65.585,65.585-81.826,81.826c-15.09,15.09-26.793,26.793-26.793,26.793L155.988,330.483l17.086,17.086l21.664,8.847  C194.738,356.416,233.852,317.302,281.016,270.138z"/>
<path d="M378.134,173.054l-0.116,0.116C378.06,173.132,378.096,173.095,378.134,173.054z"/>
<polygon style="fill:#FDB455;" points="194.738,356.416 151.413,399.741 130.055,390.588 95.883,356.416 86.729,335.058   130.055,291.733 "/>
<polygon style="fill:#FF9800;" points="194.738,356.416 151.413,399.741 130.055,390.588 112.969,373.502 162.397,324.074 "/>
<polygon style="fill:#896746;" points="151.413,399.741 108.391,442.763 86.729,433.914 69.643,416.828 52.556,399.741   43.708,378.08 86.729,335.058 "/>
<polygon style="fill:#715539;" points="151.413,399.741 108.391,442.763 86.729,433.914 69.643,416.828 119.071,367.4 "/>
<path style="fill:#FDB455;" d="M108.391,442.763c-17.086,17.086-13.12,13.12-30.206,30.206c-17.697,18-46.681,18-64.683,0  c-18.003-18.003-18.003-46.988,0-64.683c17.086-17.086,13.12-13.12,30.206-30.206L108.391,442.763z"/>
<path style="fill:#FF9800;" d="M108.391,442.763c-17.086,17.086-13.12,13.12-30.206,30.206c-17.697,18-46.681,18-64.683,0  l62.548-62.548L108.391,442.763z"/>
<path style="fill:#83C9FF;" d="M367.282,177.589h-86.289c-8.432,0-15.256-6.823-15.256-15.256c0-8.432,6.823-15.255,15.256-15.255  h71.034V76.029c0-8.432,6.823-15.256,15.255-15.256s15.255,6.823,15.255,15.256v86.303  C382.538,170.766,375.714,177.589,367.282,177.589z"/>
<path style="fill:#00A5FF;" d="M367.282,177.589c8.432,0,15.255-6.823,15.255-15.256v-58.4l-30.511,30.511v12.634h-12.634  l-30.511,30.511H367.282z"/>
<g>
</g>
<g>
</g>
<g>
</g>
<g>
</g>
<g>
</g>
<g>
</g>
<g>
</g>
<g>
</g>
<g>
</g>
<g>
</g>
<g>
</g>
<g>
</g>
<g>
</g>
<g>
</g>
<g>
</g>
</svg>
