<?xml version="1.0" encoding="iso-8859-1"?>
<!-- Generator: Adobe Illustrator 19.0.0, SVG Export Plug-In . SVG Version: 6.00 Build 0)  -->
<svg xmlns="http://www.w3.org/2000/svg" xmlns:xlink="http://www.w3.org/1999/xlink" version="1.1" id="Capa_1" x="0px" y="0px" viewBox="0 0 512 512" style="enable-background:new 0 0 512 512;" xml:space="preserve">
<path style="fill:#C2C2C2;" d="M512,21.242L490.773,0.015L98.154,392.634c-10.042-6.187-21.618-9.507-33.71-9.507  c-17.213,0-33.397,6.703-45.569,18.876C6.703,414.174,0,430.357,0,447.571c0,17.213,6.703,33.397,18.876,45.569  c12.563,12.563,29.066,18.845,45.569,18.845s33.006-6.282,45.568-18.845c12.172-12.172,18.876-28.356,18.876-45.569  c0-12.092-3.32-23.668-9.507-33.709L512,21.242z M88.786,471.912c-6.501,6.502-15.147,10.083-24.342,10.083  s-17.84-3.581-24.342-10.083c-6.501-6.501-10.082-15.146-10.082-24.341c0-9.195,3.58-17.84,10.083-24.341l0,0  c6.501-6.502,15.147-10.083,24.342-10.083s17.84,3.58,24.342,10.083c6.502,6.502,10.083,15.146,10.083,24.341  C98.869,456.766,95.288,465.411,88.786,471.912z"/>
<rect x="228.871" y="-3.544" transform="matrix(-0.7071 -0.7071 0.7071 -0.7071 360.7074 567.8112)" style="fill:#FF4F19;" width="138.16" height="425.488"/>
<rect x="290.75" y="22.085" transform="matrix(-0.7071 -0.7071 0.7071 -0.7071 386.3379 629.6855)" style="fill:#DB3502;" width="65.663" height="425.488"/>
<g>
	
		<rect x="198.744" y="161.463" transform="matrix(0.7071 -0.7071 0.7071 0.7071 -114.4416 249.683)" style="fill:#60DD4D;" width="90.859" height="203.043"/>
	
		<rect x="306.304" y="53.9" transform="matrix(0.7071 -0.7071 0.7071 0.7071 -6.8793 294.2355)" style="fill:#60DD4D;" width="90.859" height="203.043"/>
</g>
<g>
	
		<rect x="235.836" y="251.034" transform="matrix(0.7071 -0.7071 0.7071 0.7071 -129.8118 286.7781)" style="fill:#00C47A;" width="90.859" height="98.104"/>
	
		<rect x="343.405" y="143.477" transform="matrix(0.7071 -0.7071 0.7071 0.7071 -22.2514 331.3377)" style="fill:#00C47A;" width="90.859" height="98.104"/>
</g>
<g>
</g>
<g>
</g>
<g>
</g>
<g>
</g>
<g>
</g>
<g>
</g>
<g>
</g>
<g>
</g>
<g>
</g>
<g>
</g>
<g>
</g>
<g>
</g>
<g>
</g>
<g>
</g>
<g>
</g>
</svg>
