<?xml version="1.0" encoding="iso-8859-1"?>
<!-- Generator: Adobe Illustrator 19.0.0, SVG Export Plug-In . SVG Version: 6.00 Build 0)  -->
<svg xmlns="http://www.w3.org/2000/svg" xmlns:xlink="http://www.w3.org/1999/xlink" version="1.1" id="Capa_1" x="0px" y="0px" viewBox="0 0 511.996 511.996" style="enable-background:new 0 0 511.996 511.996;" xml:space="preserve">
<path style="fill:#FF9900;" d="M339.956,277.434c0-28.138-10.958-54.593-30.855-74.489c-19.896-19.897-46.351-30.855-74.489-30.855  s-54.593,10.957-74.489,30.854c-12.357,12.357-23.389,23.376-32.515,32.486C91.611,233.239,57.825,245.323,34,269.15  C9.432,293.719-2.489,327.795,0.434,365.103c2.854,36.423,19.617,71.674,47.201,99.257c27.584,27.584,62.834,44.348,99.258,47.201  c3.702,0.29,7.368,0.434,11.001,0.434c32.971-0.001,62.821-11.87,84.952-34c23.808-23.808,35.895-57.567,33.722-93.54l32.532-32.532  C328.998,332.025,339.956,305.571,339.956,277.434z"/>
<path style="fill:#FF7300;" d="M47.636,464.36c27.584,27.584,62.834,44.348,99.258,47.201c3.702,0.29,7.368,0.434,11.001,0.434  c32.971-0.001,62.821-11.87,84.952-34c23.808-23.808,35.895-57.567,33.722-93.54l32.532-32.532  c19.897-19.897,30.855-46.351,30.855-74.488c0-28.138-10.958-54.593-30.855-74.489"/>
<rect x="270.276" y="23.561" transform="matrix(-0.7071 -0.7071 0.7071 -0.7071 344.4198 581.3907)" style="fill:#804D00;" width="44.688" height="391.606"/>
<rect x="374.492" y="34.926" transform="matrix(-0.7071 0.7071 -0.7071 -0.7071 801.4958 -186.924)" style="fill:#FFAF2D;" width="129.939" height="75.215"/>
<rect x="387.818" y="67.097" transform="matrix(-0.7071 0.7071 -0.7071 -0.7071 833.6697 -173.5961)" style="fill:#FF9900;" width="129.939" height="37.526"/>
<circle cx="144.744" cy="367.256" r="48.208"/>
<path style="fill:#FFFFFF;" d="M144.745,430.421c-16.184,0-32.368-6.16-44.688-18.481c-24.642-24.641-24.642-64.736,0-89.378l0,0  c24.641-24.642,64.737-24.642,89.378,0c24.642,24.642,24.642,64.737,0,89.378C177.114,424.261,160.93,430.421,144.745,430.421z   M121.26,343.765c-12.95,12.95-12.95,34.021-0.001,46.971c12.95,12.95,34.021,12.95,46.971,0c12.95-12.95,12.95-34.021,0-46.971  C155.28,330.815,134.21,330.815,121.26,343.765L121.26,343.765z"/>
<g>
</g>
<g>
</g>
<g>
</g>
<g>
</g>
<g>
</g>
<g>
</g>
<g>
</g>
<g>
</g>
<g>
</g>
<g>
</g>
<g>
</g>
<g>
</g>
<g>
</g>
<g>
</g>
<g>
</g>
</svg>
