<?xml version="1.0" encoding="iso-8859-1"?>
<!-- Generator: Adobe Illustrator 19.0.0, SVG Export Plug-In . SVG Version: 6.00 Build 0)  -->
<svg xmlns="http://www.w3.org/2000/svg" xmlns:xlink="http://www.w3.org/1999/xlink" version="1.1" id="Capa_1" x="0px" y="0px" viewBox="0 0 512 512" style="enable-background:new 0 0 512 512;" xml:space="preserve">
<g>
	<path style="fill:#A3ED5C;" d="M205.858,86.808c-0.031,0.261-9.846,26.938,12.257,49.052s49.026,12.262,49.026,12.262   s9.847-26.937-12.256-49.051C232.783,76.957,205.858,86.808,205.858,86.808z"/>
	<path style="fill:#A3ED5C;" d="M351.871,25.089c-0.261-0.031-26.938-9.846-49.052,12.257s-12.262,49.027-12.262,49.027   s26.937,9.847,49.051-12.256C361.721,52.014,351.871,25.089,351.871,25.089z"/>
</g>
<g>
	<circle style="fill:#59AA33;" cx="109.999" cy="389.076" r="99.999"/>
	<circle style="fill:#59AA33;" cx="401.996" cy="389.076" r="99.999"/>
</g>
<path style="fill:#F25353;" d="M132.653,236.077h72.329l-15.734-40.098h-56.595c-14.128,0-23.824,14.221-18.663,27.372l0,0  C117.002,231.028,124.407,236.077,132.653,236.077z"/>
<path d="M436.573,452.55c1.862,0,3.747-0.52,5.427-1.607c21.079-13.653,33.663-36.781,33.663-61.866c0-5.522-4.478-10-10-10  s-10,4.478-10,10c0,18.276-9.173,35.129-24.536,45.08c-4.636,3.003-5.959,9.194-2.957,13.83  C430.085,450.942,433.295,452.55,436.573,452.55z"/>
<path d="M402.246,462.741c5.522,0,10-4.478,10-10c0-5.522-4.478-10-10-10h-0.25c-5.522,0-10,4.478-10,10c0,5.522,4.478,10,10,10  H402.246z"/>
<path d="M110.249,442.741h-0.25c-5.522,0-10,4.478-10,10c0,5.522,4.478,10,10,10h0.25c5.522,0,10-4.478,10-10  C120.249,447.219,115.771,442.741,110.249,442.741z"/>
<path d="M287.123,95.766c0.628,0.229,7.914,2.803,18.186,2.803c11.724,0,27.338-3.355,41.368-17.379  c26.327-26.313,15.077-58.191,14.586-59.535c-1.097-2.998-3.542-5.258-6.539-6.149c-5.706-1.824-34.74-9.452-58.973,14.769  c-26.327,26.314-15.076,58.191-14.584,59.536C282.178,92.575,284.357,94.754,287.123,95.766z M354.68,15.492  c-0.271-0.079-0.547-0.147-0.826-0.204C354.212,15.361,354.499,15.438,354.68,15.492z M309.889,44.419  c12.212-12.207,26.127-12.233,33.712-11.03c1.142,7.293,1.228,21.371-11.063,33.655c-12.324,12.317-26.451,12.195-33.707,11.06  C297.685,70.82,297.582,56.72,309.889,44.419z"/>
<path d="M265.352,479.075h-0.13c-5.522,0-10,4.478-10,10s4.478,10,10,10h0.13c5.522,0,10-4.478,10-10  S270.875,479.075,265.352,479.075z"/>
<path d="M502,479.074h-36.832c28.3-19.923,46.827-52.835,46.827-89.998c0-60.653-49.346-109.999-109.999-109.999  c-10.655,0-20.958,1.528-30.708,4.368l-35.068-89.367h16.738c22.629,0,41.039-18.41,41.039-41.039s-18.41-41.039-41.039-41.039  h-55.763c-5.522,0-10,4.478-10,10c0,1.29,0.253,2.52,0.698,3.652c-0.002,0-0.004,0.001-0.004,0.001l19,48.425h-18.242  l-11.019-26.273c2.296-9.374,5.701-34.424-15.669-55.803c-26.313-26.326-58.191-15.077-59.535-14.586  c-2.998,1.097-5.258,3.542-6.149,6.539c-1.824,5.705-9.453,34.74,14.769,58.973c14.028,14.034,29.634,17.391,41.355,17.39  c3.168,0,6.05-0.246,8.542-0.592l11.835,28.22c1.558,3.716,5.193,6.133,9.222,6.133h32.74l12.557,32H211.801l-11.18-28.49  l-2.063-5.26l0,0v-0.001c-1.502-3.828-5.195-6.347-9.309-6.347h-56.595c-9.944,0-19.226,4.905-24.827,13.121  s-6.777,18.647-3.146,27.903c4.546,11.587,15.525,19.073,27.973,19.073h48.36l-24.909,43.143  c-14.031-6.504-29.651-10.143-46.106-10.143C49.346,279.077,0,328.422,0,389.076c0,37.163,18.528,70.075,46.828,89.999H10.005  c-5.522,0-10,4.478-10,10s4.478,10,10,10h220.69c5.522,0,10-4.478,10-10s-4.478-10-10-10H173.17  c25.733-18.116,43.378-46.974,46.369-79.999h45.459c3.307,0,6.399-1.635,8.262-4.366c1.863-2.731,2.255-6.208,1.048-9.286  l-54.664-139.347h115.498l17.539,44.695c-35.957,18.112-60.682,55.372-60.682,98.304c0,37.162,18.527,70.074,46.827,89.998H299.3  c-5.522,0-10,4.478-10,10s4.478,10,10,10H502c5.522,0,10-4.478,10-10S507.522,479.074,502,479.074z M196.056,84.828  c0.073-0.361,0.151-0.649,0.205-0.831C196.182,84.271,196.113,84.547,196.056,84.828z M225.188,128.789  c-12.207-12.213-12.236-26.126-11.03-33.713c7.295-1.14,21.373-1.225,33.655,11.063c12.316,12.322,12.198,26.45,11.059,33.707  C251.589,140.994,237.488,141.096,225.188,128.789z M311.86,132h41.098c11.601,0,21.039,9.438,21.039,21.039  c0,11.601-9.438,21.039-21.039,21.039h-24.586L311.86,132z M123.299,219.699c-1.232-3.142-0.85-6.543,1.052-9.331  c1.902-2.788,4.928-4.388,8.303-4.388h49.776l7.884,20.098h-57.659C128.491,226.077,124.819,223.574,123.299,219.699z   M109.999,479.075C60.373,479.075,20,438.701,20,389.076s40.374-89.999,89.999-89.999c12.816,0,25.011,2.698,36.057,7.548  l-44.717,77.451c-1.786,3.094-1.786,6.906,0,10c1.786,3.094,5.088,5,8.66,5h52.733c-2.711,14.439-11.235,27.202-23.942,35.299  c-4.658,2.968-6.028,9.149-3.061,13.807c1.906,2.993,5.14,4.628,8.443,4.628c1.838,0,3.698-0.506,5.363-1.567  c18.52-11.8,30.564-30.828,33.451-52.165h16.453C194.449,444.012,156.245,479.075,109.999,479.075z M127.319,379.076l36.042-62.425  c19.676,14.536,33.242,36.885,36.079,62.425H127.319z M219.539,379.076c-2.981-32.924-20.525-61.706-46.128-79.832l27.155-47.033  l49.768,126.865L219.539,379.076L219.539,379.076z M311.997,389.076c0-34.476,19.489-64.48,48.026-79.591l32.666,83.244  c1.547,3.941,5.318,6.35,9.312,6.35c1.215,0,2.45-0.224,3.65-0.694c5.141-2.017,7.673-7.82,5.655-12.962l-32.673-83.263  c7.455-2.006,15.286-3.082,23.365-3.082c49.626,0,89.999,40.374,89.999,89.999c0,49.6-40.333,89.956-89.922,89.998h-0.153  C352.33,479.033,311.997,438.676,311.997,389.076z"/>
<g>
</g>
<g>
</g>
<g>
</g>
<g>
</g>
<g>
</g>
<g>
</g>
<g>
</g>
<g>
</g>
<g>
</g>
<g>
</g>
<g>
</g>
<g>
</g>
<g>
</g>
<g>
</g>
<g>
</g>
</svg>
