<?xml version="1.0" encoding="iso-8859-1"?>
<!-- Generator: Adobe Illustrator 19.0.0, SVG Export Plug-In . SVG Version: 6.00 Build 0)  -->
<svg xmlns="http://www.w3.org/2000/svg" xmlns:xlink="http://www.w3.org/1999/xlink" version="1.1" id="Capa_1" x="0px" y="0px" viewBox="0 0 512 512" style="enable-background:new 0 0 512 512;" xml:space="preserve">
<path style="fill:#FDB455;" d="M19.265,170.86c22.049,22.051,53.901,22.663,87.895,19.908L321.233,404.84  c-2.757,33.994-2.144,65.846,19.908,87.895c25.111,25.113,64.006,25.726,88.2,1.531c15.313-15.619,18.07-33.687,16.845-48.387  c14.699,1.531,32.769-1.226,48.082-16.845c24.193-24.193,23.581-62.782-1.532-87.895c-21.437-21.438-52.062-22.663-82.688-20.518  L191.38,101.954c2.144-30.626,0.918-61.251-20.518-82.688C145.749-5.846,107.16-6.46,82.965,17.734  C67.348,33.047,64.591,51.117,66.121,65.816c-14.699-1.531-32.769,1.532-48.387,16.845C-6.461,106.854-5.848,145.747,19.265,170.86z  "/>
<path style="fill:#FF9800;" d="M19.265,170.86c22.049,22.051,53.901,22.663,87.895,19.908L321.233,404.84  c-2.757,33.994-2.144,65.846,19.908,87.895c25.111,25.113,64.006,25.726,88.2,1.531c15.313-15.619,18.07-33.687,16.845-48.387  L66.121,65.814c-14.699-1.531-32.769,1.532-48.387,16.845C-6.461,106.854-5.848,145.747,19.265,170.86z"/>
<path style="fill:#FFDAA8;" d="M494.266,82.66c-15.617-15.313-33.687-18.376-48.387-16.845c1.531-14.699-1.226-32.769-16.844-48.082  c-24.194-24.194-62.783-23.582-87.896,1.532c-21.437,21.437-22.663,52.062-20.518,82.688L101.954,320.62  c-30.626-2.144-61.251-0.92-82.688,20.518c-25.113,25.113-25.726,63.702-1.532,87.895c15.313,15.619,33.383,18.376,48.082,16.845  c-1.224,14.699,1.532,32.767,16.845,48.387c24.193,24.195,63.089,23.583,88.2-1.531c22.051-22.049,22.665-53.901,19.908-87.895  L404.84,190.766c33.994,2.755,65.846,2.144,87.895-19.908C517.849,145.747,518.461,106.854,494.266,82.66z"/>
<path style="fill:#FFC473;" d="M492.735,170.86c-22.049,22.051-53.901,22.663-87.895,19.908L190.767,404.84  c2.757,33.994,2.144,65.846-19.908,87.895c-25.111,25.113-64.006,25.726-88.2,1.531c-15.313-15.619-18.07-33.687-16.845-48.387  L445.879,65.814c14.699-1.531,32.769,1.532,48.387,16.845C518.461,106.854,517.849,145.747,492.735,170.86z"/>
<g>
</g>
<g>
</g>
<g>
</g>
<g>
</g>
<g>
</g>
<g>
</g>
<g>
</g>
<g>
</g>
<g>
</g>
<g>
</g>
<g>
</g>
<g>
</g>
<g>
</g>
<g>
</g>
<g>
</g>
</svg>
