<?xml version="1.0" encoding="iso-8859-1"?>
<!-- Generator: Adobe Illustrator 19.0.0, SVG Export Plug-In . SVG Version: 6.00 Build 0)  -->
<svg xmlns="http://www.w3.org/2000/svg" xmlns:xlink="http://www.w3.org/1999/xlink" version="1.1" id="Capa_1" x="0px" y="0px" viewBox="0 0 512 512" style="enable-background:new 0 0 512 512;" xml:space="preserve">
<rect x="226.55" y="160" style="fill:#DB3502;" width="58.899" height="138.55"/>
<polygon style="fill:#FF4F19;" points="77.522,327.111 117.697,512 394.303,512 434.478,327.111 "/>
<polygon style="fill:#DB3502;" points="256,327.111 256,512 394.303,512 434.478,327.111 "/>
<polygon style="fill:#56412D;" points="256,276.626 97.333,366.878 414.667,366.878 "/>
<polygon style="fill:#FFDB2D;" points="50.893,276.626 50.893,429.8 256,276.626 "/>
<polygon style="fill:#FFAF2D;" points="256,276.626 461.107,429.8 461.107,276.626 "/>
<path style="fill:#FFB9A3;" d="M218.667,89.555c-15.153,0-28.664,7.155-37.334,18.267c-8.669-11.111-22.18-18.267-37.333-18.267  c-26.1,0-47.333,21.234-47.333,47.334c0,13.443,5.747,26.299,15.769,35.272c6.403,5.733,61.419,58.521,61.974,59.054l6.924,6.644  l6.924-6.644c0.555-0.533,55.572-53.321,61.974-59.054C260.253,163.188,266,150.332,266,136.889  C266,110.789,244.766,89.555,218.667,89.555z"/>
<path style="fill:#FF9575;" d="M218.667,89.555c-15.153,0-28.664,7.155-37.334,18.267c0,68.26,0,130.037,0,130.037l6.924-6.644  c0.555-0.533,55.572-53.321,61.974-59.054C260.253,163.188,266,150.332,266,136.889C266,110.789,244.766,89.555,218.667,89.555z"/>
<path style="fill:#FFB9A3;" d="M365.867,0c-11.414,0-21.694,4.956-28.8,12.826C329.961,4.956,319.681,0,308.267,0  c-21.395,0-38.8,17.406-38.8,38.8c0,11.02,4.711,21.559,12.926,28.914c3.929,3.518,32.953,31.302,47.75,45.502l6.924,6.644  l6.924-6.644c14.798-14.2,43.822-41.984,47.751-45.502c8.214-7.355,12.925-17.894,12.925-28.914C404.667,17.406,387.261,0,365.867,0  z"/>
<path style="fill:#FF9575;" d="M365.867,0c-11.414,0-21.694,4.956-28.8,12.826c0,24.094,0,107.033,0,107.033l6.924-6.644  c14.798-14.2,43.822-41.984,47.751-45.502c8.214-7.355,12.925-17.894,12.925-28.914C404.667,17.406,387.261,0,365.867,0z"/>
<g>
	
		<rect x="65.995" y="219.547" transform="matrix(-0.7071 -0.7071 0.7071 -0.7071 -27.5826 457.6677)" style="fill:#FFDB2D;" width="30" height="30"/>
	
		<rect x="343.33" y="209.111" transform="matrix(-0.7071 -0.7071 0.7071 -0.7071 453.2374 635.9578)" style="fill:#FFDB2D;" width="30" height="30"/>
	
		<rect x="161.996" y="21.328" transform="matrix(-0.7071 -0.7071 0.7071 -0.7071 276.4628 187.1702)" style="fill:#FFDB2D;" width="30" height="30"/>
	
		<rect x="394.664" y="140.672" transform="matrix(-0.7071 -0.7071 0.7071 -0.7071 589.2625 555.4243)" style="fill:#FFDB2D;" width="30" height="30"/>
</g>
<g>
</g>
<g>
</g>
<g>
</g>
<g>
</g>
<g>
</g>
<g>
</g>
<g>
</g>
<g>
</g>
<g>
</g>
<g>
</g>
<g>
</g>
<g>
</g>
<g>
</g>
<g>
</g>
<g>
</g>
</svg>
