<?xml version="1.0" encoding="iso-8859-1"?>
<!-- Generator: Adobe Illustrator 19.0.0, SVG Export Plug-In . SVG Version: 6.00 Build 0)  -->
<svg xmlns="http://www.w3.org/2000/svg" xmlns:xlink="http://www.w3.org/1999/xlink" version="1.1" id="Capa_1" x="0px" y="0px" viewBox="0 0 511.999 511.999" style="enable-background:new 0 0 511.999 511.999;" xml:space="preserve">
<polygon style="fill:#E0E0E3;" points="280.269,34.768 255.999,7.837 231.73,34.768 203.177,504.163 255.999,504.163   308.822,504.163 "/>
<polygon style="fill:#F4F4F4;" points="308.822,504.163 280.269,34.768 255.999,7.837 255.999,504.163 "/>
<path d="M316.644,503.687L298.94,212.639c-0.262-4.32-3.951-7.605-8.299-7.347c-4.32,0.262-7.609,3.978-7.347,8.299l17.199,282.736  h-36.658l0.001-100.405c0-4.328-3.509-7.837-7.837-7.837c-4.328,0-7.837,3.509-7.837,7.837l-0.001,100.405h-36.658l26.651-438.129  h10.01l-0.002,305.196c0,4.328,3.509,7.837,7.837,7.837c4.328,0,7.837-3.509,7.837-7.837l0.002-305.196h10.004l7.382,121.369  c0.263,4.32,3.967,7.609,8.299,7.347c4.32-0.262,7.609-3.978,7.347-8.299l-8.778-144.322c-0.108-1.77-0.813-3.452-2.001-4.77  L261.822,2.59C260.336,0.941,258.22,0,255.999,0s-4.335,0.941-5.821,2.59l-24.27,26.931c-1.188,1.318-1.893,3-2.001,4.77  l-28.553,469.395c-0.131,2.157,0.634,4.273,2.115,5.846c1.481,1.574,3.546,2.466,5.707,2.466h105.645  c2.161,0,4.226-0.892,5.707-2.466C316.01,507.96,316.776,505.844,316.644,503.687z M255.999,19.543l16.614,18.436l0.277,4.545  h-9.062c-0.134-4.211-3.581-7.585-7.824-7.585c-4.242,0-7.69,3.374-7.824,7.585h-9.07l0.277-4.545L255.999,19.543z"/>
<g>
</g>
<g>
</g>
<g>
</g>
<g>
</g>
<g>
</g>
<g>
</g>
<g>
</g>
<g>
</g>
<g>
</g>
<g>
</g>
<g>
</g>
<g>
</g>
<g>
</g>
<g>
</g>
<g>
</g>
</svg>
