<?xml version="1.0" encoding="iso-8859-1"?>
<!-- Generator: Adobe Illustrator 19.0.0, SVG Export Plug-In . SVG Version: 6.00 Build 0)  -->
<svg xmlns="http://www.w3.org/2000/svg" xmlns:xlink="http://www.w3.org/1999/xlink" version="1.1" id="Capa_1" x="0px" y="0px" viewBox="0 0 512.001 512.001" style="enable-background:new 0 0 512.001 512.001;" xml:space="preserve">
<path style="fill:#FFC473;" d="M509.936,443.226L268.902,53.171c-2.699-4.5-7.801-6.6-12.902-6.6c-5.1,0-10.202,2.1-12.902,6.6  L2.065,443.226c-2.701,4.502-2.701,10.502-0.3,15.002c2.701,4.802,7.801,7.801,13.202,7.801h482.067  c5.401,0,10.5-2.999,13.202-7.801C512.637,453.728,512.637,447.727,509.936,443.226z"/>
<path style="fill:#FFB64C;" d="M510.237,458.228c-2.701,4.802-7.801,7.801-13.202,7.801H256.001V46.571c5.1,0,10.202,2.1,12.902,6.6  l241.033,390.054C512.637,447.727,512.637,453.728,510.237,458.228z"/>
<path style="fill:#FDB455;" d="M256.001,89.477L41.973,436.026h428.058L256.001,89.477z"/>
<polygon style="fill:#FF9800;" points="470.03,436.026 256.001,436.026 256.001,89.477 "/>
<path style="fill:#FFC473;" d="M440.527,346.013h-94.514v-60.008h39.305c8.102,0,15.002-6.6,15.002-15.002  s-6.9-15.002-15.002-15.002H271.002v-60.008h58.809c8.4,0,15.002-6.6,15.002-15.002s-6.602-15.002-15.002-15.002H182.19  c-8.4,0-15.002,6.6-15.002,15.002s6.602,15.002,15.002,15.002h58.809v60.008H126.683c-8.102,0-15.002,6.6-15.002,15.002  s6.9,15.002,15.002,15.002h39.305v60.008H71.475c-8.4,0-16.002,6.6-16.002,15.002s7.602,15.002,16.002,15.002h19.504v75.01  c0,8.402,6.6,15.002,15.002,15.002s15.002-6.6,15.002-15.002v-75.01h120.017v75.01c0,8.402,6.6,15.002,15.002,15.002  c8.402,0,15.002-6.6,15.002-15.002v-75.01H391.02v75.01c0,8.402,6.6,15.002,15.002,15.002c8.402,0,15.002-6.6,15.002-15.002v-75.01  h19.504c8.4,0,16.002-6.6,16.002-15.002S448.927,346.013,440.527,346.013z M316.01,346.013H195.993v-60.008H316.01V346.013z"/>
<g>
	<path style="fill:#FFB64C;" d="M421.024,165.988c-33.096,0-60.008-26.913-60.008-60.008s26.913-60.008,60.008-60.008   s60.008,26.913,60.008,60.008S454.119,165.988,421.024,165.988z"/>
	<path style="fill:#FFB64C;" d="M456.529,361.015c0,8.402-7.602,15.002-16.002,15.002h-19.504v75.01   c0,8.402-6.6,15.002-15.002,15.002c-8.402,0-15.002-6.6-15.002-15.002v-75.01H271.002v75.01c0,8.402-6.6,15.002-15.002,15.002   V346.013h60.008v-60.008H256V165.988h73.811c8.4,0,15.002,6.6,15.002,15.002s-6.602,15.002-15.002,15.002h-58.809v60.008h114.316   c8.102,0,15.002,6.6,15.002,15.002s-6.9,15.002-15.002,15.002h-39.305v60.008h94.514   C448.927,346.013,456.529,352.613,456.529,361.015z"/>
</g>
<g>
</g>
<g>
</g>
<g>
</g>
<g>
</g>
<g>
</g>
<g>
</g>
<g>
</g>
<g>
</g>
<g>
</g>
<g>
</g>
<g>
</g>
<g>
</g>
<g>
</g>
<g>
</g>
<g>
</g>
</svg>
