<?xml version="1.0" encoding="iso-8859-1"?>
<!-- Generator: Adobe Illustrator 19.0.0, SVG Export Plug-In . SVG Version: 6.00 Build 0)  -->
<svg xmlns="http://www.w3.org/2000/svg" xmlns:xlink="http://www.w3.org/1999/xlink" version="1.1" id="Capa_1" x="0px" y="0px" viewBox="0 0 512 512" style="enable-background:new 0 0 512 512;" xml:space="preserve">
<rect x="237.39" y="7.837" style="fill:#FFB64D;" width="37.212" height="29.085"/>
<rect x="228.477" y="28.681" style="fill:#FFC373;" width="54.878" height="75.034"/>
<polygon style="fill:#FFB64D;" points="283.356,45.466 283.356,105.655 228.475,105.655 228.475,57.176 "/>
<polygon style="fill:#FFC373;" points="294.639,78.215 294.639,145.503 218.6,162.127 218.6,98.621 "/>
<polygon style="fill:#FFB64D;" points="294.639,101.935 294.639,145.503 218.6,162.127 218.6,122.349 "/>
<polygon style="fill:#FFC373;" points="309.729,124.743 309.729,194.853 203.51,218.072 203.51,153.249 "/>
<polygon style="fill:#FFB64D;" points="309.729,159.666 309.729,192.593 203.51,215.812 203.51,188.173 "/>
<polygon style="fill:#FFC373;" points="328.072,182.653 328.072,273.245 185.167,304.493 185.167,221.004 "/>
<polygon style="fill:#FFB64D;" points="328.072,225.093 328.072,271.527 185.167,302.775 185.167,263.435 "/>
<polygon style="fill:#FFC373;" points="355.755,242.88 355.755,357.664 157.485,401.015 157.485,296.079 "/>
<polygon style="fill:#FFB64D;" points="355.755,298.755 355.755,357.664 157.485,401.015 157.485,351.964 "/>
<polygon style="fill:#FFC373;" points="122.871,452.468 122.871,387.514 379.434,316.745 379.434,452.468 "/>
<rect x="90.947" y="441.396" style="fill:#FFB64D;" width="330.115" height="33.971"/>
<rect x="76.287" y="465.021" style="fill:#FFC373;" width="359.414" height="39.141"/>
<path style="fill:#E09534;" d="M264.643,68.545h-16.369V53.467c0-4.52,3.664-8.185,8.185-8.185l0,0c4.52,0,8.185,3.664,8.185,8.185  V68.545z"/>
<path d="M435.706,457.186h-6.815v-15.795c0-4.329-3.509-7.837-7.837-7.837h-33.784V316.745c0-2.447-1.142-4.753-3.089-6.235  c-1.946-1.483-4.474-1.97-6.832-1.321l-13.761,3.796v-70.111c0-2.437-1.134-4.734-3.068-6.218s-4.448-1.983-6.8-1.351l-17.809,4.779  v-57.434c0-2.437-1.134-4.734-3.068-6.218c-1.933-1.483-4.445-1.982-6.8-1.351l-8.474,2.274v-52.618  c0-2.437-1.134-4.734-3.068-6.218c-1.933-1.483-4.445-1.983-6.8-1.351l-5.228,1.403V78.216c0-2.437-1.134-4.734-3.068-6.218  c-1.933-1.483-4.446-1.982-6.8-1.351l-1.412,0.378V28.681c0-4.329-3.509-7.837-7.837-7.837h-0.915V7.837  c0-4.329-3.509-7.837-7.837-7.837h-37.212c-4.328,0-7.837,3.508-7.837,7.837v13.008h-1.085c-4.328,0-7.837,3.508-7.837,7.837V89.96  l-4.064,1.09c-3.424,0.92-5.805,4.024-5.805,7.569v44.563l-9.29,2.493c-3.424,0.92-5.805,4.024-5.805,7.569v56.824l-12.537,3.365  c-3.425,0.92-5.805,4.024-5.805,7.569v61.64l-21.872,5.869c-3.424,0.92-5.805,4.024-5.805,7.569v75.916l-28.864,7.962  c-3.399,0.937-5.753,4.029-5.753,7.555v46.04h-24.09c-4.328,0-7.837,3.508-7.837,7.837v15.795h-6.815  c-4.328,0-7.837,3.508-7.837,7.837v39.142c0,4.329,3.509,7.837,7.837,7.837h359.415c4.328,0,7.837-3.508,7.837-7.837v-39.141  C443.543,460.693,440.034,457.186,435.706,457.186z M245.23,15.673h21.538v5.171H245.23V15.673z M236.308,36.518h39.213v38.713  l-39.213,10.523V36.518z M211.344,159.257l26.841-7.204c4.18-1.122,6.66-5.421,5.538-9.601c-1.121-4.181-5.421-6.654-9.601-5.538  l-7.684,2.062v-34.346l60.361-16.198v34.345l-27.319,7.332c-4.18,1.122-6.66,5.421-5.538,9.601c1.122,4.18,5.422,6.654,9.601,5.538  l38.352-10.293v46.607l-90.552,24.3v-46.605H211.344z M165.325,302.093l120.511-32.34c4.18-1.122,6.66-5.421,5.538-9.601  s-5.422-6.653-9.6-5.538l-88.772,23.823v-51.423l127.236-34.145v51.423l-11.388,3.056c-4.18,1.122-6.66,5.421-5.538,9.601  c1.122,4.181,5.424,6.655,9.601,5.538l35.004-9.394v64.216l-182.591,50.365L165.325,302.093L165.325,302.093z M98.781,449.228  h185.65c4.328,0,7.837-3.508,7.837-7.837s-3.509-7.837-7.837-7.837H130.708v-40.073l240.89-66.446v106.518h-55.497  c-4.328,0-7.837,3.508-7.837,7.837c0,4.329,3.509,7.837,7.837,7.837h97.117v7.958H98.781V449.228z M427.869,496.327h-10.661v-9.518  c0-4.329-3.509-7.837-7.837-7.837s-7.837,3.508-7.837,7.837v9.518h-18.202v-9.518c0-4.329-3.509-7.837-7.837-7.837  s-7.837,3.508-7.837,7.837v9.518h-18.202v-9.518c0-4.329-3.509-7.837-7.837-7.837c-4.328,0-7.837,3.508-7.837,7.837v9.518h-18.202  v-9.518c0-4.329-3.509-7.837-7.837-7.837c-4.328,0-7.837,3.508-7.837,7.837v9.518h-18.202v-9.518c0-4.329-3.509-7.837-7.837-7.837  s-7.837,3.508-7.837,7.837v9.518H247.83v-9.518c0-4.329-3.509-7.837-7.837-7.837c-4.328,0-7.837,3.508-7.837,7.837v9.518h-18.202  v-9.518c0-4.329-3.509-7.837-7.837-7.837c-4.328,0-7.837,3.508-7.837,7.837v9.518h-18.202v-9.518c0-4.329-3.509-7.837-7.837-7.837  c-4.328,0-7.837,3.508-7.837,7.837v9.518h-18.202v-9.518c0-4.329-3.509-7.837-7.837-7.837c-4.328,0-7.837,3.508-7.837,7.837v9.518  h-18.204v-9.518c0-4.329-3.509-7.837-7.837-7.837s-7.837,3.508-7.837,7.837v9.518H84.129v-23.467h343.741v23.467H427.869z"/>
<path d="M256.458,37.447c-8.835,0-16.021,7.187-16.021,16.02v15.078c0,4.329,3.509,7.837,7.837,7.837h16.369  c4.328,0,7.837-3.508,7.837-7.837V53.467C272.48,44.634,265.293,37.447,256.458,37.447z M256.806,60.709h-0.696v-7.241  c0-0.191,0.156-0.347,0.348-0.347s0.348,0.156,0.348,0.347L256.806,60.709L256.806,60.709z"/>
<g>
</g>
<g>
</g>
<g>
</g>
<g>
</g>
<g>
</g>
<g>
</g>
<g>
</g>
<g>
</g>
<g>
</g>
<g>
</g>
<g>
</g>
<g>
</g>
<g>
</g>
<g>
</g>
<g>
</g>
</svg>
