<?xml version="1.0" encoding="iso-8859-1"?>
<!-- Generator: Adobe Illustrator 19.0.0, SVG Export Plug-In . SVG Version: 6.00 Build 0)  -->
<svg xmlns="http://www.w3.org/2000/svg" xmlns:xlink="http://www.w3.org/1999/xlink" version="1.1" id="Capa_1" x="0px" y="0px" viewBox="0 0 512 512" style="enable-background:new 0 0 512 512;" xml:space="preserve">
<path style="fill:#A6673A;" d="M330.992,91.146V74.989c0-45.763-40.812-81.487-87.497-73.991  c-23.127,3.77-42.115,18.787-52.886,39.528l21.245,29.168l108.63,70.315l15.141-25.975  C332.741,107.464,330.992,99.045,330.992,91.146z"/>
<polygon points="294.875,183.665 252.943,196.245 292.099,215.822 334.033,203.243 "/>
<path style="fill:#83C9FF;" d="M350.65,132.445c-6.566-4.124-11.62-10.655-15.026-18.411L190.608,40.526  c-6.472,12.463-9.62,27.829-9.62,39.722v10.898c0,11.417-3.556,22.818-9.322,30.917c-7.049,9.901-13.36,11.059-23.766,21.662  l217.55,108.772l16.701-25.194l3.364-25.085C387.546,178.071,375.296,147.938,350.65,132.445z"/>
<path style="fill:#A6673A;" d="M171.666,122.063c-2.933,4.12-6.26,7.822-10.351,10.397c-21.829,13.731-37.31,40.532-34.776,70.505  l4.025,29.994l34.04,30.113L292.1,215.823l2.776-32.158L171.666,122.063z"/>
<path style="fill:#00A5FF;" d="M333.991,203.192l-39.001-19.5l-42,12.599l-122.404,36.6c4.909,38.143,2.646,21.301,10.8,79.803  l13.801,34.201l56.701-17.1l133.201-48.901l34.502-35.102l2.701-18.6L333.991,203.192z"/>
<polygon style="fill:#A6673A;" points="379.593,245.792 363.393,367.297 329.492,397.997 155.188,346.897 154.286,315.695 "/>
<polygon style="fill:#83C9FF;" points="141.248,312.593 153.735,406.664 188.021,438.604 315.509,484.707 351.71,455.345   363.393,367.218 "/>
<path style="fill:#A6673A;" d="M153.735,406.664l8.897,66.312C165.607,495.227,184.781,512,207.238,512h97.502  c23.598,0,41.944-19.135,44.605-39.024l2.364-17.629L153.735,406.664z"/>
<g>
</g>
<g>
</g>
<g>
</g>
<g>
</g>
<g>
</g>
<g>
</g>
<g>
</g>
<g>
</g>
<g>
</g>
<g>
</g>
<g>
</g>
<g>
</g>
<g>
</g>
<g>
</g>
<g>
</g>
</svg>
